<svg version="1.1" id="Layer_1" xmlns="http://www.w3.org/2000/svg" xmlns:xlink="http://www.w3.org/1999/xlink" x="0px" y="0px"
	 width="100%" viewBox="0 0 3000 3000" enable-background="new 0 0 3000 3000" xml:space="preserve">
<path fill="#000002" opacity="1.000000" stroke="none" 
	d="
M1992.000000,3002.000000 
	C1328.000122,3002.000000 665.000244,3002.000000 2.000267,3002.000000 
	C2.000178,2002.000244 2.000178,1002.000610 2.000089,2.000669 
	C1001.999512,2.000446 2001.999023,2.000446 3001.999023,2.000223 
	C3001.999268,1001.999329 3001.999268,2001.998657 3001.999512,3001.999023 
	C2665.666748,3002.000000 2329.333252,3002.000000 1992.000000,3002.000000 
M1575.885864,1218.918945 
	C1571.134888,1211.907227 1566.383911,1204.895386 1561.632935,1197.883667 
	C1561.173218,1198.078857 1560.713379,1198.274170 1560.253662,1198.469482 
	C1560.253662,1485.190552 1560.253662,1771.911743 1560.253662,2059.459961 
	C1563.785889,2059.695557 1566.661865,2060.049805 1569.538452,2060.053955 
	C1594.869751,2060.090820 1620.200928,2060.052979 1645.532227,2060.061279 
	C1674.196289,2060.070557 1702.862427,2059.936768 1731.522827,2060.270508 
	C1737.240112,2060.337158 1741.104248,2058.466064 1744.065674,2053.966553 
	C1745.528687,2051.744141 1746.945312,2049.487305 1748.290527,2047.191772 
	C1760.475830,2026.396240 1768.356567,2003.831543 1775.749023,1981.029175 
	C1780.835938,1965.337891 1783.862549,1949.512695 1782.449707,1932.912354 
	C1780.368164,1908.452026 1773.965820,1885.164917 1763.990967,1862.835571 
	C1747.162720,1825.164673 1721.834229,1794.570312 1687.549438,1771.443115 
	C1684.141479,1769.144287 1681.348633,1768.588257 1677.468262,1770.405518 
	C1660.607300,1778.302124 1642.542236,1781.378174 1624.140747,1781.972168 
	C1618.771851,1782.145386 1612.779907,1780.589966 1608.000977,1778.068848 
	C1595.095093,1771.260864 1588.785400,1756.590576 1591.630371,1742.529907 
	C1594.596558,1727.870605 1606.131226,1717.627319 1621.401001,1715.920898 
	C1628.347534,1715.144653 1635.389160,1714.657349 1642.175293,1713.108521 
	C1666.043213,1707.660156 1676.098145,1696.552612 1676.612793,1672.470093 
	C1676.768555,1665.185303 1675.964355,1657.844849 1675.142334,1650.581787 
	C1673.661865,1637.501099 1680.927734,1622.454102 1691.865967,1616.694946 
	C1708.248657,1608.068970 1729.253296,1616.659546 1734.538818,1634.912476 
	C1736.918701,1643.131348 1737.817139,1651.927979 1738.284058,1660.522339 
	C1739.395996,1680.989014 1736.769287,1701.020386 1728.529175,1721.026123 
	C1782.510742,1761.948608 1818.593384,1815.145996 1836.116577,1880.574219 
	C1883.386597,1866.214233 1966.976196,1765.434326 1970.012085,1719.683838 
	C1969.487061,1719.309570 1969.010132,1718.722046 1968.430298,1718.591675 
	C1944.301880,1713.163696 1921.156128,1704.740112 1899.036987,1693.910767 
	C1817.341431,1653.913208 1756.759277,1592.417847 1715.747559,1511.515381 
	C1712.716187,1505.535522 1711.048584,1498.126587 1711.169800,1491.425903 
	C1711.515625,1472.314819 1728.786621,1457.765381 1746.534180,1460.890503 
	C1757.509399,1462.823120 1764.792114,1469.658569 1769.520386,1479.628906 
	C1783.004272,1508.062134 1800.670166,1533.737305 1821.645996,1557.113647 
	C1869.721802,1610.691650 1929.241577,1644.202148 1999.725220,1658.616333 
	C2006.125854,1659.925171 2008.842407,1656.772583 2011.937012,1652.721313 
	C2063.351318,1585.412598 2084.390869,1509.345825 2077.196777,1425.272827 
	C2076.234375,1414.028320 2074.290527,1402.792236 2071.767822,1391.789062 
	C2070.516113,1386.329346 2071.342773,1382.531982 2074.350586,1377.987427 
	C2111.984619,1321.123413 2128.575439,1258.534424 2124.384277,1190.511597 
	C2123.387939,1174.341919 2119.733887,1158.558716 2115.387939,1142.192505 
	C2113.382568,1143.386841 2112.427979,1145.103882 2111.248291,1146.649048 
	C2071.698975,1198.439697 2021.003906,1233.617432 1957.225708,1248.585083 
	C1925.563965,1256.015625 1893.790527,1255.679077 1862.430908,1245.933838 
	C1860.325195,1245.279419 1858.019531,1245.268188 1855.812134,1244.958618 
	C1835.718872,1276.835083 1809.397095,1302.464966 1780.179321,1327.947998 
	C1794.816650,1334.057617 1807.442505,1339.894043 1820.463013,1344.650269 
	C1852.531250,1356.364746 1885.713989,1360.955933 1919.735718,1357.721802 
	C1939.476562,1355.845215 1953.498169,1372.948120 1954.535156,1386.391602 
	C1956.004272,1405.436401 1943.398560,1422.328369 1925.313721,1423.946411 
	C1891.126709,1427.005127 1857.329590,1424.007324 1824.274902,1414.968994 
	C1782.796631,1403.627441 1744.997314,1384.438232 1710.204102,1359.224487 
	C1657.313232,1320.895508 1614.280884,1273.131592 1575.885864,1218.918945 
M964.672974,1484.828979 
	C967.200378,1512.122925 972.689636,1538.774658 981.937866,1564.615601 
	C993.677856,1597.419312 1010.092529,1627.599976 1032.021362,1654.765625 
	C1034.945557,1658.388184 1037.758789,1659.767456 1042.260986,1658.457153 
	C1061.081909,1652.978638 1080.518188,1649.116943 1098.697876,1642.021240 
	C1168.115967,1614.926270 1220.775757,1567.698975 1259.388550,1504.421387 
	C1265.249512,1494.816528 1269.420898,1484.145874 1275.600708,1474.777588 
	C1289.434204,1453.807251 1316.746216,1456.198120 1327.923584,1478.749023 
	C1334.065430,1491.140625 1331.278809,1502.642700 1325.499146,1514.059082 
	C1309.800171,1545.069092 1290.261230,1573.499268 1267.257080,1599.496704 
	C1223.660522,1648.766357 1171.441528,1685.595825 1109.246826,1707.725708 
	C1096.804932,1712.152588 1084.109497,1715.866577 1070.622192,1720.201294 
	C1095.809814,1790.301147 1139.339355,1844.351196 1205.485840,1881.704346 
	C1223.970581,1815.163208 1259.510864,1761.230103 1314.058960,1720.855713 
	C1312.450562,1717.109619 1311.083862,1714.484131 1310.169434,1711.709717 
	C1302.252075,1687.685791 1302.144043,1663.104370 1306.406982,1638.571411 
	C1308.619141,1625.840332 1317.091187,1617.056152 1329.907227,1614.103638 
	C1342.455933,1611.212524 1352.976807,1615.694458 1360.635132,1625.983521 
	C1366.012207,1633.207520 1367.566284,1641.538452 1366.903076,1650.568481 
	C1366.199097,1660.152832 1365.585693,1669.844604 1366.221191,1679.403809 
	C1367.217651,1694.389526 1375.163086,1704.840820 1389.529297,1709.925659 
	C1393.593750,1711.364014 1397.755127,1712.728149 1401.987427,1713.450317 
	C1409.529419,1714.737183 1417.203125,1715.254639 1424.743530,1716.548828 
	C1440.951050,1719.330444 1453.154297,1735.812866 1451.124390,1752.483154 
	C1449.127197,1768.885742 1435.464600,1783.264160 1418.059326,1782.186279 
	C1399.666992,1781.046875 1381.614014,1778.346680 1364.761108,1770.442627 
	C1360.909790,1768.636475 1358.250000,1769.164429 1354.747437,1771.458252 
	C1330.121582,1787.584106 1310.226196,1808.253174 1294.381592,1832.965332 
	C1275.204346,1862.875488 1263.600220,1895.410156 1259.863159,1930.790161 
	C1257.852905,1949.822266 1261.908203,1967.785400 1267.921265,1985.646362 
	C1275.571655,2008.371216 1283.756592,2030.782104 1296.373413,2051.364990 
	C1300.270264,2057.722168 1304.992188,2060.267822 1312.624146,2060.223633 
	C1365.611450,2059.916016 1418.601440,2060.062012 1471.590576,2060.062744 
	C1472.923584,2060.062744 1474.258911,2060.020264 1475.589111,2060.083740 
	C1479.674072,2060.277344 1481.863525,2058.411865 1481.958496,2054.273438 
	C1482.004395,2052.274902 1481.971313,2050.274658 1481.970215,2048.275146 
	C1481.958862,2026.612915 1481.936401,2004.950562 1481.936646,1983.288330 
	C1481.938477,1726.674072 1481.943848,1470.059692 1481.948364,1213.445435 
	C1481.948486,1208.634766 1481.948364,1203.824097 1481.948364,1199.013428 
	C1481.258423,1198.870239 1480.568604,1198.726929 1479.878662,1198.583740 
	C1477.443237,1202.295166 1475.056152,1206.039429 1472.564819,1209.712891 
	C1453.301392,1238.115723 1432.187622,1265.053589 1408.951050,1290.329224 
	C1373.558472,1328.827515 1333.978394,1362.072510 1287.725464,1386.895630 
	C1235.158447,1415.107666 1179.267212,1428.579468 1119.456299,1424.202515 
	C1100.629150,1422.824829 1086.026245,1406.984985 1087.119751,1389.075684 
	C1088.317871,1369.454224 1105.219849,1355.942261 1123.527100,1357.737183 
	C1165.260010,1361.829102 1205.014160,1353.173462 1243.119141,1336.261841 
	C1248.971802,1333.664307 1254.638306,1330.646973 1260.159302,1327.937500 
	C1239.559082,1307.147827 1219.733398,1287.139648 1199.366455,1266.585571 
	C1114.298950,1308.208130 1024.541504,1318.422363 930.646240,1297.636475 
	C931.036255,1300.347656 931.018982,1302.021851 931.530396,1303.515137 
	C940.393433,1329.394775 951.391235,1354.301147 967.092590,1376.802124 
	C970.754456,1382.049927 971.422791,1386.659302 970.145203,1392.567749 
	C963.691895,1422.412476 962.005188,1452.589600 964.672974,1484.828979 
M1244.571045,646.494751 
	C1242.401733,644.428040 1240.091675,642.488586 1238.089478,640.270996 
	C1231.882446,633.396790 1221.081665,630.342957 1210.817505,636.170654 
	C1205.619629,639.121826 1200.534058,642.286255 1195.521851,645.545105 
	C1189.422363,649.510803 1183.453613,653.677429 1178.018921,657.357239 
	C1167.851929,651.645508 1158.616211,646.457031 1148.988281,641.048096 
	C1148.988281,637.548706 1148.799194,634.233643 1149.023438,630.946716 
	C1149.722412,620.702698 1150.646851,610.474121 1151.351807,600.230469 
	C1151.977539,591.138489 1147.881714,584.970520 1139.428833,581.610901 
	C1134.794678,579.769104 1130.312012,577.467773 1125.568359,575.993408 
	C1105.282349,569.688538 1085.143677,562.685852 1063.367676,563.529968 
	C1057.956909,563.739807 1053.197388,565.041077 1050.289062,569.421326 
	C1046.093262,575.740723 1042.439087,582.454712 1038.981323,589.218872 
	C1035.845703,595.352966 1033.282349,601.779602 1030.678467,607.603577 
	C1018.450073,607.603577 1007.495911,607.603577 995.972290,607.603577 
	C994.060974,603.795166 992.039673,599.998230 990.226318,596.104431 
	C986.859680,588.875122 983.625000,581.584351 980.315735,574.328125 
	C976.928528,566.901123 971.367859,563.930664 962.995728,563.406555 
	C946.620178,562.381287 931.293640,566.727295 915.915649,570.854065 
	C905.370422,573.683838 894.961914,577.236206 884.820801,581.287842 
	C877.325317,584.282593 873.911987,590.883301 874.080933,598.901794 
	C874.213562,605.191528 874.882507,611.473938 875.425171,617.749939 
	C876.045532,624.923584 876.789856,632.086609 877.426392,638.694275 
	C866.828918,644.883850 857.128540,650.549438 847.489502,656.179199 
	C837.020996,648.876587 826.829102,641.976257 816.867065,634.758484 
	C807.028076,627.629883 796.593750,629.354980 787.833313,637.614136 
	C772.130188,652.418640 755.192871,665.954895 741.810669,683.201111 
	C734.609863,692.481140 733.018188,701.841309 739.197693,711.523499 
	C745.986633,722.160767 752.883118,732.729431 759.814087,743.453857 
	C754.468872,752.613464 748.959167,762.054932 742.974915,772.309509 
	C739.930847,771.979980 736.380737,771.486755 732.813660,771.230225 
	C722.571045,770.493652 712.321106,769.316589 702.075073,769.326904 
	C692.051636,769.336975 686.125366,774.918335 682.269775,784.521179 
	C674.173889,804.685364 670.501404,825.933777 665.523193,846.845520 
	C661.726196,862.795654 665.522888,868.967773 680.566589,875.937561 
	C691.080872,880.808777 701.509644,885.864441 712.122498,890.907043 
	C712.122498,901.957092 712.122498,912.836609 712.122498,924.231018 
	C701.948608,928.865967 691.995911,933.450745 682.001221,937.942017 
	C665.060364,945.554749 663.616821,949.131775 665.392822,969.373108 
	C665.507568,970.681335 666.086365,971.943176 666.381836,973.242004 
	C667.778503,979.382568 669.655151,985.465515 670.431580,991.685059 
	C672.222473,1006.031555 677.052185,1019.443665 682.501404,1032.634155 
	C684.817688,1038.241089 688.770630,1043.090332 695.549133,1043.790894 
	C710.756592,1045.362183 725.957520,1045.822266 741.651550,1042.161011 
	C747.247009,1052.241089 752.852722,1062.339478 758.636658,1072.759033 
	C754.888855,1078.543213 751.184875,1084.418457 747.301331,1090.172485 
	C745.823547,1092.362061 743.947693,1094.285645 742.228088,1096.309082 
	C732.066772,1108.265015 730.858582,1123.570557 740.482300,1133.510132 
	C754.804688,1148.302490 769.545959,1162.727905 784.716003,1176.648071 
	C795.312683,1186.371460 805.316528,1186.292358 817.383606,1178.661621 
	C827.135620,1172.494751 837.117737,1166.691528 846.579529,1160.979492 
	C856.052429,1166.504639 864.923828,1171.678833 874.852112,1177.469482 
	C873.748657,1188.723389 872.671814,1200.234619 871.478027,1211.733643 
	C870.234924,1223.706909 874.695007,1233.653809 884.386719,1237.056885 
	C907.562805,1245.195068 930.865845,1253.065552 955.623535,1255.065674 
	C967.663696,1256.038330 973.036560,1252.750488 978.148621,1241.372070 
	C983.032593,1230.501343 988.039917,1219.686157 992.988159,1208.856934 
	C1004.641296,1208.856934 1015.839966,1208.856934 1027.230835,1208.856934 
	C1030.244507,1215.962158 1033.015747,1222.719971 1035.972168,1229.395630 
	C1038.393066,1234.862183 1040.891113,1240.304199 1043.615601,1245.623779 
	C1046.780640,1251.803589 1052.160400,1255.195312 1058.977051,1254.959106 
	C1067.903442,1254.649536 1076.817139,1253.636230 1085.706177,1252.654541 
	C1100.388550,1251.032715 1113.895874,1245.241943 1127.661011,1240.417480 
	C1146.279663,1233.892456 1151.093018,1226.109863 1148.757446,1206.575073 
	C1148.520508,1204.593384 1148.000488,1202.642944 1147.806152,1200.659058 
	C1147.070801,1193.152710 1146.415405,1185.638550 1145.775635,1178.625610 
	C1156.455688,1172.689575 1166.251709,1167.244873 1176.087524,1161.778076 
	C1185.608521,1168.740479 1194.816772,1175.818237 1204.382324,1182.374756 
	C1214.413086,1189.250122 1225.586426,1188.808228 1234.526001,1180.440430 
	C1250.783081,1165.223022 1266.728882,1149.650391 1282.236572,1133.674438 
	C1285.360962,1130.455566 1286.597046,1124.916870 1287.575562,1120.213135 
	C1289.130127,1112.739624 1285.030884,1106.890381 1280.774780,1101.119263 
	C1274.492676,1092.600952 1268.615234,1083.784424 1262.704102,1075.294189 
	C1267.937866,1066.076660 1272.769775,1057.755249 1277.401611,1049.323975 
	C1279.490967,1045.520508 1282.240601,1044.924927 1286.470459,1045.288208 
	C1298.684082,1046.337158 1310.965820,1047.214722 1323.208618,1047.076660 
	C1330.927856,1046.989624 1337.115967,1043.102173 1339.839966,1034.995972 
	C1341.845093,1029.029297 1345.003540,1023.400940 1346.559814,1017.342224 
	C1350.755127,1001.009094 1354.648682,984.584961 1358.094116,968.078369 
	C1359.824341,959.789368 1357.956665,951.889648 1350.386353,946.885315 
	C1344.612549,943.068665 1338.361694,939.943298 1332.193237,936.762268 
	C1324.872314,932.987061 1317.412231,929.481873 1310.368408,926.033936 
	C1310.368408,914.950500 1310.368408,904.970032 1310.368408,894.442444 
	C1314.665771,892.205811 1318.998535,889.821594 1323.442261,887.665649 
	C1332.105225,883.462341 1340.821289,879.367737 1349.532837,875.265198 
	C1355.236816,872.579102 1358.207886,867.867493 1358.182861,861.828430 
	C1358.158569,855.929993 1357.408203,849.989685 1356.461182,844.151306 
	C1355.295532,836.964600 1353.846558,829.801636 1352.074219,822.740295 
	C1348.677368,809.206665 1345.895996,795.491577 1339.306152,782.921997 
	C1336.052490,776.715820 1331.317139,772.728271 1324.583008,772.608276 
	C1313.650635,772.413452 1302.698364,773.133179 1291.760010,773.595642 
	C1288.170044,773.747437 1284.596924,774.299255 1280.945557,774.675354 
	C1275.287476,764.598145 1269.950317,755.092468 1264.684692,745.714172 
	C1271.338623,735.806213 1277.806152,726.530457 1283.899292,717.014893 
	C1291.858765,704.584839 1290.611816,693.335571 1280.563843,682.752563 
	C1278.965454,681.069092 1277.670166,679.091431 1276.031006,677.453857 
	C1265.957275,667.389709 1255.825073,657.384033 1244.571045,646.494751 
M1589.902344,1123.396606 
	C1625.974609,1185.725708 1669.111450,1242.288086 1724.219238,1288.941284 
	C1725.738037,1288.414185 1726.833862,1288.313110 1727.559570,1287.741821 
	C1766.624634,1256.988403 1802.022217,1223.178467 1821.251953,1175.792725 
	C1829.013062,1156.668091 1833.753784,1137.105225 1829.865234,1116.410767 
	C1827.720825,1104.997803 1824.514160,1093.787842 1822.179321,1082.405762 
	C1820.804199,1075.701782 1817.259033,1072.355469 1810.538940,1070.583008 
	C1792.953979,1065.944824 1777.170410,1057.178833 1762.911133,1046.140259 
	C1748.119019,1034.688965 1745.777222,1014.257324 1756.216675,999.649963 
	C1764.736572,987.728516 1782.560181,980.283264 1800.108643,993.589111 
	C1809.391235,1000.627441 1819.995728,1005.583191 1831.539185,1008.142090 
	C1842.161377,1010.496826 1851.688599,1008.080566 1858.926880,1000.103882 
	C1864.229736,994.260071 1868.418823,987.374451 1872.849731,980.782043 
	C1875.620117,976.660095 1877.513794,971.914673 1880.496216,967.975403 
	C1894.527832,949.442322 1919.826904,951.232788 1930.908447,971.619629 
	C1936.705322,982.284119 1936.622314,993.622375 1931.315063,1004.355469 
	C1919.984375,1027.270630 1905.881592,1048.064819 1883.739502,1062.170532 
	C1882.961670,1062.666016 1882.483765,1063.632446 1881.883789,1064.358032 
	C1884.261108,1074.159302 1887.098877,1083.732666 1888.810181,1093.503174 
	C1890.586426,1103.644409 1891.858765,1113.953369 1892.267700,1124.232056 
	C1892.663696,1134.183350 1892.283203,1144.259277 1891.135254,1154.151978 
	C1889.973633,1164.163818 1887.453613,1174.017944 1885.553101,1183.814941 
	C1905.982056,1189.252563 1930.093872,1187.953613 1948.903320,1182.774048 
	C2010.792480,1165.732300 2055.881836,1128.221069 2084.097168,1070.422974 
	C2086.059082,1066.404053 2085.553711,1063.892090 2083.176758,1060.544189 
	C2076.449707,1051.069092 2070.409424,1041.089844 2063.404053,1031.834961 
	C2059.239014,1026.332275 2056.831543,1020.523254 2055.324707,1013.906616 
	C2039.831665,945.880493 2005.132324,889.718506 1949.974609,846.885925 
	C1938.611572,838.062073 1928.470825,829.629333 1925.698242,814.846313 
	C1925.340576,812.938660 1924.130371,811.190979 1923.315308,809.369080 
	C1906.555908,771.902710 1880.223389,744.203369 1841.459351,729.221985 
	C1839.141479,728.326111 1836.687500,727.782776 1833.891479,726.955505 
	C1833.737549,728.833984 1833.365479,729.864258 1833.626343,730.696106 
	C1841.592407,756.093750 1844.453613,782.166138 1843.160645,808.633606 
	C1841.895996,834.520142 1836.436523,859.517517 1823.323364,882.192139 
	C1803.029175,917.283752 1773.060547,937.849731 1731.944458,939.028137 
	C1692.087524,940.170410 1657.220093,924.722961 1625.086060,902.743652 
	C1615.598877,896.254578 1611.543091,885.805176 1612.252808,873.872009 
	C1613.433350,854.021545 1636.436890,834.465271 1657.803955,847.673462 
	C1663.735229,851.339905 1669.804688,854.830383 1676.031616,857.962158 
	C1692.823120,866.407349 1710.210205,873.077209 1729.395508,872.794983 
	C1746.582031,872.542114 1760.156128,865.658142 1769.169922,850.454346 
	C1774.161987,842.033936 1777.456543,833.095947 1779.295288,823.553955 
	C1785.279541,792.497559 1780.155396,762.611877 1769.932251,733.215759 
	C1768.645020,729.514404 1767.357300,725.367798 1767.782227,721.621826 
	C1768.402710,716.151245 1766.129517,712.941223 1762.357422,709.777039 
	C1745.475098,695.615173 1727.266479,683.516785 1707.690674,673.366394 
	C1663.211670,650.303223 1615.559814,639.103821 1565.978516,635.007812 
	C1564.179688,634.859192 1562.294556,635.756409 1560.332031,636.192383 
	C1560.332031,640.668396 1560.332031,644.643005 1560.332031,648.617676 
	C1560.331421,786.273743 1560.305420,923.929749 1560.452637,1061.585693 
	C1560.457031,1065.697632 1561.512695,1070.198608 1563.381470,1073.851440 
	C1571.690308,1090.092407 1580.474609,1106.090088 1589.902344,1123.396606 
M1347.899658,666.853394 
	C1345.583740,668.273376 1343.267822,669.693420 1340.741699,671.242249 
	C1345.607300,678.077454 1349.807495,683.636353 1353.651245,689.431580 
	C1384.406006,735.800537 1404.695679,786.349731 1414.349854,841.187195 
	C1415.007446,844.922485 1416.508545,849.274170 1419.117554,851.773254 
	C1432.998413,865.069275 1432.426147,884.416443 1422.975220,897.293518 
	C1421.362061,899.491455 1420.524780,902.643616 1420.328613,905.425415 
	C1419.720581,914.046753 1419.617920,922.703003 1419.277344,931.344055 
	C1417.623657,973.311707 1408.779663,1013.739075 1393.598877,1052.872681 
	C1369.423706,1115.192505 1332.106445,1168.176514 1281.321289,1211.637695 
	C1273.072266,1218.697021 1264.543335,1225.429321 1255.460449,1232.872803 
	C1274.574219,1253.682373 1294.173828,1272.850708 1316.674194,1288.963013 
	C1318.500854,1287.821899 1320.075439,1287.131714 1321.283081,1286.037109 
	C1330.413574,1277.759888 1339.810425,1269.740112 1348.498047,1261.016479 
	C1402.049805,1207.242310 1443.332031,1144.838745 1477.331299,1077.314697 
	C1480.413086,1071.194214 1482.065186,1065.177368 1482.060791,1058.285889 
	C1481.975708,924.979675 1482.038818,791.673401 1482.072998,658.367188 
	C1482.074463,652.701843 1482.265381,647.029785 1482.049927,641.372986 
	C1481.828613,635.559998 1480.488892,634.383911 1474.550781,635.248291 
	C1454.142456,638.219116 1433.613037,640.639343 1413.412476,644.681519 
	C1391.184937,649.129211 1369.758057,656.563721 1347.899658,666.853394 
M1521.000244,2081.474609 
	C1464.337646,2081.471680 1407.671021,2081.855225 1351.014893,2081.248535 
	C1332.071167,2081.045898 1314.794189,2094.803467 1315.072998,2117.625000 
	C1315.302856,2136.445557 1330.527100,2151.926514 1349.765869,2151.841553 
	C1465.421997,2151.330566 1581.081543,2151.510254 1696.739624,2151.644531 
	C1725.964478,2151.678467 1736.745239,2124.744873 1727.249390,2100.417725 
	C1721.901245,2086.716553 1709.734985,2081.366943 1694.987915,2081.406738 
	C1637.659058,2081.561768 1580.329712,2081.472900 1521.000244,2081.474609 
M1648.942017,2260.349121 
	C1654.271240,2260.347656 1659.625122,2260.675537 1664.924927,2260.280029 
	C1678.738159,2259.249023 1688.517090,2251.924561 1694.574219,2239.755615 
	C1700.655518,2227.538330 1698.817505,2216.010986 1690.735840,2205.167480 
	C1682.145264,2193.640625 1670.228394,2190.199219 1656.579712,2190.208008 
	C1571.645264,2190.261719 1486.710815,2190.199707 1401.776367,2190.289062 
	C1393.205200,2190.298096 1384.473267,2190.151367 1376.094849,2191.643555 
	C1352.815552,2195.789307 1340.311890,2222.915527 1352.663086,2242.718262 
	C1359.914185,2254.343750 1370.682007,2260.505859 1385.162842,2260.467529 
	C1472.428345,2260.237305 1559.694580,2260.350830 1648.942017,2260.349121 
M1615.336060,2330.164307 
	C1625.433228,2310.772461 1614.958740,2293.792969 1592.995728,2293.914062 
	C1584.676025,2293.959961 1576.355835,2293.928955 1568.035889,2293.929199 
	C1529.431396,2293.929199 1490.826782,2293.898193 1452.222290,2293.938721 
	C1430.255615,2293.961670 1420.045898,2311.428467 1430.841309,2330.638672 
	C1436.694824,2341.054443 1442.742920,2351.368408 1448.976685,2361.561035 
	C1454.755981,2371.010986 1462.977539,2375.996094 1474.526001,2375.897705 
	C1506.472290,2375.625732 1538.423706,2375.639404 1570.370361,2375.889404 
	C1582.135620,2375.981445 1590.820435,2371.641113 1596.724976,2361.370850 
	C1602.510376,2351.308350 1608.637329,2341.442383 1615.336060,2330.164307 
M1083.204590,2585.684326 
	C1086.198730,2584.767578 1090.296753,2584.775879 1091.982666,2582.763428 
	C1097.311890,2576.402100 1092.984497,2563.709717 1085.266724,2560.788574 
	C1079.218384,2558.499512 1073.307617,2555.846436 1066.376465,2552.955078 
	C1077.842896,2539.357178 1082.471313,2524.773438 1081.628296,2508.672119 
	C1080.197388,2481.347900 1068.267456,2465.021240 1041.772949,2458.783447 
	C1026.096680,2455.092773 1010.100403,2454.943604 994.437317,2458.537354 
	C970.648193,2463.995605 954.681274,2477.713867 951.218689,2503.110596 
	C950.551392,2508.004639 950.052979,2513.034424 950.404236,2517.935303 
	C952.112305,2541.768799 960.895508,2560.360107 990.145020,2566.515869 
	C1004.922058,2569.625732 1019.818359,2569.213135 1034.619629,2566.779785 
	C1038.515137,2566.139160 1041.339478,2566.426025 1044.681152,2568.838623 
	C1055.807495,2576.872559 1068.182983,2582.430664 1083.204590,2585.684326 
M1511.705566,2458.236816 
	C1503.811035,2460.605713 1503.751953,2460.604980 1503.660522,2467.961670 
	C1503.577759,2474.620361 1503.643066,2481.280518 1503.643066,2487.940186 
	C1503.643066,2498.733643 1503.642944,2509.526855 1503.642944,2522.708252 
	C1500.790161,2518.930908 1499.384033,2517.223877 1498.145142,2515.403320 
	C1490.104004,2503.585693 1482.155640,2491.705078 1474.071045,2479.917480 
	C1457.536255,2455.809814 1460.761841,2458.373535 1433.065918,2458.310303 
	C1432.399902,2458.308838 1431.733032,2458.286865 1431.068115,2458.314697 
	C1422.005737,2458.690918 1418.405151,2462.034912 1418.362183,2471.134521 
	C1418.225220,2500.103027 1418.262939,2529.073242 1418.351196,2558.042236 
	C1418.369385,2564.042969 1420.555176,2567.020752 1426.249756,2567.411621 
	C1433.385254,2567.901611 1440.820068,2569.010498 1448.454590,2564.492188 
	C1448.454590,2543.381104 1448.454590,2521.968506 1448.454590,2498.181396 
	C1451.299927,2501.821533 1452.725220,2503.449707 1453.936157,2505.224121 
	C1465.177979,2521.696289 1476.654785,2538.017578 1487.491333,2554.753174 
	C1493.554565,2564.116699 1501.532104,2568.418701 1512.493286,2567.711670 
	C1514.814575,2567.561768 1517.158203,2567.784912 1519.483643,2567.671387 
	C1529.967163,2567.160400 1533.652710,2563.380615 1533.673218,2552.875244 
	C1533.723145,2527.235840 1533.689575,2501.596191 1533.689453,2475.956787 
	C1533.689453,2457.869141 1532.895630,2457.118896 1514.490601,2457.832764 
	C1514.161255,2457.845459 1513.835205,2457.946289 1511.705566,2458.236816 
M2340.307617,2509.000000 
	C2340.307617,2524.299561 2340.267090,2539.599121 2340.323242,2554.898438 
	C2340.355957,2563.856689 2342.998047,2567.532227 2351.715820,2567.490479 
	C2369.936035,2567.403076 2388.190430,2566.893555 2406.352539,2565.521484 
	C2415.211182,2564.852295 2423.722412,2561.611572 2430.946289,2555.708740 
	C2445.924561,2543.469727 2445.553467,2522.686279 2429.972412,2511.533691 
	C2427.927490,2510.070068 2425.819824,2508.694092 2423.593018,2507.176270 
	C2439.603027,2494.964844 2437.688232,2468.431152 2412.550293,2461.664551 
	C2406.526855,2460.042969 2400.265137,2458.667236 2394.069336,2458.456787 
	C2380.116455,2457.982422 2366.135742,2458.232178 2352.167480,2458.334229 
	C2342.801270,2458.402588 2340.417969,2460.772461 2340.334961,2470.082031 
	C2340.225098,2482.387207 2340.307617,2494.693848 2340.307617,2509.000000 
M690.720032,2566.057129 
	C696.957458,2566.595703 703.207153,2567.682617 709.429321,2567.543213 
	C718.585144,2567.337891 720.253174,2565.257080 720.330688,2556.063477 
	C720.414307,2546.143799 720.349609,2536.222656 720.349609,2526.562012 
	C731.676941,2523.552246 738.535522,2528.030029 743.220032,2537.024414 
	C747.206909,2544.678711 750.977905,2552.465088 755.382568,2559.873047 
	C757.111694,2562.781494 760.074890,2566.548340 762.875061,2566.919922 
	C770.371094,2567.915527 778.119995,2567.745117 785.695251,2567.132324 
	C790.354126,2566.755859 792.019958,2563.126465 790.475769,2558.486816 
	C789.436279,2555.363525 788.035461,2552.297363 786.367126,2549.458008 
	C779.858765,2538.381592 773.179199,2527.405273 766.502075,2516.289795 
	C768.128845,2515.253662 770.783020,2513.822266 773.149170,2512.014160 
	C790.208984,2498.975830 787.710999,2473.747803 768.413818,2464.397217 
	C759.938843,2460.290527 750.872375,2458.415527 741.484436,2458.344482 
	C727.839355,2458.240967 714.192688,2458.277832 700.546997,2458.329834 
	C689.211487,2458.372803 687.682861,2459.826416 687.665466,2470.817139 
	C687.620361,2499.440186 687.609741,2528.063477 687.712769,2556.686035 
	C687.723083,2559.563965 688.602051,2562.438477 690.720032,2566.057129 
M2226.657959,2545.137207 
	C2212.690674,2540.489258 2209.747559,2536.573486 2209.702393,2522.143311 
	C2209.645996,2504.174316 2209.744873,2486.204346 2209.662598,2468.235352 
	C2209.626221,2460.267090 2208.558350,2459.005371 2200.711182,2458.093018 
	C2196.438232,2457.596680 2192.067871,2457.486816 2187.771973,2457.734131 
	C2178.060791,2458.292725 2176.364014,2460.153809 2176.329102,2469.890381 
	C2176.264893,2487.859375 2176.293213,2505.829102 2176.314941,2523.798340 
	C2176.345947,2549.492676 2189.010986,2562.004150 2210.010986,2566.253418 
	C2220.283691,2568.332031 2231.091064,2567.902344 2241.667969,2568.304443 
	C2252.575684,2568.719238 2262.678955,2565.563721 2272.042969,2560.169922 
	C2282.491455,2554.151855 2289.436035,2544.828613 2289.947754,2533.042236 
	C2290.928467,2510.457764 2290.404541,2487.802490 2290.180176,2465.179688 
	C2290.158936,2463.038330 2288.129639,2459.346924 2286.534180,2459.049561 
	C2277.203613,2457.309814 2267.679443,2455.872803 2259.042725,2460.454346 
	C2258.690918,2461.958008 2258.413818,2462.596924 2258.410889,2463.237061 
	C2258.357666,2474.217285 2258.330078,2485.197754 2258.313477,2496.177979 
	C2258.299072,2505.495361 2258.567139,2514.821777 2258.241211,2524.127930 
	C2257.776367,2537.402588 2252.326172,2543.843018 2237.227539,2545.588379 
	C2234.277832,2545.929443 2231.246826,2545.565186 2226.657959,2545.137207 
M1159.688599,2485.067139 
	C1159.688354,2479.406982 1159.765259,2473.745850 1159.669312,2468.087158 
	C1159.537720,2460.313721 1158.420044,2458.870605 1150.551147,2458.090088 
	C1145.620361,2457.601318 1140.568115,2457.600830 1135.633423,2458.059814 
	C1127.922485,2458.777100 1126.407104,2460.442871 1126.356079,2468.067139 
	C1126.224854,2487.710205 1125.984619,2507.361816 1126.421021,2526.995850 
	C1126.740967,2541.384766 1132.390015,2552.874756 1145.237549,2561.093018 
	C1160.251587,2570.697021 1205.909546,2571.298096 1220.535278,2561.000488 
	C1221.348633,2560.427734 1222.277100,2560.019043 1223.095825,2559.453125 
	C1232.889648,2552.682373 1239.804565,2543.710693 1240.119141,2531.598389 
	C1240.689575,2509.638672 1240.278931,2487.654785 1240.401489,2465.681641 
	C1240.420898,2462.209229 1239.234131,2459.497803 1235.931030,2458.883301 
	C1226.817017,2457.188721 1217.637817,2456.153076 1208.310913,2460.709717 
	C1208.310913,2463.635010 1208.311035,2466.261719 1208.310791,2468.888428 
	C1208.308960,2487.200439 1208.673828,2505.521729 1208.196411,2523.821289 
	C1207.765991,2540.313721 1199.751953,2544.232910 1188.451294,2545.421143 
	C1172.578613,2547.090332 1157.919678,2541.892822 1159.547119,2519.996094 
	C1160.359253,2509.069092 1159.688599,2498.032227 1159.688599,2485.067139 
M1290.300781,2505.000244 
	C1290.300781,2521.641846 1290.260986,2538.283447 1290.316772,2554.924805 
	C1290.346680,2563.862793 1292.994385,2567.375000 1301.746704,2567.540771 
	C1322.707275,2567.938232 1343.682617,2567.857422 1364.647217,2567.592529 
	C1372.102417,2567.498291 1374.492554,2564.032959 1374.365723,2555.654785 
	C1374.238892,2547.281982 1371.858765,2544.469238 1364.058838,2544.348389 
	C1352.745239,2544.173096 1341.426758,2544.349121 1330.111084,2544.264404 
	C1327.615112,2544.245850 1325.122437,2543.762939 1323.002686,2543.534180 
	C1323.002686,2535.837158 1323.002686,2529.012207 1323.002686,2521.698242 
	C1334.925049,2521.698242 1346.223877,2521.884521 1357.507935,2521.558838 
	C1360.122925,2521.483398 1363.913452,2520.408203 1365.067993,2518.515137 
	C1370.793091,2509.128662 1365.282471,2499.750488 1354.413452,2499.646240 
	C1349.421509,2499.598389 1344.428711,2499.638184 1339.436279,2499.638428 
	C1333.911743,2499.638428 1328.387085,2499.638184 1323.106201,2499.638184 
	C1323.106201,2492.446045 1323.106201,2486.661377 1323.106201,2480.359619 
	C1326.459961,2480.359619 1329.087891,2480.359375 1331.715820,2480.359619 
	C1342.699219,2480.359863 1353.684448,2480.481689 1364.665405,2480.317871 
	C1371.747437,2480.212158 1373.299561,2478.507812 1373.683594,2471.438232 
	C1373.773560,2469.779297 1373.811523,2468.100342 1373.668213,2466.448486 
	C1373.117798,2460.106445 1371.473389,2458.379150 1364.912598,2458.343994 
	C1343.612061,2458.229980 1322.309814,2458.202148 1301.009766,2458.351562 
	C1292.813232,2458.409180 1290.400635,2460.981445 1290.326904,2469.052002 
	C1290.223389,2480.367188 1290.300781,2491.684326 1290.300781,2505.000244 
M894.778442,2544.311279 
	C884.894653,2544.311279 875.010864,2544.311279 864.764038,2544.311279 
	C864.764038,2536.406738 864.764038,2529.578369 864.764038,2522.142822 
	C868.026245,2521.979736 870.924133,2521.729492 873.823608,2521.709473 
	C882.146057,2521.652588 890.471558,2521.812500 898.791260,2521.650879 
	C906.041199,2521.510010 908.255188,2518.865234 908.351990,2510.893555 
	C908.446838,2503.081543 905.992249,2499.904297 899.203186,2499.696533 
	C892.551086,2499.492676 885.888000,2499.664795 879.229797,2499.642822 
	C874.384766,2499.626953 869.539856,2499.563721 864.794678,2499.522705 
	C864.794678,2492.552246 864.794678,2486.987793 864.794678,2480.833496 
	C868.094299,2480.658203 870.995850,2480.385742 873.898743,2480.371094 
	C884.551697,2480.318115 895.206238,2480.447510 905.857910,2480.317139 
	C913.151428,2480.228027 915.542480,2477.521240 915.688599,2469.812500 
	C915.848145,2461.400635 913.441956,2458.395020 905.775269,2458.351807 
	C884.802368,2458.233398 863.827454,2458.194580 842.855347,2458.367432 
	C834.300171,2458.438232 831.714233,2461.189941 831.682129,2469.946045 
	C831.578247,2498.243164 831.585266,2526.541260 831.675354,2554.838623 
	C831.705933,2564.459961 834.365417,2567.467529 844.036743,2567.600586 
	C864.673401,2567.885010 885.317749,2567.800293 905.956848,2567.621582 
	C912.478699,2567.564941 915.035339,2564.860840 915.683105,2558.769531 
	C916.880920,2547.504639 914.127319,2544.439209 902.681458,2544.314209 
	C900.684204,2544.292480 898.686584,2544.311279 894.778442,2544.311279 
M1666.152710,2539.704834 
	C1659.149658,2541.537354 1652.242676,2544.025879 1645.123901,2545.066895 
	C1629.781250,2547.310303 1615.006836,2537.327637 1612.735718,2522.501221 
	C1611.616333,2515.192871 1612.273438,2507.194336 1614.012451,2499.961426 
	C1616.828613,2488.247559 1626.674316,2481.267578 1638.692627,2480.333984 
	C1647.888916,2479.619385 1656.460449,2481.634766 1664.665771,2485.668213 
	C1667.013428,2486.822510 1669.534912,2488.649170 1671.877441,2488.509033 
	C1674.404541,2488.357910 1677.974243,2486.899902 1679.073242,2484.902588 
	C1683.491211,2476.874268 1678.739868,2465.334229 1669.788086,2461.893066 
	C1648.314331,2453.638184 1626.895996,2454.199707 1606.041016,2463.842529 
	C1589.757812,2471.370850 1580.326660,2484.614502 1577.888062,2502.273193 
	C1576.866699,2509.668945 1577.067993,2517.372314 1577.758423,2524.839111 
	C1579.483398,2543.501465 1589.953979,2556.330811 1606.916992,2563.123291 
	C1627.072021,2571.194092 1647.831177,2570.442139 1668.353149,2563.965576 
	C1678.716797,2560.694580 1680.940796,2556.995605 1680.350708,2546.298340 
	C1679.835693,2536.957520 1676.750854,2535.194580 1666.152710,2539.704834 
M2006.056641,2458.467529 
	C1994.262329,2456.021484 1982.461548,2455.498291 1970.567383,2457.914551 
	C1959.669189,2460.128662 1949.487183,2463.841553 1941.112793,2471.421143 
	C1922.683472,2488.102051 1920.699341,2509.199219 1925.613403,2531.777832 
	C1928.893311,2546.846680 1938.548462,2557.309082 1952.597168,2562.885010 
	C1973.434204,2571.154785 1994.828613,2570.669922 2015.915894,2563.679932 
	C2025.877075,2560.377686 2026.473999,2558.506836 2026.352539,2547.210693 
	C2026.234131,2536.199951 2023.834351,2534.826660 2013.853149,2538.659668 
	C2006.811401,2541.363770 1999.464111,2544.102783 1992.057373,2544.829590 
	C1981.266968,2545.888672 1970.379150,2543.834473 1964.033325,2533.809814 
	C1955.974731,2521.078857 1955.807495,2507.197998 1962.903809,2494.021729 
	C1969.647705,2481.500488 1981.768188,2479.090576 1994.676880,2480.524902 
	C1999.817749,2481.095947 2004.782227,2483.454834 2009.762329,2485.185791 
	C2012.255493,2486.052734 2014.536499,2487.532959 2017.032227,2488.389404 
	C2021.584717,2489.951660 2024.673340,2488.224121 2025.991821,2483.668457 
	C2029.226196,2472.493164 2025.489258,2465.189209 2014.285034,2460.970459 
	C2012.125244,2460.156982 2009.853638,2459.640869 2006.056641,2458.467529 
M607.126831,2525.709229 
	C615.121826,2525.708984 623.117310,2525.760986 631.111755,2525.694580 
	C639.552063,2525.624268 641.793945,2523.495361 642.221375,2515.405518 
	C642.715698,2506.051514 639.701172,2502.542725 630.284485,2502.344482 
	C619.712463,2502.121582 609.132141,2502.293213 598.304810,2502.293213 
	C598.304810,2495.038330 598.304810,2488.622314 598.304810,2481.704346 
	C610.840210,2481.704346 622.789612,2481.864990 634.731934,2481.644531 
	C641.919067,2481.511963 644.048096,2479.104980 644.360901,2471.926270 
	C644.447815,2469.931641 644.545227,2467.907715 644.313904,2465.935059 
	C643.651001,2460.281006 641.764343,2458.365234 636.104126,2458.334473 
	C616.117126,2458.225586 596.128418,2458.185547 576.141968,2458.340088 
	C567.224976,2458.408936 564.365540,2461.373779 564.331299,2470.513916 
	C564.222839,2499.495361 564.244568,2528.478027 564.324951,2557.459717 
	C564.344482,2564.518311 566.634338,2567.009033 573.633911,2567.608154 
	C577.933655,2567.976318 582.295898,2567.856934 586.617981,2567.672363 
	C595.843567,2567.278564 597.621948,2565.445312 597.691650,2556.355469 
	C597.767700,2546.442871 597.708923,2536.529053 597.708923,2525.709229 
	C600.705872,2525.709229 602.933228,2525.709229 607.126831,2525.709229 
M1807.870972,2482.888672 
	C1811.063843,2477.840820 1814.650024,2472.992432 1817.341919,2467.690186 
	C1820.176392,2462.106689 1818.252319,2458.879150 1811.984375,2458.142090 
	C1807.384155,2457.601318 1802.690430,2457.914062 1798.052979,2457.617676 
	C1790.315918,2457.123291 1785.064697,2459.786377 1781.381348,2467.207275 
	C1776.280273,2477.484863 1769.943481,2487.149414 1763.727417,2497.774658 
	C1756.951782,2486.104492 1750.864014,2475.225830 1744.319214,2464.629639 
	C1742.731567,2462.059570 1739.797485,2458.908936 1737.206299,2458.634766 
	C1729.335449,2457.801758 1721.303711,2457.844482 1713.385986,2458.349854 
	C1708.958130,2458.632568 1707.289429,2462.034424 1708.633423,2466.283447 
	C1709.216553,2468.127197 1710.501343,2469.769287 1711.570312,2471.437012 
	C1721.779053,2487.363770 1731.902710,2503.346924 1742.304199,2519.147217 
	C1745.157104,2523.480957 1746.609009,2527.787109 1746.397949,2533.017822 
	C1746.062744,2541.320068 1746.286621,2549.645996 1746.320679,2557.961914 
	C1746.336426,2561.833740 1747.125366,2565.475830 1751.594482,2566.389648 
	C1761.022827,2568.317139 1770.439575,2569.376953 1779.694458,2564.206055 
	C1779.694458,2553.116943 1779.451294,2542.492920 1779.834961,2531.891846 
	C1779.958496,2528.477783 1781.071045,2524.713867 1782.866211,2521.812744 
	C1790.724243,2509.113770 1798.998901,2496.672852 1807.870972,2482.888672 
M2099.702148,2526.889648 
	C2099.701904,2507.273438 2099.763184,2487.656738 2099.671631,2468.041016 
	C2099.634277,2460.064209 2098.533203,2458.852051 2090.697021,2458.069824 
	C2086.415283,2457.642090 2082.060059,2457.477539 2077.768066,2457.724365 
	C2068.119385,2458.278809 2066.367432,2460.114258 2066.333740,2469.959473 
	C2066.238770,2497.554932 2066.239502,2525.151367 2066.330078,2552.746826 
	C2066.367188,2564.089844 2069.712891,2567.516846 2081.230713,2567.646484 
	C2098.849854,2567.844482 2116.473633,2567.772949 2134.094238,2567.668213 
	C2142.928955,2567.615723 2145.363770,2565.131592 2145.697998,2556.568359 
	C2146.102051,2546.213379 2143.750000,2543.736328 2133.088867,2543.656250 
	C2122.217041,2543.574707 2111.343994,2543.638184 2099.702148,2543.638184 
	C2099.702148,2538.024658 2099.702148,2533.436523 2099.702148,2526.889648 
z"/>
<path fill="#FBFBFB" opacity="1.000000" stroke="none" 
	d="
M1576.328125,1219.491455 
	C1614.280884,1273.131592 1657.313232,1320.895508 1710.204102,1359.224487 
	C1744.997314,1384.438232 1782.796631,1403.627441 1824.274902,1414.968994 
	C1857.329590,1424.007324 1891.126709,1427.005127 1925.313721,1423.946411 
	C1943.398560,1422.328369 1956.004272,1405.436401 1954.535156,1386.391602 
	C1953.498169,1372.948120 1939.476562,1355.845215 1919.735718,1357.721802 
	C1885.713989,1360.955933 1852.531250,1356.364746 1820.463013,1344.650269 
	C1807.442505,1339.894043 1794.816650,1334.057617 1780.179321,1327.947998 
	C1809.397095,1302.464966 1835.718872,1276.835083 1855.812134,1244.958618 
	C1858.019531,1245.268188 1860.325195,1245.279419 1862.430908,1245.933838 
	C1893.790527,1255.679077 1925.563965,1256.015625 1957.225708,1248.585083 
	C2021.003906,1233.617432 2071.698975,1198.439697 2111.248291,1146.649048 
	C2112.427979,1145.103882 2113.382568,1143.386841 2115.387939,1142.192505 
	C2119.733887,1158.558716 2123.387939,1174.341919 2124.384277,1190.511597 
	C2128.575439,1258.534424 2111.984619,1321.123413 2074.350586,1377.987427 
	C2071.342773,1382.531982 2070.516113,1386.329346 2071.767822,1391.789062 
	C2074.290527,1402.792236 2076.234375,1414.028320 2077.196777,1425.272827 
	C2084.390869,1509.345825 2063.351318,1585.412598 2011.937012,1652.721313 
	C2008.842407,1656.772583 2006.125854,1659.925171 1999.725220,1658.616333 
	C1929.241577,1644.202148 1869.721802,1610.691650 1821.645996,1557.113647 
	C1800.670166,1533.737305 1783.004272,1508.062134 1769.520386,1479.628906 
	C1764.792114,1469.658569 1757.509399,1462.823120 1746.534180,1460.890503 
	C1728.786621,1457.765381 1711.515625,1472.314819 1711.169800,1491.425903 
	C1711.048584,1498.126587 1712.716187,1505.535522 1715.747559,1511.515381 
	C1756.759277,1592.417847 1817.341431,1653.913208 1899.036987,1693.910767 
	C1921.156128,1704.740112 1944.301880,1713.163696 1968.430298,1718.591675 
	C1969.010132,1718.722046 1969.487061,1719.309570 1970.011475,1719.684814 
	C1966.976196,1765.434326 1883.386597,1866.214233 1836.116577,1880.574219 
	C1818.593384,1815.145996 1782.510742,1761.948608 1728.529175,1721.026123 
	C1736.769287,1701.020386 1739.395996,1680.989014 1738.284058,1660.522339 
	C1737.817139,1651.927979 1736.918701,1643.131348 1734.538818,1634.912476 
	C1729.253296,1616.659546 1708.248657,1608.068970 1691.865967,1616.694946 
	C1680.927734,1622.454102 1673.661865,1637.501099 1675.142334,1650.581787 
	C1675.964355,1657.844849 1676.768555,1665.185303 1676.612793,1672.470093 
	C1676.098145,1696.552612 1666.043213,1707.660156 1642.175293,1713.108521 
	C1635.389160,1714.657349 1628.347534,1715.144653 1621.401001,1715.920898 
	C1606.131226,1717.627319 1594.596558,1727.870605 1591.630371,1742.529907 
	C1588.785400,1756.590576 1595.095093,1771.260864 1608.000977,1778.068848 
	C1612.779907,1780.589966 1618.771851,1782.145386 1624.140747,1781.972168 
	C1642.542236,1781.378174 1660.607300,1778.302124 1677.468262,1770.405518 
	C1681.348633,1768.588257 1684.141479,1769.144287 1687.549438,1771.443115 
	C1721.834229,1794.570312 1747.162720,1825.164673 1763.990967,1862.835571 
	C1773.965820,1885.164917 1780.368164,1908.452026 1782.449707,1932.912354 
	C1783.862549,1949.512695 1780.835938,1965.337891 1775.749023,1981.029175 
	C1768.356567,2003.831543 1760.475830,2026.396240 1748.290527,2047.191772 
	C1746.945312,2049.487305 1745.528687,2051.744141 1744.065674,2053.966553 
	C1741.104248,2058.466064 1737.240112,2060.337158 1731.522827,2060.270508 
	C1702.862427,2059.936768 1674.196289,2060.070557 1645.532227,2060.061279 
	C1620.200928,2060.052979 1594.869751,2060.090820 1569.538452,2060.053955 
	C1566.661865,2060.049805 1563.785889,2059.695557 1560.253662,2059.459961 
	C1560.253662,1771.911743 1560.253662,1485.190552 1560.253662,1198.469482 
	C1560.713379,1198.274170 1561.173218,1198.078857 1561.632935,1197.883667 
	C1566.383911,1204.895386 1571.134888,1211.907227 1576.328125,1219.491455 
z"/>
<path fill="#FBFBFB" opacity="1.000000" stroke="none" 
	d="
M964.608521,1483.919434 
	C962.005188,1452.589600 963.691895,1422.412476 970.145203,1392.567749 
	C971.422791,1386.659302 970.754456,1382.049927 967.092590,1376.802124 
	C951.391235,1354.301147 940.393433,1329.394775 931.530396,1303.515137 
	C931.018982,1302.021851 931.036255,1300.347656 930.646240,1297.636475 
	C1024.541504,1318.422363 1114.298950,1308.208130 1199.366455,1266.585571 
	C1219.733398,1287.139648 1239.559082,1307.147827 1260.159302,1327.937500 
	C1254.638306,1330.646973 1248.971802,1333.664307 1243.119141,1336.261841 
	C1205.014160,1353.173462 1165.260010,1361.829102 1123.527100,1357.737183 
	C1105.219849,1355.942261 1088.317871,1369.454224 1087.119751,1389.075684 
	C1086.026245,1406.984985 1100.629150,1422.824829 1119.456299,1424.202515 
	C1179.267212,1428.579468 1235.158447,1415.107666 1287.725464,1386.895630 
	C1333.978394,1362.072510 1373.558472,1328.827515 1408.951050,1290.329224 
	C1432.187622,1265.053589 1453.301392,1238.115723 1472.564819,1209.712891 
	C1475.056152,1206.039429 1477.443237,1202.295166 1479.878662,1198.583740 
	C1480.568604,1198.726929 1481.258423,1198.870239 1481.948364,1199.013428 
	C1481.948364,1203.824097 1481.948486,1208.634766 1481.948364,1213.445435 
	C1481.943848,1470.059692 1481.938477,1726.674072 1481.936646,1983.288330 
	C1481.936401,2004.950562 1481.958862,2026.612915 1481.970215,2048.275146 
	C1481.971313,2050.274658 1482.004395,2052.274902 1481.958496,2054.273438 
	C1481.863525,2058.411865 1479.674072,2060.277344 1475.589111,2060.083740 
	C1474.258911,2060.020264 1472.923584,2060.062744 1471.590576,2060.062744 
	C1418.601440,2060.062012 1365.611450,2059.916016 1312.624146,2060.223633 
	C1304.992188,2060.267822 1300.270264,2057.722168 1296.373413,2051.364990 
	C1283.756592,2030.782104 1275.571655,2008.371216 1267.921265,1985.646362 
	C1261.908203,1967.785400 1257.852905,1949.822266 1259.863159,1930.790161 
	C1263.600220,1895.410156 1275.204346,1862.875488 1294.381592,1832.965332 
	C1310.226196,1808.253174 1330.121582,1787.584106 1354.747437,1771.458252 
	C1358.250000,1769.164429 1360.909790,1768.636475 1364.761108,1770.442627 
	C1381.614014,1778.346680 1399.666992,1781.046875 1418.059326,1782.186279 
	C1435.464600,1783.264160 1449.127197,1768.885742 1451.124390,1752.483154 
	C1453.154297,1735.812866 1440.951050,1719.330444 1424.743530,1716.548828 
	C1417.203125,1715.254639 1409.529419,1714.737183 1401.987427,1713.450317 
	C1397.755127,1712.728149 1393.593750,1711.364014 1389.529297,1709.925659 
	C1375.163086,1704.840820 1367.217651,1694.389526 1366.221191,1679.403809 
	C1365.585693,1669.844604 1366.199097,1660.152832 1366.903076,1650.568481 
	C1367.566284,1641.538452 1366.012207,1633.207520 1360.635132,1625.983521 
	C1352.976807,1615.694458 1342.455933,1611.212524 1329.907227,1614.103638 
	C1317.091187,1617.056152 1308.619141,1625.840332 1306.406982,1638.571411 
	C1302.144043,1663.104370 1302.252075,1687.685791 1310.169434,1711.709717 
	C1311.083862,1714.484131 1312.450562,1717.109619 1314.058960,1720.855713 
	C1259.510864,1761.230103 1223.970581,1815.163208 1205.485840,1881.704346 
	C1139.339355,1844.351196 1095.809814,1790.301147 1070.622192,1720.201294 
	C1084.109497,1715.866577 1096.804932,1712.152588 1109.246826,1707.725708 
	C1171.441528,1685.595825 1223.660522,1648.766357 1267.257080,1599.496704 
	C1290.261230,1573.499268 1309.800171,1545.069092 1325.499146,1514.059082 
	C1331.278809,1502.642700 1334.065430,1491.140625 1327.923584,1478.749023 
	C1316.746216,1456.198120 1289.434204,1453.807251 1275.600708,1474.777588 
	C1269.420898,1484.145874 1265.249512,1494.816528 1259.388550,1504.421387 
	C1220.775757,1567.698975 1168.115967,1614.926270 1098.697876,1642.021240 
	C1080.518188,1649.116943 1061.081909,1652.978638 1042.260986,1658.457153 
	C1037.758789,1659.767456 1034.945557,1658.388184 1032.021362,1654.765625 
	C1010.092529,1627.599976 993.677856,1597.419312 981.937866,1564.615601 
	C972.689636,1538.774658 967.200378,1512.122925 964.608521,1483.919434 
z"/>
<path fill="#FBFBFB" opacity="1.000000" stroke="none" 
	d="
M1245.141602,646.926880 
	C1255.825073,657.384033 1265.957275,667.389709 1276.031006,677.453857 
	C1277.670166,679.091431 1278.965454,681.069092 1280.563843,682.752563 
	C1290.611816,693.335571 1291.858765,704.584839 1283.899292,717.014893 
	C1277.806152,726.530457 1271.338623,735.806213 1264.684692,745.714172 
	C1269.950317,755.092468 1275.287476,764.598145 1280.945557,774.675354 
	C1284.596924,774.299255 1288.170044,773.747437 1291.760010,773.595642 
	C1302.698364,773.133179 1313.650635,772.413452 1324.583008,772.608276 
	C1331.317139,772.728271 1336.052490,776.715820 1339.306152,782.921997 
	C1345.895996,795.491577 1348.677368,809.206665 1352.074219,822.740295 
	C1353.846558,829.801636 1355.295532,836.964600 1356.461182,844.151306 
	C1357.408203,849.989685 1358.158569,855.929993 1358.182861,861.828430 
	C1358.207886,867.867493 1355.236816,872.579102 1349.532837,875.265198 
	C1340.821289,879.367737 1332.105225,883.462341 1323.442261,887.665649 
	C1318.998535,889.821594 1314.665771,892.205811 1310.368408,894.442444 
	C1310.368408,904.970032 1310.368408,914.950500 1310.368408,926.033936 
	C1317.412231,929.481873 1324.872314,932.987061 1332.193237,936.762268 
	C1338.361694,939.943298 1344.612549,943.068665 1350.386353,946.885315 
	C1357.956665,951.889648 1359.824341,959.789368 1358.094116,968.078369 
	C1354.648682,984.584961 1350.755127,1001.009094 1346.559814,1017.342224 
	C1345.003540,1023.400940 1341.845093,1029.029297 1339.839966,1034.995972 
	C1337.115967,1043.102173 1330.927856,1046.989624 1323.208618,1047.076660 
	C1310.965820,1047.214722 1298.684082,1046.337158 1286.470459,1045.288208 
	C1282.240601,1044.924927 1279.490967,1045.520508 1277.401611,1049.323975 
	C1272.769775,1057.755249 1267.937866,1066.076660 1262.704102,1075.294189 
	C1268.615234,1083.784424 1274.492676,1092.600952 1280.774780,1101.119263 
	C1285.030884,1106.890381 1289.130127,1112.739624 1287.575562,1120.213135 
	C1286.597046,1124.916870 1285.360962,1130.455566 1282.236572,1133.674438 
	C1266.728882,1149.650391 1250.783081,1165.223022 1234.526001,1180.440430 
	C1225.586426,1188.808228 1214.413086,1189.250122 1204.382324,1182.374756 
	C1194.816772,1175.818237 1185.608521,1168.740479 1176.087524,1161.778076 
	C1166.251709,1167.244873 1156.455688,1172.689575 1145.775635,1178.625610 
	C1146.415405,1185.638550 1147.070801,1193.152710 1147.806152,1200.659058 
	C1148.000488,1202.642944 1148.520508,1204.593384 1148.757446,1206.575073 
	C1151.093018,1226.109863 1146.279663,1233.892456 1127.661011,1240.417480 
	C1113.895874,1245.241943 1100.388550,1251.032715 1085.706177,1252.654541 
	C1076.817139,1253.636230 1067.903442,1254.649536 1058.977051,1254.959106 
	C1052.160400,1255.195312 1046.780640,1251.803589 1043.615601,1245.623779 
	C1040.891113,1240.304199 1038.393066,1234.862183 1035.972168,1229.395630 
	C1033.015747,1222.719971 1030.244507,1215.962158 1027.230835,1208.856934 
	C1015.839966,1208.856934 1004.641296,1208.856934 992.988159,1208.856934 
	C988.039917,1219.686157 983.032593,1230.501343 978.148621,1241.372070 
	C973.036560,1252.750488 967.663696,1256.038330 955.623535,1255.065674 
	C930.865845,1253.065552 907.562805,1245.195068 884.386719,1237.056885 
	C874.695007,1233.653809 870.234924,1223.706909 871.478027,1211.733643 
	C872.671814,1200.234619 873.748657,1188.723389 874.852112,1177.469482 
	C864.923828,1171.678833 856.052429,1166.504639 846.579529,1160.979492 
	C837.117737,1166.691528 827.135620,1172.494751 817.383606,1178.661621 
	C805.316528,1186.292358 795.312683,1186.371460 784.716003,1176.648071 
	C769.545959,1162.727905 754.804688,1148.302490 740.482300,1133.510132 
	C730.858582,1123.570557 732.066772,1108.265015 742.228088,1096.309082 
	C743.947693,1094.285645 745.823547,1092.362061 747.301331,1090.172485 
	C751.184875,1084.418457 754.888855,1078.543213 758.636658,1072.759033 
	C752.852722,1062.339478 747.247009,1052.241089 741.651550,1042.161011 
	C725.957520,1045.822266 710.756592,1045.362183 695.549133,1043.790894 
	C688.770630,1043.090332 684.817688,1038.241089 682.501404,1032.634155 
	C677.052185,1019.443665 672.222473,1006.031555 670.431580,991.685059 
	C669.655151,985.465515 667.778503,979.382568 666.381836,973.242004 
	C666.086365,971.943176 665.507568,970.681335 665.392822,969.373108 
	C663.616821,949.131775 665.060364,945.554749 682.001221,937.942017 
	C691.995911,933.450745 701.948608,928.865967 712.122498,924.231018 
	C712.122498,912.836609 712.122498,901.957092 712.122498,890.907043 
	C701.509644,885.864441 691.080872,880.808777 680.566589,875.937561 
	C665.522888,868.967773 661.726196,862.795654 665.523193,846.845520 
	C670.501404,825.933777 674.173889,804.685364 682.269775,784.521179 
	C686.125366,774.918335 692.051636,769.336975 702.075073,769.326904 
	C712.321106,769.316589 722.571045,770.493652 732.813660,771.230225 
	C736.380737,771.486755 739.930847,771.979980 742.974915,772.309509 
	C748.959167,762.054932 754.468872,752.613464 759.814087,743.453857 
	C752.883118,732.729431 745.986633,722.160767 739.197693,711.523499 
	C733.018188,701.841309 734.609863,692.481140 741.810669,683.201111 
	C755.192871,665.954895 772.130188,652.418640 787.833313,637.614136 
	C796.593750,629.354980 807.028076,627.629883 816.867065,634.758484 
	C826.829102,641.976257 837.020996,648.876587 847.489502,656.179199 
	C857.128540,650.549438 866.828918,644.883850 877.426392,638.694275 
	C876.789856,632.086609 876.045532,624.923584 875.425171,617.749939 
	C874.882507,611.473938 874.213562,605.191528 874.080933,598.901794 
	C873.911987,590.883301 877.325317,584.282593 884.820801,581.287842 
	C894.961914,577.236206 905.370422,573.683838 915.915649,570.854065 
	C931.293640,566.727295 946.620178,562.381287 962.995728,563.406555 
	C971.367859,563.930664 976.928528,566.901123 980.315735,574.328125 
	C983.625000,581.584351 986.859680,588.875122 990.226318,596.104431 
	C992.039673,599.998230 994.060974,603.795166 995.972290,607.603577 
	C1007.495911,607.603577 1018.450073,607.603577 1030.678467,607.603577 
	C1033.282349,601.779602 1035.845703,595.352966 1038.981323,589.218872 
	C1042.439087,582.454712 1046.093262,575.740723 1050.289062,569.421326 
	C1053.197388,565.041077 1057.956909,563.739807 1063.367676,563.529968 
	C1085.143677,562.685852 1105.282349,569.688538 1125.568359,575.993408 
	C1130.312012,577.467773 1134.794678,579.769104 1139.428833,581.610901 
	C1147.881714,584.970520 1151.977539,591.138489 1151.351807,600.230469 
	C1150.646851,610.474121 1149.722412,620.702698 1149.023438,630.946716 
	C1148.799194,634.233643 1148.988281,637.548706 1148.988281,641.048096 
	C1158.616211,646.457031 1167.851929,651.645508 1178.018921,657.357239 
	C1183.453613,653.677429 1189.422363,649.510803 1195.521851,645.545105 
	C1200.534058,642.286255 1205.619629,639.121826 1210.817505,636.170654 
	C1221.081665,630.342957 1231.882446,633.396790 1238.089478,640.270996 
	C1240.091675,642.488586 1242.401733,644.428040 1245.141602,646.926880 
M994.335266,873.098206 
	C994.335144,954.763611 994.333862,1036.428955 994.339172,1118.094360 
	C994.339355,1121.093018 993.996826,1124.179932 994.619568,1127.050781 
	C994.902893,1128.356812 997.154297,1129.236084 1000.079102,1131.545410 
	C1000.079102,1125.831177 1000.079041,1122.544434 1000.079041,1119.257690 
	C1000.079712,1081.591064 999.987793,1043.923950 1000.113708,1006.257812 
	C1000.197693,981.131348 1016.999451,964.475586 1042.261108,964.211731 
	C1052.926514,964.100342 1063.601196,963.958191 1074.258179,964.276672 
	C1080.526245,964.463989 1085.057007,963.135437 1089.829346,958.096619 
	C1103.119629,944.064270 1125.055298,945.424377 1137.620972,960.013794 
	C1149.801025,974.155334 1147.700562,995.554504 1132.992676,1007.166138 
	C1118.314453,1018.754333 1097.181885,1015.858398 1086.033203,1000.667358 
	C1084.269409,998.263977 1082.812988,995.635193 1080.890503,992.598877 
	C1069.125000,992.598877 1057.164917,992.553345 1045.205322,992.611084 
	C1032.014160,992.674805 1028.461182,996.114075 1028.443604,1009.089233 
	C1028.392578,1046.755859 1028.411865,1084.422485 1028.456543,1122.089111 
	C1028.459473,1124.588501 1028.905884,1127.087524 1029.143066,1129.554688 
	C1133.062134,1122.999146 1234.726562,1037.829834 1234.749023,908.703674 
	C1234.770874,783.272217 1138.217407,695.760193 1029.828003,687.678894 
	C908.374573,678.623596 807.624146,765.350769 792.631165,879.769043 
	C785.063354,937.522461 798.413147,991.047424 832.830505,1038.595581 
	C857.775635,1073.057617 890.077515,1098.200317 930.774170,1114.827637 
	C930.774170,1110.036743 930.774170,1106.749634 930.774170,1103.462524 
	C930.774170,1011.462585 930.775208,919.462585 930.769165,827.462646 
	C930.768982,824.797424 930.815491,822.123474 930.626221,819.468872 
	C930.321899,815.200745 928.421570,811.955139 922.328369,809.469788 
	C921.010498,811.338196 919.684570,814.185669 917.531311,816.105286 
	C907.692871,824.876221 896.268921,826.797485 884.012451,822.384155 
	C870.673157,817.580872 861.980713,804.259583 862.639587,790.517273 
	C863.312683,776.478821 873.059326,763.969482 886.277161,760.179626 
	C900.035034,756.234863 914.675232,760.932373 922.323425,772.939575 
	C925.920532,778.586853 930.252686,781.724060 936.264832,784.343811 
	C948.261597,789.571289 955.804932,799.180908 958.238159,812.203735 
	C959.147461,817.070862 959.325134,822.130554 959.328308,827.102722 
	C959.388489,922.102722 959.372620,1017.102661 959.373962,1112.102661 
	C959.374023,1114.769287 959.463867,1117.438232 959.379333,1120.101929 
	C959.245667,1124.315308 961.827698,1125.003540 966.033936,1124.734375 
	C966.033936,1121.151001 966.033936,1117.533203 966.033997,1113.915405 
	C966.035461,1027.915405 965.978882,941.915405 966.075745,855.915588 
	C966.102844,831.832397 982.754333,814.881348 1006.647522,814.337524 
	C1026.281250,813.890686 1045.922852,813.452637 1065.557983,813.562561 
	C1072.623901,813.602051 1077.564697,811.970703 1082.639404,806.346802 
	C1095.307251,792.308105 1116.827637,792.974854 1129.772583,806.710754 
	C1142.556274,820.275574 1141.441528,841.750549 1127.315430,854.046936 
	C1113.194580,866.338806 1091.987915,864.413757 1080.155396,849.700562 
	C1078.123901,847.174500 1076.381104,844.416321 1075.199463,842.746765 
	C1061.115601,842.746765 1048.154663,842.746460 1035.193604,842.746887 
	C1027.526978,842.747131 1019.860229,842.726318 1012.193665,842.754089 
	C997.594604,842.806885 994.401917,845.924011 994.337524,860.139832 
	C994.320923,863.806458 994.335205,867.473145 994.335266,873.098206 
M1267.661377,1042.523071 
	C1270.220703,1038.809937 1271.515137,1033.652710 1277.470947,1033.782715 
	C1281.791748,1033.877075 1286.114746,1033.976562 1290.430054,1034.202148 
	C1300.344360,1034.720825 1310.249268,1035.482178 1320.169067,1035.806030 
	C1324.423950,1035.944946 1327.690552,1034.115845 1329.231689,1029.546875 
	C1331.030273,1024.214844 1334.055420,1019.236938 1335.391113,1013.820007 
	C1338.722412,1000.310181 1341.615479,986.681152 1344.279419,973.020996 
	C1347.298462,957.540649 1346.523315,956.325317 1333.306396,950.050293 
	C1324.307251,945.777893 1315.458252,941.161560 1306.309448,937.242065 
	C1300.468750,934.739807 1298.573120,930.831360 1298.791016,924.771851 
	C1299.126221,915.453674 1299.273804,906.092285 1298.751831,896.791260 
	C1298.334229,889.349365 1301.230103,885.029785 1307.955322,882.128845 
	C1318.002808,877.794739 1327.925781,873.116211 1337.637207,868.074646 
	C1347.158936,863.131592 1348.187744,860.305237 1345.958008,849.829163 
	C1344.162109,841.391174 1342.575684,832.894836 1340.392334,824.556396 
	C1337.701172,814.278687 1334.556885,804.116821 1331.476318,793.944824 
	C1329.275024,786.676086 1324.705933,782.738037 1316.644531,783.833008 
	C1314.354370,784.144043 1311.976440,783.743164 1309.654907,783.903137 
	C1300.058228,784.564331 1290.462402,785.252991 1280.876953,786.058594 
	C1275.642822,786.498535 1272.228638,784.727966 1269.751343,779.746094 
	C1265.314087,770.823059 1260.459839,762.072266 1255.221313,753.594727 
	C1251.544067,747.644104 1251.849976,742.751038 1255.942993,737.146790 
	C1262.405762,728.297791 1268.340332,719.058716 1274.376831,709.904602 
	C1277.471069,705.212402 1279.419922,699.697571 1275.623657,694.994141 
	C1269.022095,686.814819 1261.551147,679.337158 1253.988770,671.066650 
	C1229.042114,696.326172 1204.828247,720.843506 1180.327759,745.651245 
	C1224.332764,792.018372 1246.578979,846.687317 1246.337280,909.601868 
	C1246.094238,972.854004 1223.181396,1027.549438 1178.543335,1073.523438 
	C1204.071167,1097.966064 1229.191162,1122.018311 1254.604614,1146.351440 
	C1260.661011,1139.839355 1265.844238,1134.237671 1271.059204,1128.665894 
	C1277.786987,1121.477661 1277.871826,1117.673218 1272.046997,1109.454346 
	C1265.707031,1100.508301 1259.957886,1091.124634 1253.304565,1082.426270 
	C1249.073120,1076.894043 1249.765747,1072.349854 1253.150391,1066.986694 
	C1257.939087,1059.399048 1262.286743,1051.533203 1267.661377,1042.523071 
M880.616821,786.402405 
	C880.400269,789.019531 879.685242,791.711060 880.062988,794.239441 
	C881.097839,801.166687 885.501892,805.477295 892.112732,807.226929 
	C898.533447,808.926331 903.836182,806.473572 907.977295,801.558411 
	C912.316833,796.407959 912.788940,789.745239 909.492554,783.952271 
	C903.193970,772.883545 889.985291,773.364136 880.616821,786.402405 
M1117.314209,996.429199 
	C1119.300659,995.297058 1121.556519,994.466492 1123.223145,992.976685 
	C1128.372681,988.373535 1129.863892,980.888184 1127.153687,974.872314 
	C1124.247925,968.422485 1117.247437,964.699402 1110.040527,965.771118 
	C1103.440430,966.752625 1098.112793,972.071167 1096.917236,978.872253 
	C1095.060669,989.434265 1103.093506,997.064819 1117.314209,996.429199 
M1119.756226,821.591614 
	C1118.226196,819.876892 1116.932373,817.843689 1115.124512,816.503540 
	C1108.049316,811.258179 1098.354858,812.788940 1093.093506,819.768005 
	C1087.829102,826.751099 1089.210938,836.415039 1096.246460,841.819214 
	C1101.650391,845.970093 1109.153564,846.151062 1114.758789,842.265686 
	C1120.843628,838.047913 1122.573120,832.114075 1119.756226,821.591614 
z"/>
<path fill="#FBFBFB" opacity="1.000000" stroke="none" 
	d="
M1589.494629,1122.786133 
	C1580.474609,1106.090088 1571.690308,1090.092407 1563.381470,1073.851440 
	C1561.512695,1070.198608 1560.457031,1065.697632 1560.452637,1061.585693 
	C1560.305420,923.929749 1560.331421,786.273743 1560.332031,648.617676 
	C1560.332031,644.643005 1560.332031,640.668396 1560.332031,636.192383 
	C1562.294556,635.756409 1564.179688,634.859192 1565.978516,635.007812 
	C1615.559814,639.103821 1663.211670,650.303223 1707.690674,673.366394 
	C1727.266479,683.516785 1745.475098,695.615173 1762.357422,709.777039 
	C1766.129517,712.941223 1768.402710,716.151245 1767.782227,721.621826 
	C1767.357300,725.367798 1768.645020,729.514404 1769.932251,733.215759 
	C1780.155396,762.611877 1785.279541,792.497559 1779.295288,823.553955 
	C1777.456543,833.095947 1774.161987,842.033936 1769.169922,850.454346 
	C1760.156128,865.658142 1746.582031,872.542114 1729.395508,872.794983 
	C1710.210205,873.077209 1692.823120,866.407349 1676.031616,857.962158 
	C1669.804688,854.830383 1663.735229,851.339905 1657.803955,847.673462 
	C1636.436890,834.465271 1613.433350,854.021545 1612.252808,873.872009 
	C1611.543091,885.805176 1615.598877,896.254578 1625.086060,902.743652 
	C1657.220093,924.722961 1692.087524,940.170410 1731.944458,939.028137 
	C1773.060547,937.849731 1803.029175,917.283752 1823.323364,882.192139 
	C1836.436523,859.517517 1841.895996,834.520142 1843.160645,808.633606 
	C1844.453613,782.166138 1841.592407,756.093750 1833.626343,730.696106 
	C1833.365479,729.864258 1833.737549,728.833984 1833.891479,726.955505 
	C1836.687500,727.782776 1839.141479,728.326111 1841.459351,729.221985 
	C1880.223389,744.203369 1906.555908,771.902710 1923.315308,809.369080 
	C1924.130371,811.190979 1925.340576,812.938660 1925.698242,814.846313 
	C1928.470825,829.629333 1938.611572,838.062073 1949.974609,846.885925 
	C2005.132324,889.718506 2039.831665,945.880493 2055.324707,1013.906616 
	C2056.831543,1020.523254 2059.239014,1026.332275 2063.404053,1031.834961 
	C2070.409424,1041.089844 2076.449707,1051.069092 2083.176758,1060.544189 
	C2085.553711,1063.892090 2086.059082,1066.404053 2084.097168,1070.422974 
	C2055.881836,1128.221069 2010.792480,1165.732300 1948.903320,1182.774048 
	C1930.093872,1187.953613 1905.982056,1189.252563 1885.553101,1183.814941 
	C1887.453613,1174.017944 1889.973633,1164.163818 1891.135254,1154.151978 
	C1892.283203,1144.259277 1892.663696,1134.183350 1892.267700,1124.232056 
	C1891.858765,1113.953369 1890.586426,1103.644409 1888.810181,1093.503174 
	C1887.098877,1083.732666 1884.261108,1074.159302 1881.883789,1064.358032 
	C1882.483765,1063.632446 1882.961670,1062.666016 1883.739502,1062.170532 
	C1905.881592,1048.064819 1919.984375,1027.270630 1931.315063,1004.355469 
	C1936.622314,993.622375 1936.705322,982.284119 1930.908447,971.619629 
	C1919.826904,951.232788 1894.527832,949.442322 1880.496216,967.975403 
	C1877.513794,971.914673 1875.620117,976.660095 1872.849731,980.782043 
	C1868.418823,987.374451 1864.229736,994.260071 1858.926880,1000.103882 
	C1851.688599,1008.080566 1842.161377,1010.496826 1831.539185,1008.142090 
	C1819.995728,1005.583191 1809.391235,1000.627441 1800.108643,993.589111 
	C1782.560181,980.283264 1764.736572,987.728516 1756.216675,999.649963 
	C1745.777222,1014.257324 1748.119019,1034.688965 1762.911133,1046.140259 
	C1777.170410,1057.178833 1792.953979,1065.944824 1810.538940,1070.583008 
	C1817.259033,1072.355469 1820.804199,1075.701782 1822.179321,1082.405762 
	C1824.514160,1093.787842 1827.720825,1104.997803 1829.865234,1116.410767 
	C1833.753784,1137.105225 1829.013062,1156.668091 1821.251953,1175.792725 
	C1802.022217,1223.178467 1766.624634,1256.988403 1727.559570,1287.741821 
	C1726.833862,1288.313110 1725.738037,1288.414185 1724.219238,1288.941284 
	C1669.111450,1242.288086 1625.974609,1185.725708 1589.494629,1122.786133 
z"/>
<path fill="#F9F9F9" opacity="1.000000" stroke="none" 
	d="
M1348.581543,666.645203 
	C1369.758057,656.563721 1391.184937,649.129211 1413.412476,644.681519 
	C1433.613037,640.639343 1454.142456,638.219116 1474.550781,635.248291 
	C1480.488892,634.383911 1481.828613,635.559998 1482.049927,641.372986 
	C1482.265381,647.029785 1482.074463,652.701843 1482.072998,658.367188 
	C1482.038818,791.673401 1481.975708,924.979675 1482.060791,1058.285889 
	C1482.065186,1065.177368 1480.413086,1071.194214 1477.331299,1077.314697 
	C1443.332031,1144.838745 1402.049805,1207.242310 1348.498047,1261.016479 
	C1339.810425,1269.740112 1330.413574,1277.759888 1321.283081,1286.037109 
	C1320.075439,1287.131714 1318.500854,1287.821899 1316.674194,1288.963013 
	C1294.173828,1272.850708 1274.574219,1253.682373 1255.460449,1232.872803 
	C1264.543335,1225.429321 1273.072266,1218.697021 1281.321289,1211.637695 
	C1332.106445,1168.176514 1369.423706,1115.192505 1393.598877,1052.872681 
	C1408.779663,1013.739075 1417.623657,973.311707 1419.277344,931.344055 
	C1419.617920,922.703003 1419.720581,914.046753 1420.328613,905.425415 
	C1420.524780,902.643616 1421.362061,899.491455 1422.975220,897.293518 
	C1432.426147,884.416443 1432.998413,865.069275 1419.117554,851.773254 
	C1416.508545,849.274170 1415.007446,844.922485 1414.349854,841.187195 
	C1404.695679,786.349731 1384.406006,735.800537 1353.651245,689.431580 
	C1349.807495,683.636353 1345.607300,678.077454 1340.741699,671.242249 
	C1343.267822,669.693420 1345.583740,668.273376 1348.581543,666.645203 
z"/>
<path fill="#FDFDFD" opacity="1.000000" stroke="none" 
	d="
M1522.000366,2081.474609 
	C1580.329712,2081.472900 1637.659058,2081.561768 1694.987915,2081.406738 
	C1709.734985,2081.366943 1721.901245,2086.716553 1727.249390,2100.417725 
	C1736.745239,2124.744873 1725.964478,2151.678467 1696.739624,2151.644531 
	C1581.081543,2151.510254 1465.421997,2151.330566 1349.765869,2151.841553 
	C1330.527100,2151.926514 1315.302856,2136.445557 1315.072998,2117.625000 
	C1314.794189,2094.803467 1332.071167,2081.045898 1351.014893,2081.248535 
	C1407.671021,2081.855225 1464.337646,2081.471680 1522.000366,2081.474609 
z"/>
<path fill="#FDFDFD" opacity="1.000000" stroke="none" 
	d="
M1647.951294,2260.349121 
	C1559.694580,2260.350830 1472.428345,2260.237305 1385.162842,2260.467529 
	C1370.682007,2260.505859 1359.914185,2254.343750 1352.663086,2242.718262 
	C1340.311890,2222.915527 1352.815552,2195.789307 1376.094849,2191.643555 
	C1384.473267,2190.151367 1393.205200,2190.298096 1401.776367,2190.289062 
	C1486.710815,2190.199707 1571.645264,2190.261719 1656.579712,2190.208008 
	C1670.228394,2190.199219 1682.145264,2193.640625 1690.735840,2205.167480 
	C1698.817505,2216.010986 1700.655518,2227.538330 1694.574219,2239.755615 
	C1688.517090,2251.924561 1678.738159,2259.249023 1664.924927,2260.280029 
	C1659.625122,2260.675537 1654.271240,2260.347656 1647.951294,2260.349121 
z"/>
<path fill="#FCFCFC" opacity="1.000000" stroke="none" 
	d="
M1614.975342,2330.827148 
	C1608.637329,2341.442383 1602.510376,2351.308350 1596.724976,2361.370850 
	C1590.820435,2371.641113 1582.135620,2375.981445 1570.370361,2375.889404 
	C1538.423706,2375.639404 1506.472290,2375.625732 1474.526001,2375.897705 
	C1462.977539,2375.996094 1454.755981,2371.010986 1448.976685,2361.561035 
	C1442.742920,2351.368408 1436.694824,2341.054443 1430.841309,2330.638672 
	C1420.045898,2311.428467 1430.255615,2293.961670 1452.222290,2293.938721 
	C1490.826782,2293.898193 1529.431396,2293.929199 1568.035889,2293.929199 
	C1576.355835,2293.928955 1584.676025,2293.959961 1592.995728,2293.914062 
	C1614.958740,2293.792969 1625.433228,2310.772461 1614.975342,2330.827148 
z"/>
<path fill="#FAFAFA" opacity="1.000000" stroke="none" 
	d="
M1082.385742,2585.664551 
	C1068.182983,2582.430664 1055.807495,2576.872559 1044.681152,2568.838623 
	C1041.339478,2566.426025 1038.515137,2566.139160 1034.619629,2566.779785 
	C1019.818359,2569.213135 1004.922058,2569.625732 990.145020,2566.515869 
	C960.895508,2560.360107 952.112305,2541.768799 950.404236,2517.935303 
	C950.052979,2513.034424 950.551392,2508.004639 951.218689,2503.110596 
	C954.681274,2477.713867 970.648193,2463.995605 994.437317,2458.537354 
	C1010.100403,2454.943604 1026.096680,2455.092773 1041.772949,2458.783447 
	C1068.267456,2465.021240 1080.197388,2481.347900 1081.628296,2508.672119 
	C1082.471313,2524.773438 1077.842896,2539.357178 1066.376465,2552.955078 
	C1073.307617,2555.846436 1079.218384,2558.499512 1085.266724,2560.788574 
	C1092.984497,2563.709717 1097.311890,2576.402100 1091.982666,2582.763428 
	C1090.296753,2584.775879 1086.198730,2584.767578 1082.385742,2585.664551 
M993.865356,2539.351318 
	C1004.699341,2547.382812 1016.711670,2547.304688 1028.814209,2543.643066 
	C1036.368652,2541.357422 1041.922485,2536.261963 1044.685547,2528.416748 
	C1048.573853,2517.376221 1048.768311,2506.276123 1044.375732,2495.571533 
	C1042.615112,2491.280762 1039.168213,2487.014404 1035.358032,2484.360352 
	C1024.965210,2477.121338 1005.962097,2477.889160 995.844666,2485.378906 
	C993.245728,2487.302979 990.746338,2489.797852 989.160034,2492.577393 
	C982.290649,2504.614014 982.511536,2529.202393 993.865356,2539.351318 
z"/>
<path fill="#FAFAFA" opacity="1.000000" stroke="none" 
	d="
M1512.606567,2458.121582 
	C1513.835205,2457.946289 1514.161255,2457.845459 1514.490601,2457.832764 
	C1532.895630,2457.118896 1533.689453,2457.869141 1533.689453,2475.956787 
	C1533.689575,2501.596191 1533.723145,2527.235840 1533.673218,2552.875244 
	C1533.652710,2563.380615 1529.967163,2567.160400 1519.483643,2567.671387 
	C1517.158203,2567.784912 1514.814575,2567.561768 1512.493286,2567.711670 
	C1501.532104,2568.418701 1493.554565,2564.116699 1487.491333,2554.753174 
	C1476.654785,2538.017578 1465.177979,2521.696289 1453.936157,2505.224121 
	C1452.725220,2503.449707 1451.299927,2501.821533 1448.454590,2498.181396 
	C1448.454590,2521.968506 1448.454590,2543.381104 1448.454590,2564.492188 
	C1440.820068,2569.010498 1433.385254,2567.901611 1426.249756,2567.411621 
	C1420.555176,2567.020752 1418.369385,2564.042969 1418.351196,2558.042236 
	C1418.262939,2529.073242 1418.225220,2500.103027 1418.362183,2471.134521 
	C1418.405151,2462.034912 1422.005737,2458.690918 1431.068115,2458.314697 
	C1431.733032,2458.286865 1432.399902,2458.308838 1433.065918,2458.310303 
	C1460.761841,2458.373535 1457.536255,2455.809814 1474.071045,2479.917480 
	C1482.155640,2491.705078 1490.104004,2503.585693 1498.145142,2515.403320 
	C1499.384033,2517.223877 1500.790161,2518.930908 1503.642944,2522.708252 
	C1503.642944,2509.526855 1503.643066,2498.733643 1503.643066,2487.940186 
	C1503.643066,2481.280518 1503.577759,2474.620361 1503.660522,2467.961670 
	C1503.751953,2460.604980 1503.811035,2460.605713 1512.606567,2458.121582 
z"/>
<path fill="#F9F9F9" opacity="1.000000" stroke="none" 
	d="
M2340.307617,2508.000000 
	C2340.307617,2494.693848 2340.225098,2482.387207 2340.334961,2470.082031 
	C2340.417969,2460.772461 2342.801270,2458.402588 2352.167480,2458.334229 
	C2366.135742,2458.232178 2380.116455,2457.982422 2394.069336,2458.456787 
	C2400.265137,2458.667236 2406.526855,2460.042969 2412.550293,2461.664551 
	C2437.688232,2468.431152 2439.603027,2494.964844 2423.593018,2507.176270 
	C2425.819824,2508.694092 2427.927490,2510.070068 2429.972412,2511.533691 
	C2445.553467,2522.686279 2445.924561,2543.469727 2430.946289,2555.708740 
	C2423.722412,2561.611572 2415.211182,2564.852295 2406.352539,2565.521484 
	C2388.190430,2566.893555 2369.936035,2567.403076 2351.715820,2567.490479 
	C2342.998047,2567.532227 2340.355957,2563.856689 2340.323242,2554.898438 
	C2340.267090,2539.599121 2340.307617,2524.299561 2340.307617,2508.000000 
M2396.894287,2523.251709 
	C2388.881592,2521.304932 2380.857666,2520.968262 2373.068848,2522.365967 
	C2373.068848,2530.509766 2373.068848,2537.911621 2373.068848,2546.302979 
	C2381.742432,2545.551025 2389.601807,2545.082031 2397.399170,2544.115967 
	C2402.263428,2543.513184 2406.290771,2540.999756 2407.462402,2535.868896 
	C2408.682129,2530.527832 2405.377686,2527.163818 2401.341553,2524.457031 
	C2400.556641,2523.930420 2399.466064,2523.859375 2396.894287,2523.251709 
M2388.113525,2480.076172 
	C2382.968506,2480.076172 2377.823486,2480.076172 2372.879883,2480.076172 
	C2372.879883,2487.393066 2372.879883,2493.577148 2372.879883,2500.208984 
	C2379.074707,2500.208984 2384.747070,2500.662354 2390.315674,2500.096191 
	C2397.592529,2499.356445 2401.538086,2494.214355 2400.291748,2487.850830 
	C2399.192871,2482.239258 2394.600342,2481.091064 2388.113525,2480.076172 
z"/>
<path fill="#FBFBFB" opacity="1.000000" stroke="none" 
	d="
M689.898926,2565.686035 
	C688.602051,2562.438477 687.723083,2559.563965 687.712769,2556.686035 
	C687.609741,2528.063477 687.620361,2499.440186 687.665466,2470.817139 
	C687.682861,2459.826416 689.211487,2458.372803 700.546997,2458.329834 
	C714.192688,2458.277832 727.839355,2458.240967 741.484436,2458.344482 
	C750.872375,2458.415527 759.938843,2460.290527 768.413818,2464.397217 
	C787.710999,2473.747803 790.208984,2498.975830 773.149170,2512.014160 
	C770.783020,2513.822266 768.128845,2515.253662 766.502075,2516.289795 
	C773.179199,2527.405273 779.858765,2538.381592 786.367126,2549.458008 
	C788.035461,2552.297363 789.436279,2555.363525 790.475769,2558.486816 
	C792.019958,2563.126465 790.354126,2566.755859 785.695251,2567.132324 
	C778.119995,2567.745117 770.371094,2567.915527 762.875061,2566.919922 
	C760.074890,2566.548340 757.111694,2562.781494 755.382568,2559.873047 
	C750.977905,2552.465088 747.206909,2544.678711 743.220032,2537.024414 
	C738.535522,2528.030029 731.676941,2523.552246 720.349609,2526.562012 
	C720.349609,2536.222656 720.414307,2546.143799 720.330688,2556.063477 
	C720.253174,2565.257080 718.585144,2567.337891 709.429321,2567.543213 
	C703.207153,2567.682617 696.957458,2566.595703 689.898926,2565.686035 
M727.230103,2480.289307 
	C725.062012,2480.570312 722.893860,2480.851318 720.928772,2481.106201 
	C720.928772,2488.879150 720.928772,2495.978516 720.928772,2504.557373 
	C728.773438,2503.431152 735.949707,2502.989990 742.778687,2501.213379 
	C747.339478,2500.026855 750.753540,2496.427246 750.320557,2490.886230 
	C749.903137,2485.544678 746.870605,2482.451904 741.644287,2481.683594 
	C737.453674,2481.067627 733.220276,2480.742188 727.230103,2480.289307 
z"/>
<path fill="#FAFAFA" opacity="1.000000" stroke="none" 
	d="
M2227.455566,2545.331787 
	C2231.246826,2545.565186 2234.277832,2545.929443 2237.227539,2545.588379 
	C2252.326172,2543.843018 2257.776367,2537.402588 2258.241211,2524.127930 
	C2258.567139,2514.821777 2258.299072,2505.495361 2258.313477,2496.177979 
	C2258.330078,2485.197754 2258.357666,2474.217285 2258.410889,2463.237061 
	C2258.413818,2462.596924 2258.690918,2461.958008 2259.042725,2460.454346 
	C2267.679443,2455.872803 2277.203613,2457.309814 2286.534180,2459.049561 
	C2288.129639,2459.346924 2290.158936,2463.038330 2290.180176,2465.179688 
	C2290.404541,2487.802490 2290.928467,2510.457764 2289.947754,2533.042236 
	C2289.436035,2544.828613 2282.491455,2554.151855 2272.042969,2560.169922 
	C2262.678955,2565.563721 2252.575684,2568.719238 2241.667969,2568.304443 
	C2231.091064,2567.902344 2220.283691,2568.332031 2210.010986,2566.253418 
	C2189.010986,2562.004150 2176.345947,2549.492676 2176.314941,2523.798340 
	C2176.293213,2505.829102 2176.264893,2487.859375 2176.329102,2469.890381 
	C2176.364014,2460.153809 2178.060791,2458.292725 2187.771973,2457.734131 
	C2192.067871,2457.486816 2196.438232,2457.596680 2200.711182,2458.093018 
	C2208.558350,2459.005371 2209.626221,2460.267090 2209.662598,2468.235352 
	C2209.744873,2486.204346 2209.645996,2504.174316 2209.702393,2522.143311 
	C2209.747559,2536.573486 2212.690674,2540.489258 2227.455566,2545.331787 
z"/>
<path fill="#FAFAFA" opacity="1.000000" stroke="none" 
	d="
M1159.688599,2486.056152 
	C1159.688599,2498.032227 1160.359253,2509.069092 1159.547119,2519.996094 
	C1157.919678,2541.892822 1172.578613,2547.090332 1188.451294,2545.421143 
	C1199.751953,2544.232910 1207.765991,2540.313721 1208.196411,2523.821289 
	C1208.673828,2505.521729 1208.308960,2487.200439 1208.310791,2468.888428 
	C1208.311035,2466.261719 1208.310913,2463.635010 1208.310913,2460.709717 
	C1217.637817,2456.153076 1226.817017,2457.188721 1235.931030,2458.883301 
	C1239.234131,2459.497803 1240.420898,2462.209229 1240.401489,2465.681641 
	C1240.278931,2487.654785 1240.689575,2509.638672 1240.119141,2531.598389 
	C1239.804565,2543.710693 1232.889648,2552.682373 1223.095825,2559.453125 
	C1222.277100,2560.019043 1221.348633,2560.427734 1220.535278,2561.000488 
	C1205.909546,2571.298096 1160.251587,2570.697021 1145.237549,2561.093018 
	C1132.390015,2552.874756 1126.740967,2541.384766 1126.421021,2526.995850 
	C1125.984619,2507.361816 1126.224854,2487.710205 1126.356079,2468.067139 
	C1126.407104,2460.442871 1127.922485,2458.777100 1135.633423,2458.059814 
	C1140.568115,2457.600830 1145.620361,2457.601318 1150.551147,2458.090088 
	C1158.420044,2458.870605 1159.537720,2460.313721 1159.669312,2468.087158 
	C1159.765259,2473.745850 1159.688354,2479.406982 1159.688599,2486.056152 
z"/>
<path fill="#F8F8F8" opacity="1.000000" stroke="none" 
	d="
M1290.300781,2504.000488 
	C1290.300781,2491.684326 1290.223389,2480.367188 1290.326904,2469.052002 
	C1290.400635,2460.981445 1292.813232,2458.409180 1301.009766,2458.351562 
	C1322.309814,2458.202148 1343.612061,2458.229980 1364.912598,2458.343994 
	C1371.473389,2458.379150 1373.117798,2460.106445 1373.668213,2466.448486 
	C1373.811523,2468.100342 1373.773560,2469.779297 1373.683594,2471.438232 
	C1373.299561,2478.507812 1371.747437,2480.212158 1364.665405,2480.317871 
	C1353.684448,2480.481689 1342.699219,2480.359863 1331.715820,2480.359619 
	C1329.087891,2480.359375 1326.459961,2480.359619 1323.106201,2480.359619 
	C1323.106201,2486.661377 1323.106201,2492.446045 1323.106201,2499.638184 
	C1328.387085,2499.638184 1333.911743,2499.638428 1339.436279,2499.638428 
	C1344.428711,2499.638184 1349.421509,2499.598389 1354.413452,2499.646240 
	C1365.282471,2499.750488 1370.793091,2509.128662 1365.067993,2518.515137 
	C1363.913452,2520.408203 1360.122925,2521.483398 1357.507935,2521.558838 
	C1346.223877,2521.884521 1334.925049,2521.698242 1323.002686,2521.698242 
	C1323.002686,2529.012207 1323.002686,2535.837158 1323.002686,2543.534180 
	C1325.122437,2543.762939 1327.615112,2544.245850 1330.111084,2544.264404 
	C1341.426758,2544.349121 1352.745239,2544.173096 1364.058838,2544.348389 
	C1371.858765,2544.469238 1374.238892,2547.281982 1374.365723,2555.654785 
	C1374.492554,2564.032959 1372.102417,2567.498291 1364.647217,2567.592529 
	C1343.682617,2567.857422 1322.707275,2567.938232 1301.746704,2567.540771 
	C1292.994385,2567.375000 1290.346680,2563.862793 1290.316772,2554.924805 
	C1290.260986,2538.283447 1290.300781,2521.641846 1290.300781,2504.000488 
z"/>
<path fill="#FAFAFA" opacity="1.000000" stroke="none" 
	d="
M895.733765,2544.311279 
	C898.686584,2544.311279 900.684204,2544.292480 902.681458,2544.314209 
	C914.127319,2544.439209 916.880920,2547.504639 915.683105,2558.769531 
	C915.035339,2564.860840 912.478699,2567.564941 905.956848,2567.621582 
	C885.317749,2567.800293 864.673401,2567.885010 844.036743,2567.600586 
	C834.365417,2567.467529 831.705933,2564.459961 831.675354,2554.838623 
	C831.585266,2526.541260 831.578247,2498.243164 831.682129,2469.946045 
	C831.714233,2461.189941 834.300171,2458.438232 842.855347,2458.367432 
	C863.827454,2458.194580 884.802368,2458.233398 905.775269,2458.351807 
	C913.441956,2458.395020 915.848145,2461.400635 915.688599,2469.812500 
	C915.542480,2477.521240 913.151428,2480.228027 905.857910,2480.317139 
	C895.206238,2480.447510 884.551697,2480.318115 873.898743,2480.371094 
	C870.995850,2480.385742 868.094299,2480.658203 864.794678,2480.833496 
	C864.794678,2486.987793 864.794678,2492.552246 864.794678,2499.522705 
	C869.539856,2499.563721 874.384766,2499.626953 879.229797,2499.642822 
	C885.888000,2499.664795 892.551086,2499.492676 899.203186,2499.696533 
	C905.992249,2499.904297 908.446838,2503.081543 908.351990,2510.893555 
	C908.255188,2518.865234 906.041199,2521.510010 898.791260,2521.650879 
	C890.471558,2521.812500 882.146057,2521.652588 873.823608,2521.709473 
	C870.924133,2521.729492 868.026245,2521.979736 864.764038,2522.142822 
	C864.764038,2529.578369 864.764038,2536.406738 864.764038,2544.311279 
	C875.010864,2544.311279 884.894653,2544.311279 895.733765,2544.311279 
z"/>
<path fill="#FAFAFA" opacity="1.000000" stroke="none" 
	d="
M1666.848389,2539.341797 
	C1676.750854,2535.194580 1679.835693,2536.957520 1680.350708,2546.298340 
	C1680.940796,2556.995605 1678.716797,2560.694580 1668.353149,2563.965576 
	C1647.831177,2570.442139 1627.072021,2571.194092 1606.916992,2563.123291 
	C1589.953979,2556.330811 1579.483398,2543.501465 1577.758423,2524.839111 
	C1577.067993,2517.372314 1576.866699,2509.668945 1577.888062,2502.273193 
	C1580.326660,2484.614502 1589.757812,2471.370850 1606.041016,2463.842529 
	C1626.895996,2454.199707 1648.314331,2453.638184 1669.788086,2461.893066 
	C1678.739868,2465.334229 1683.491211,2476.874268 1679.073242,2484.902588 
	C1677.974243,2486.899902 1674.404541,2488.357910 1671.877441,2488.509033 
	C1669.534912,2488.649170 1667.013428,2486.822510 1664.665771,2485.668213 
	C1656.460449,2481.634766 1647.888916,2479.619385 1638.692627,2480.333984 
	C1626.674316,2481.267578 1616.828613,2488.247559 1614.012451,2499.961426 
	C1612.273438,2507.194336 1611.616333,2515.192871 1612.735718,2522.501221 
	C1615.006836,2537.327637 1629.781250,2547.310303 1645.123901,2545.066895 
	C1652.242676,2544.025879 1659.149658,2541.537354 1666.848389,2539.341797 
z"/>
<path fill="#FBFBFB" opacity="1.000000" stroke="none" 
	d="
M2006.845215,2458.727539 
	C2009.853638,2459.640869 2012.125244,2460.156982 2014.285034,2460.970459 
	C2025.489258,2465.189209 2029.226196,2472.493164 2025.991821,2483.668457 
	C2024.673340,2488.224121 2021.584717,2489.951660 2017.032227,2488.389404 
	C2014.536499,2487.532959 2012.255493,2486.052734 2009.762329,2485.185791 
	C2004.782227,2483.454834 1999.817749,2481.095947 1994.676880,2480.524902 
	C1981.768188,2479.090576 1969.647705,2481.500488 1962.903809,2494.021729 
	C1955.807495,2507.197998 1955.974731,2521.078857 1964.033325,2533.809814 
	C1970.379150,2543.834473 1981.266968,2545.888672 1992.057373,2544.829590 
	C1999.464111,2544.102783 2006.811401,2541.363770 2013.853149,2538.659668 
	C2023.834351,2534.826660 2026.234131,2536.199951 2026.352539,2547.210693 
	C2026.473999,2558.506836 2025.877075,2560.377686 2015.915894,2563.679932 
	C1994.828613,2570.669922 1973.434204,2571.154785 1952.597168,2562.885010 
	C1938.548462,2557.309082 1928.893311,2546.846680 1925.613403,2531.777832 
	C1920.699341,2509.199219 1922.683472,2488.102051 1941.112793,2471.421143 
	C1949.487183,2463.841553 1959.669189,2460.128662 1970.567383,2457.914551 
	C1982.461548,2455.498291 1994.262329,2456.021484 2006.845215,2458.727539 
z"/>
<path fill="#F6F6F6" opacity="1.000000" stroke="none" 
	d="
M606.143738,2525.709229 
	C602.933228,2525.709229 600.705872,2525.709229 597.708923,2525.709229 
	C597.708923,2536.529053 597.767700,2546.442871 597.691650,2556.355469 
	C597.621948,2565.445312 595.843567,2567.278564 586.617981,2567.672363 
	C582.295898,2567.856934 577.933655,2567.976318 573.633911,2567.608154 
	C566.634338,2567.009033 564.344482,2564.518311 564.324951,2557.459717 
	C564.244568,2528.478027 564.222839,2499.495361 564.331299,2470.513916 
	C564.365540,2461.373779 567.224976,2458.408936 576.141968,2458.340088 
	C596.128418,2458.185547 616.117126,2458.225586 636.104126,2458.334473 
	C641.764343,2458.365234 643.651001,2460.281006 644.313904,2465.935059 
	C644.545227,2467.907715 644.447815,2469.931641 644.360901,2471.926270 
	C644.048096,2479.104980 641.919067,2481.511963 634.731934,2481.644531 
	C622.789612,2481.864990 610.840210,2481.704346 598.304810,2481.704346 
	C598.304810,2488.622314 598.304810,2495.038330 598.304810,2502.293213 
	C609.132141,2502.293213 619.712463,2502.121582 630.284485,2502.344482 
	C639.701172,2502.542725 642.715698,2506.051514 642.221375,2515.405518 
	C641.793945,2523.495361 639.552063,2525.624268 631.111755,2525.694580 
	C623.117310,2525.760986 615.121826,2525.708984 606.143738,2525.709229 
z"/>
<path fill="#F9F9F9" opacity="1.000000" stroke="none" 
	d="
M1807.496704,2483.513672 
	C1798.998901,2496.672852 1790.724243,2509.113770 1782.866211,2521.812744 
	C1781.071045,2524.713867 1779.958496,2528.477783 1779.834961,2531.891846 
	C1779.451294,2542.492920 1779.694458,2553.116943 1779.694458,2564.206055 
	C1770.439575,2569.376953 1761.022827,2568.317139 1751.594482,2566.389648 
	C1747.125366,2565.475830 1746.336426,2561.833740 1746.320679,2557.961914 
	C1746.286621,2549.645996 1746.062744,2541.320068 1746.397949,2533.017822 
	C1746.609009,2527.787109 1745.157104,2523.480957 1742.304199,2519.147217 
	C1731.902710,2503.346924 1721.779053,2487.363770 1711.570312,2471.437012 
	C1710.501343,2469.769287 1709.216553,2468.127197 1708.633423,2466.283447 
	C1707.289429,2462.034424 1708.958130,2458.632568 1713.385986,2458.349854 
	C1721.303711,2457.844482 1729.335449,2457.801758 1737.206299,2458.634766 
	C1739.797485,2458.908936 1742.731567,2462.059570 1744.319214,2464.629639 
	C1750.864014,2475.225830 1756.951782,2486.104492 1763.727417,2497.774658 
	C1769.943481,2487.149414 1776.280273,2477.484863 1781.381348,2467.207275 
	C1785.064697,2459.786377 1790.315918,2457.123291 1798.052979,2457.617676 
	C1802.690430,2457.914062 1807.384155,2457.601318 1811.984375,2458.142090 
	C1818.252319,2458.879150 1820.176392,2462.106689 1817.341919,2467.690186 
	C1814.650024,2472.992432 1811.063843,2477.840820 1807.496704,2483.513672 
z"/>
<path fill="#F8F8F8" opacity="1.000000" stroke="none" 
	d="
M2099.702148,2527.868896 
	C2099.702148,2533.436523 2099.702148,2538.024658 2099.702148,2543.638184 
	C2111.343994,2543.638184 2122.217041,2543.574707 2133.088867,2543.656250 
	C2143.750000,2543.736328 2146.102051,2546.213379 2145.697998,2556.568359 
	C2145.363770,2565.131592 2142.928955,2567.615723 2134.094238,2567.668213 
	C2116.473633,2567.772949 2098.849854,2567.844482 2081.230713,2567.646484 
	C2069.712891,2567.516846 2066.367188,2564.089844 2066.330078,2552.746826 
	C2066.239502,2525.151367 2066.238770,2497.554932 2066.333740,2469.959473 
	C2066.367432,2460.114258 2068.119385,2458.278809 2077.768066,2457.724365 
	C2082.060059,2457.477539 2086.415283,2457.642090 2090.697021,2458.069824 
	C2098.533203,2458.852051 2099.634277,2460.064209 2099.671631,2468.041016 
	C2099.763184,2487.656738 2099.701904,2507.273438 2099.702148,2527.868896 
z"/>
<path fill="#020204" opacity="1.000000" stroke="none" 
	d="
M994.335266,872.119019 
	C994.335205,867.473145 994.320923,863.806458 994.337524,860.139832 
	C994.401917,845.924011 997.594604,842.806885 1012.193665,842.754089 
	C1019.860229,842.726318 1027.526978,842.747131 1035.193604,842.746887 
	C1048.154663,842.746460 1061.115601,842.746765 1075.199463,842.746765 
	C1076.381104,844.416321 1078.123901,847.174500 1080.155396,849.700562 
	C1091.987915,864.413757 1113.194580,866.338806 1127.315430,854.046936 
	C1141.441528,841.750549 1142.556274,820.275574 1129.772583,806.710754 
	C1116.827637,792.974854 1095.307251,792.308105 1082.639404,806.346802 
	C1077.564697,811.970703 1072.623901,813.602051 1065.557983,813.562561 
	C1045.922852,813.452637 1026.281250,813.890686 1006.647522,814.337524 
	C982.754333,814.881348 966.102844,831.832397 966.075745,855.915588 
	C965.978882,941.915405 966.035461,1027.915405 966.033997,1113.915405 
	C966.033936,1117.533203 966.033936,1121.151001 966.033936,1124.734375 
	C961.827698,1125.003540 959.245667,1124.315308 959.379333,1120.101929 
	C959.463867,1117.438232 959.374023,1114.769287 959.373962,1112.102661 
	C959.372620,1017.102661 959.388489,922.102722 959.328308,827.102722 
	C959.325134,822.130554 959.147461,817.070862 958.238159,812.203735 
	C955.804932,799.180908 948.261597,789.571289 936.264832,784.343811 
	C930.252686,781.724060 925.920532,778.586853 922.323425,772.939575 
	C914.675232,760.932373 900.035034,756.234863 886.277161,760.179626 
	C873.059326,763.969482 863.312683,776.478821 862.639587,790.517273 
	C861.980713,804.259583 870.673157,817.580872 884.012451,822.384155 
	C896.268921,826.797485 907.692871,824.876221 917.531311,816.105286 
	C919.684570,814.185669 921.010498,811.338196 922.328369,809.469788 
	C928.421570,811.955139 930.321899,815.200745 930.626221,819.468872 
	C930.815491,822.123474 930.768982,824.797424 930.769165,827.462646 
	C930.775208,919.462585 930.774170,1011.462585 930.774170,1103.462524 
	C930.774170,1106.749634 930.774170,1110.036743 930.774170,1114.827637 
	C890.077515,1098.200317 857.775635,1073.057617 832.830505,1038.595581 
	C798.413147,991.047424 785.063354,937.522461 792.631165,879.769043 
	C807.624146,765.350769 908.374573,678.623596 1029.828003,687.678894 
	C1138.217407,695.760193 1234.770874,783.272217 1234.749023,908.703674 
	C1234.726562,1037.829834 1133.062134,1122.999146 1029.143066,1129.554688 
	C1028.905884,1127.087524 1028.459473,1124.588501 1028.456543,1122.089111 
	C1028.411865,1084.422485 1028.392578,1046.755859 1028.443604,1009.089233 
	C1028.461182,996.114075 1032.014160,992.674805 1045.205322,992.611084 
	C1057.164917,992.553345 1069.125000,992.598877 1080.890503,992.598877 
	C1082.812988,995.635193 1084.269409,998.263977 1086.033203,1000.667358 
	C1097.181885,1015.858398 1118.314453,1018.754333 1132.992676,1007.166138 
	C1147.700562,995.554504 1149.801025,974.155334 1137.620972,960.013794 
	C1125.055298,945.424377 1103.119629,944.064270 1089.829346,958.096619 
	C1085.057007,963.135437 1080.526245,964.463989 1074.258179,964.276672 
	C1063.601196,963.958191 1052.926514,964.100342 1042.261108,964.211731 
	C1016.999451,964.475586 1000.197693,981.131348 1000.113708,1006.257812 
	C999.987793,1043.923950 1000.079712,1081.591064 1000.079041,1119.257690 
	C1000.079041,1122.544434 1000.079102,1125.831177 1000.079102,1131.545410 
	C997.154297,1129.236084 994.902893,1128.356812 994.619568,1127.050781 
	C993.996826,1124.179932 994.339355,1121.093018 994.339172,1118.094360 
	C994.333862,1036.428955 994.335144,954.763611 994.335266,872.119019 
z"/>
<path fill="#030303" opacity="1.000000" stroke="none" 
	d="
M1267.242188,1043.154785 
	C1262.286743,1051.533203 1257.939087,1059.399048 1253.150391,1066.986694 
	C1249.765747,1072.349854 1249.073120,1076.894043 1253.304565,1082.426270 
	C1259.957886,1091.124634 1265.707031,1100.508301 1272.046997,1109.454346 
	C1277.871826,1117.673218 1277.786987,1121.477661 1271.059204,1128.665894 
	C1265.844238,1134.237671 1260.661011,1139.839355 1254.604614,1146.351440 
	C1229.191162,1122.018311 1204.071167,1097.966064 1178.543335,1073.523438 
	C1223.181396,1027.549438 1246.094238,972.854004 1246.337280,909.601868 
	C1246.578979,846.687317 1224.332764,792.018372 1180.327759,745.651245 
	C1204.828247,720.843506 1229.042114,696.326172 1253.988770,671.066650 
	C1261.551147,679.337158 1269.022095,686.814819 1275.623657,694.994141 
	C1279.419922,699.697571 1277.471069,705.212402 1274.376831,709.904602 
	C1268.340332,719.058716 1262.405762,728.297791 1255.942993,737.146790 
	C1251.849976,742.751038 1251.544067,747.644104 1255.221313,753.594727 
	C1260.459839,762.072266 1265.314087,770.823059 1269.751343,779.746094 
	C1272.228638,784.727966 1275.642822,786.498535 1280.876953,786.058594 
	C1290.462402,785.252991 1300.058228,784.564331 1309.654907,783.903137 
	C1311.976440,783.743164 1314.354370,784.144043 1316.644531,783.833008 
	C1324.705933,782.738037 1329.275024,786.676086 1331.476318,793.944824 
	C1334.556885,804.116821 1337.701172,814.278687 1340.392334,824.556396 
	C1342.575684,832.894836 1344.162109,841.391174 1345.958008,849.829163 
	C1348.187744,860.305237 1347.158936,863.131592 1337.637207,868.074646 
	C1327.925781,873.116211 1318.002808,877.794739 1307.955322,882.128845 
	C1301.230103,885.029785 1298.334229,889.349365 1298.751831,896.791260 
	C1299.273804,906.092285 1299.126221,915.453674 1298.791016,924.771851 
	C1298.573120,930.831360 1300.468750,934.739807 1306.309448,937.242065 
	C1315.458252,941.161560 1324.307251,945.777893 1333.306396,950.050293 
	C1346.523315,956.325317 1347.298462,957.540649 1344.279419,973.020996 
	C1341.615479,986.681152 1338.722412,1000.310181 1335.391113,1013.820007 
	C1334.055420,1019.236938 1331.030273,1024.214844 1329.231689,1029.546875 
	C1327.690552,1034.115845 1324.423950,1035.944946 1320.169067,1035.806030 
	C1310.249268,1035.482178 1300.344360,1034.720825 1290.430054,1034.202148 
	C1286.114746,1033.976562 1281.791748,1033.877075 1277.470947,1033.782715 
	C1271.515137,1033.652710 1270.220703,1038.809937 1267.242188,1043.154785 
z"/>
<path fill="#0C0C0C" opacity="1.000000" stroke="none" 
	d="
M880.961914,785.690063 
	C889.985291,773.364136 903.193970,772.883545 909.492554,783.952271 
	C912.788940,789.745239 912.316833,796.407959 907.977295,801.558411 
	C903.836182,806.473572 898.533447,808.926331 892.112732,807.226929 
	C885.501892,805.477295 881.097839,801.166687 880.062988,794.239441 
	C879.685242,791.711060 880.400269,789.019531 880.961914,785.690063 
z"/>
<path fill="#0C0C0C" opacity="1.000000" stroke="none" 
	d="
M1116.586914,996.647339 
	C1103.093506,997.064819 1095.060669,989.434265 1096.917236,978.872253 
	C1098.112793,972.071167 1103.440430,966.752625 1110.040527,965.771118 
	C1117.247437,964.699402 1124.247925,968.422485 1127.153687,974.872314 
	C1129.863892,980.888184 1128.372681,988.373535 1123.223145,992.976685 
	C1121.556519,994.466492 1119.300659,995.297058 1116.586914,996.647339 
z"/>
<path fill="#0C0C0C" opacity="1.000000" stroke="none" 
	d="
M1120.060791,822.310364 
	C1122.573120,832.114075 1120.843628,838.047913 1114.758789,842.265686 
	C1109.153564,846.151062 1101.650391,845.970093 1096.246460,841.819214 
	C1089.210938,836.415039 1087.829102,826.751099 1093.093506,819.768005 
	C1098.354858,812.788940 1108.049316,811.258179 1115.124512,816.503540 
	C1116.932373,817.843689 1118.226196,819.876892 1120.060791,822.310364 
z"/>
<path fill="#040406" opacity="1.000000" stroke="none" 
	d="
M993.331116,2538.806885 
	C982.511536,2529.202393 982.290649,2504.614014 989.160034,2492.577393 
	C990.746338,2489.797852 993.245728,2487.302979 995.844666,2485.378906 
	C1005.962097,2477.889160 1024.965210,2477.121338 1035.358032,2484.360352 
	C1039.168213,2487.014404 1042.615112,2491.280762 1044.375732,2495.571533 
	C1048.768311,2506.276123 1048.573853,2517.376221 1044.685547,2528.416748 
	C1041.922485,2536.261963 1036.368652,2541.357422 1028.814209,2543.643066 
	C1016.711670,2547.304688 1004.699341,2547.382812 993.331116,2538.806885 
z"/>
<path fill="#0C0C0C" opacity="1.000000" stroke="none" 
	d="
M2397.705322,2523.415039 
	C2399.466064,2523.859375 2400.556641,2523.930420 2401.341553,2524.457031 
	C2405.377686,2527.163818 2408.682129,2530.527832 2407.462402,2535.868896 
	C2406.290771,2540.999756 2402.263428,2543.513184 2397.399170,2544.115967 
	C2389.601807,2545.082031 2381.742432,2545.551025 2373.068848,2546.302979 
	C2373.068848,2537.911621 2373.068848,2530.509766 2373.068848,2522.365967 
	C2380.857666,2520.968262 2388.881592,2521.304932 2397.705322,2523.415039 
z"/>
<path fill="#0C0C0C" opacity="1.000000" stroke="none" 
	d="
M2388.994141,2480.183594 
	C2394.600342,2481.091064 2399.192871,2482.239258 2400.291748,2487.850830 
	C2401.538086,2494.214355 2397.592529,2499.356445 2390.315674,2500.096191 
	C2384.747070,2500.662354 2379.074707,2500.208984 2372.879883,2500.208984 
	C2372.879883,2493.577148 2372.879883,2487.393066 2372.879883,2480.076172 
	C2377.823486,2480.076172 2382.968506,2480.076172 2388.994141,2480.183594 
z"/>
<path fill="#0C0C0C" opacity="1.000000" stroke="none" 
	d="
M728.117981,2480.288574 
	C733.220276,2480.742188 737.453674,2481.067627 741.644287,2481.683594 
	C746.870605,2482.451904 749.903137,2485.544678 750.320557,2490.886230 
	C750.753540,2496.427246 747.339478,2500.026855 742.778687,2501.213379 
	C735.949707,2502.989990 728.773438,2503.431152 720.928772,2504.557373 
	C720.928772,2495.978516 720.928772,2488.879150 720.928772,2481.106201 
	C722.893860,2480.851318 725.062012,2480.570312 728.117981,2480.288574 
z"/>
</svg>