<?xml version="1.0" standalone="no"?>
<!DOCTYPE svg PUBLIC "-//W3C//DTD SVG 20010904//EN"
 "http://www.w3.org/TR/2001/REC-SVG-20010904/DTD/svg10.dtd">
<svg version="1.0" xmlns="http://www.w3.org/2000/svg"
 width="3000.000000pt" height="3000.000000pt" viewBox="0 0 3000.000000 3000.000000"
 preserveAspectRatio="xMidYMid meet">
<metadata>
Created by potrace 1.16, written by Peter Selinger 2001-2019
</metadata>
<g transform="translate(0.000000,3000.000000) scale(0.100000,-0.100000)"
fill="#000000" stroke="none">
<path d="M9370 24393 c-14 -3 -29 -8 -35 -13 -5 -4 -46 -15 -90 -24 -44 -9
-103 -24 -131 -32 -28 -7 -60 -14 -70 -14 -11 0 -24 -4 -30 -10 -5 -5 -38 -17
-74 -26 -125 -32 -221 -100 -234 -166 -9 -46 -7 -211 3 -265 5 -26 12 -83 15
-125 l6 -78 -63 -31 c-34 -17 -75 -41 -92 -53 -44 -32 -122 -76 -135 -76 -10
0 -50 27 -188 129 -25 18 -78 53 -118 77 -89 55 -150 60 -228 18 -63 -34 -373
-320 -474 -438 -114 -134 -121 -148 -122 -234 0 -70 2 -75 48 -145 26 -39 50
-74 53 -77 4 -3 16 -25 29 -50 12 -25 44 -73 71 -107 l48 -61 -39 -54 c-21
-29 -58 -93 -81 -141 l-43 -89 -46 6 c-125 16 -339 27 -397 21 -58 -6 -71 -12
-108 -46 -32 -30 -47 -55 -64 -106 -13 -38 -28 -81 -36 -98 -14 -32 -37 -104
-54 -172 -24 -96 -30 -121 -41 -178 -25 -127 -31 -150 -40 -153 -6 -2 -10 -46
-10 -101 0 -93 1 -98 31 -134 31 -38 188 -123 374 -203 l82 -35 -1 -155 -1
-155 -45 -25 c-25 -13 -115 -56 -200 -94 -147 -67 -220 -116 -220 -147 0 -7
-4 -13 -10 -13 -6 0 -10 -42 -10 -105 0 -59 4 -105 9 -105 6 0 12 -21 16 -47
3 -27 11 -66 17 -88 6 -22 15 -60 18 -85 13 -79 68 -274 89 -315 12 -21 21
-46 21 -53 0 -33 59 -109 102 -134 31 -17 453 -18 484 -1 20 12 24 7 70 -83
54 -104 59 -112 92 -167 l24 -37 -59 -92 c-32 -50 -72 -106 -90 -125 -58 -62
-85 -121 -91 -200 -7 -114 -1 -131 89 -230 203 -224 408 -416 487 -457 21 -11
57 -16 109 -16 73 0 82 3 132 35 29 19 56 35 60 35 7 0 98 56 193 120 l56 38
61 -39 c34 -22 63 -39 66 -39 2 0 36 -19 75 -41 l72 -42 -6 -111 c-6 -137 -15
-208 -27 -220 -12 -13 -11 -63 1 -71 6 -3 10 -22 10 -41 0 -20 5 -45 11 -57
27 -51 96 -107 134 -107 8 0 34 -8 58 -19 57 -25 162 -60 217 -71 25 -6 61
-16 80 -24 46 -18 197 -46 248 -46 23 0 44 -4 47 -10 10 -16 152 -12 172 4 10
8 32 26 48 39 17 14 37 40 46 59 43 88 88 188 109 238 12 30 28 70 36 88 l14
32 162 0 163 0 43 -88 c23 -48 42 -94 42 -102 0 -18 77 -177 102 -209 38 -49
93 -71 178 -71 44 0 82 5 85 10 3 6 32 10 63 10 31 0 84 7 117 15 33 8 77 14
97 15 20 0 39 4 42 9 4 5 57 26 119 46 61 20 131 45 154 55 24 11 50 20 58 20
27 0 114 90 125 129 12 45 13 180 1 252 -5 30 -11 91 -14 136 l-4 82 51 22
c51 21 90 44 188 107 27 17 52 32 54 32 2 0 32 -24 66 -53 104 -87 241 -180
278 -188 54 -13 137 -10 174 5 55 23 178 129 324 279 292 298 282 284 282 396
0 75 -1 79 -45 142 -25 35 -63 91 -85 124 -22 33 -43 65 -48 70 -26 32 -62 92
-62 103 0 7 13 33 30 57 16 24 35 54 40 67 13 27 47 89 75 136 18 29 24 32 50
26 17 -3 122 -8 235 -11 199 -4 206 -3 250 19 40 21 50 33 91 117 28 56 55
131 68 190 13 53 27 110 33 126 6 17 14 53 18 80 5 28 14 66 19 85 6 19 11 50
11 67 0 18 5 33 10 33 6 0 10 43 10 109 l0 108 -40 46 c-44 50 -99 86 -181
117 -30 11 -100 44 -156 73 l-103 52 0 151 c0 151 0 152 23 158 13 3 39 16 59
30 19 13 66 35 104 50 38 14 111 48 162 74 126 64 132 75 132 238 0 76 -4 124
-10 124 -5 0 -10 12 -10 27 0 27 -17 105 -49 228 -10 39 -25 97 -32 130 -6 33
-29 97 -51 143 -21 46 -38 87 -38 91 0 5 -18 25 -39 44 -28 25 -53 38 -85 42
-49 8 -352 0 -423 -11 -29 -4 -43 -2 -43 5 0 7 -19 44 -41 84 -23 40 -56 97
-74 128 l-32 55 48 72 c26 39 61 89 78 111 17 21 31 42 31 45 0 4 17 32 38 63
37 56 37 57 37 163 l0 106 -110 119 c-169 185 -377 384 -448 430 -21 13 -49
18 -105 19 -68 1 -85 -3 -142 -32 -36 -17 -121 -71 -189 -118 -68 -47 -127
-81 -130 -76 -7 11 -108 67 -204 114 l-68 33 5 110 c3 60 8 174 12 252 l5 141
-38 43 c-40 44 -83 67 -199 104 -40 13 -80 28 -90 33 -28 14 -127 42 -152 42
-29 0 -141 29 -179 46 -22 10 -69 14 -159 14 l-127 0 -54 -41 c-54 -42 -64
-58 -148 -244 -12 -27 -34 -76 -48 -107 l-27 -58 -163 0 -164 0 -38 83 c-21
45 -58 124 -82 175 -24 51 -43 97 -43 101 0 10 -61 67 -87 80 -21 11 -259 14
-313 4z m3145 -1091 c6 -4 57 -58 114 -120 140 -153 142 -177 31 -332 -126
-177 -170 -249 -170 -283 0 -29 18 -65 111 -222 26 -44 55 -98 66 -120 10 -22
29 -45 43 -52 34 -17 117 -16 187 2 58 15 263 20 313 6 49 -12 126 -221 160
-428 4 -28 11 -56 14 -62 4 -5 15 -52 26 -102 20 -95 25 -176 12 -195 -9 -14
-125 -74 -237 -123 -128 -56 -208 -103 -222 -131 -15 -30 -18 -395 -4 -432 5
-13 33 -35 67 -53 32 -16 79 -42 104 -56 25 -14 73 -36 105 -48 84 -31 153
-71 176 -99 28 -36 26 -63 -16 -237 -10 -38 -21 -90 -26 -115 -14 -79 -38
-184 -53 -230 -24 -77 -77 -180 -98 -191 -19 -10 -229 -7 -415 7 -50 3 -89 1
-101 -5 -11 -6 -48 -61 -83 -123 -34 -62 -82 -142 -106 -178 -50 -75 -58 -133
-23 -165 11 -10 20 -22 20 -27 0 -11 117 -186 145 -218 46 -51 75 -103 75
-136 0 -27 -16 -50 -106 -148 -59 -64 -110 -116 -115 -116 -5 0 -178 163 -384
362 l-375 361 63 66 c92 97 164 190 257 336 264 411 388 916 351 1415 -14 178
-24 242 -62 393 -81 319 -189 545 -415 862 -19 28 -67 85 -106 128 l-71 78
364 368 c200 203 366 369 369 369 3 1 10 -2 15 -6z m-2234 -168 c90 -8 207
-24 259 -34 107 -20 324 -89 415 -130 33 -16 80 -37 105 -48 109 -50 245 -135
363 -226 43 -34 94 -73 112 -87 38 -30 218 -211 252 -255 13 -16 37 -47 54
-69 106 -134 251 -387 299 -520 12 -33 26 -69 31 -80 20 -43 41 -114 60 -200
10 -49 23 -99 28 -110 14 -30 30 -153 41 -302 12 -176 -11 -505 -40 -568 -5
-11 -19 -62 -30 -114 -11 -51 -29 -117 -39 -145 -53 -146 -67 -180 -118 -286
-45 -90 -145 -255 -205 -335 -116 -155 -253 -295 -417 -428 -114 -92 -427
-274 -521 -302 -14 -4 -63 -22 -110 -40 -116 -45 -355 -101 -483 -114 l-78 -7
3 648 3 648 28 27 27 28 229 3 228 3 13 -33 c19 -47 87 -115 145 -146 38 -19
70 -26 132 -30 112 -6 177 15 250 81 75 69 104 130 110 234 5 75 3 87 -24 145
-40 85 -79 128 -155 169 -59 32 -69 34 -154 34 -80 0 -97 -3 -147 -28 -58 -30
-88 -53 -123 -99 l-21 -27 -274 -3 -274 -3 -59 -30 c-86 -44 -155 -111 -196
-191 l-35 -69 -3 -682 c-2 -674 -3 -683 -22 -683 -20 0 -20 9 -18 1399 l3
1399 24 26 c13 14 38 28 55 30 17 3 182 7 367 10 l336 5 33 -50 c68 -105 169
-154 304 -147 126 7 214 61 283 177 26 42 28 54 28 151 0 103 -1 107 -35 164
-39 65 -77 102 -146 142 -55 32 -165 44 -240 25 -57 -14 -149 -78 -184 -126
l-25 -34 -225 -1 c-124 -1 -306 -5 -405 -9 -175 -8 -182 -9 -243 -40 -86 -43
-150 -105 -192 -187 l-35 -69 -3 -1406 -2 -1405 -30 4 -30 4 -2 1577 -3 1576
-27 55 c-15 30 -51 78 -80 106 -53 52 -157 114 -190 114 -11 0 -24 15 -33 38
-21 50 -89 118 -150 150 -45 24 -60 27 -155 27 -91 0 -111 -3 -150 -24 -91
-47 -148 -121 -176 -226 -19 -68 -17 -102 6 -177 24 -78 68 -136 137 -183 64
-43 124 -58 210 -53 84 5 150 35 215 99 l47 47 28 -30 28 -29 3 -1485 c1 -816
0 -1484 -2 -1484 -3 0 -47 20 -100 44 -461 214 -844 591 -1063 1046 -94 195
-147 364 -190 598 -24 130 -27 172 -27 362 0 200 2 227 32 380 17 91 40 194
51 230 26 88 89 260 105 285 7 11 18 35 24 54 12 33 129 241 142 251 3 3 17
23 30 45 75 123 322 387 465 496 123 93 344 229 415 254 20 7 56 23 79 34 46
24 247 92 338 115 83 20 189 37 333 51 171 17 193 17 381 -1z m-1271 -898 c20
-13 44 -40 53 -59 77 -161 -132 -305 -254 -177 -64 67 -62 154 5 219 58 56
127 63 196 17z m2091 -369 c48 -32 79 -83 79 -129 0 -80 -44 -138 -123 -159
-105 -28 -216 83 -188 189 29 106 146 157 232 99z m52 -1511 c68 -28 107 -104
93 -181 -9 -46 -62 -100 -114 -115 -112 -34 -227 78 -194 189 30 99 123 146
215 107z"/>
<path d="M14730 23710 c-14 -4 -99 -9 -190 -10 -91 -1 -154 -5 -140 -9 24 -7
23 -8 -15 -19 -22 -7 -83 -12 -135 -12 -58 0 -90 -4 -81 -9 25 -16 -25 -32
-92 -31 -81 2 -85 1 -67 -10 23 -14 -37 -33 -93 -27 -26 2 -50 0 -53 -4 -3 -5
0 -9 7 -9 8 0 9 -3 4 -9 -6 -6 -34 -11 -62 -12 -29 -1 -58 -6 -65 -11 -10 -6
-10 -8 0 -8 7 0 10 -4 7 -10 -3 -5 -25 -10 -48 -10 -44 0 -71 -11 -65 -26 1
-5 -10 -10 -27 -12 -53 -5 -75 -12 -72 -24 1 -7 -9 -14 -23 -16 -51 -6 -70
-13 -67 -25 1 -7 -11 -13 -28 -15 -51 -4 -76 -12 -70 -22 3 -5 -4 -14 -15 -20
-15 -8 -20 -21 -20 -48 0 -32 3 -38 22 -39 13 -1 24 -7 26 -13 2 -6 19 -25 37
-42 21 -18 32 -37 30 -49 -2 -11 6 -26 21 -38 13 -10 24 -24 24 -30 0 -7 7
-14 15 -17 8 -4 15 -17 15 -30 0 -13 11 -34 25 -46 14 -12 25 -29 25 -39 0 -9
7 -19 15 -23 8 -3 15 -16 15 -30 0 -15 7 -25 20 -29 15 -4 20 -14 20 -40 0
-26 5 -36 20 -40 12 -3 20 -14 20 -25 0 -31 11 -52 26 -52 9 0 14 -11 14 -27
0 -32 13 -56 26 -51 5 1 10 -12 12 -31 2 -23 9 -35 23 -38 13 -4 19 -14 19
-35 0 -16 9 -41 20 -55 11 -14 20 -38 20 -54 0 -16 9 -37 21 -48 18 -17 21
-28 16 -63 -3 -23 -2 -36 2 -30 14 24 36 -18 34 -65 -1 -25 1 -42 4 -39 4 3
12 1 20 -5 8 -7 13 -35 14 -78 0 -36 3 -60 6 -53 4 10 8 10 19 1 9 -7 14 -32
14 -71 0 -33 4 -57 9 -54 15 10 31 -53 31 -123 0 -41 4 -61 9 -52 14 22 24 -5
26 -68 4 -151 5 -161 17 -159 7 2 17 -7 23 -20 5 -13 20 -25 33 -29 13 -3 21
-11 18 -18 -2 -7 4 -15 15 -18 11 -3 19 -14 19 -25 0 -11 7 -22 15 -26 12 -4
15 -29 15 -132 0 -104 -2 -125 -14 -121 -10 4 -16 -5 -20 -28 -4 -21 -13 -35
-26 -38 -19 -5 -20 -14 -20 -209 0 -114 -5 -210 -10 -218 -8 -12 -10 -12 -11
5 -1 16 -2 15 -9 -6 -4 -14 -8 -92 -9 -174 -2 -149 -6 -179 -22 -154 -6 9 -9
-4 -10 -36 -4 -105 -8 -158 -14 -174 -6 -14 -8 -14 -15 4 -6 13 -9 -9 -9 -61
-1 -57 -5 -85 -15 -93 -11 -9 -15 -9 -19 1 -3 7 -6 -22 -6 -64 -1 -68 -3 -77
-21 -83 -18 -6 -21 -14 -19 -55 3 -50 -14 -85 -34 -73 -7 4 -8 -9 -4 -39 5
-36 3 -47 -13 -61 -14 -11 -20 -29 -20 -56 0 -27 -6 -43 -16 -49 -9 -5 -20
-27 -23 -48 -4 -25 -12 -39 -21 -39 -10 0 -16 -13 -18 -39 -2 -22 -12 -51 -23
-64 -10 -14 -19 -35 -19 -48 0 -14 -9 -32 -20 -41 -11 -10 -20 -27 -20 -39 0
-11 -9 -29 -20 -39 -11 -10 -20 -28 -20 -40 0 -14 -7 -25 -18 -28 -12 -2 -22
-17 -26 -38 -5 -24 -9 -30 -15 -21 -7 11 -10 10 -15 -3 -3 -9 -6 -26 -6 -37 0
-11 -8 -22 -20 -25 -15 -4 -20 -14 -20 -39 0 -18 -6 -37 -13 -41 -8 -4 -16
-16 -20 -25 -3 -10 -13 -18 -22 -18 -10 0 -15 -10 -15 -30 0 -20 -10 -39 -31
-60 -18 -16 -36 -30 -40 -30 -5 0 -9 -13 -9 -28 0 -22 -15 -45 -60 -92 -33
-35 -60 -71 -60 -82 0 -10 -4 -18 -9 -18 -5 0 -13 -9 -16 -20 -3 -11 -13 -20
-22 -20 -8 0 -17 -9 -20 -20 -3 -11 -14 -20 -24 -20 -11 0 -18 -3 -18 -7 4
-23 -3 -33 -21 -33 -11 0 -19 -3 -19 -7 3 -21 -2 -33 -16 -33 -8 0 -15 -6 -15
-14 0 -8 -13 -28 -30 -44 -16 -17 -30 -35 -30 -41 0 -6 -7 -11 -15 -11 -9 0
-18 -7 -22 -16 -9 -23 -48 -64 -62 -64 -6 0 -11 -7 -11 -15 0 -9 -8 -18 -17
-22 -22 -8 -26 -11 -136 -119 -50 -48 -94 -83 -101 -81 -8 3 -13 -1 -12 -11 1
-11 -9 -19 -29 -22 -18 -3 -30 -11 -30 -20 0 -8 -11 -17 -25 -20 -14 -3 -25
-12 -25 -20 0 -9 -11 -16 -27 -18 -27 -3 -28 -5 -28 -68 0 -62 1 -64 25 -64
15 0 28 -7 32 -17 4 -10 13 -22 20 -26 7 -5 11 -12 8 -17 -3 -5 4 -12 16 -15
12 -4 18 -12 15 -21 -4 -9 4 -18 20 -24 14 -6 22 -14 19 -20 -3 -6 6 -15 20
-20 14 -5 24 -14 21 -19 -3 -5 6 -12 20 -15 17 -5 24 -12 20 -21 -4 -10 1 -15
15 -15 11 0 24 -10 29 -22 5 -13 9 -19 9 -15 1 4 10 3 22 -3 12 -7 18 -18 15
-26 -3 -9 -1 -12 5 -9 10 6 44 -22 135 -112 23 -24 52 -43 63 -43 12 0 21 -6
21 -15 0 -9 11 -20 25 -25 14 -5 25 -16 25 -25 0 -11 10 -15 35 -15 28 0 35 4
35 20 0 11 7 20 15 20 8 0 19 9 25 20 6 11 16 20 23 20 7 0 20 8 29 18 9 9 38
35 64 57 26 22 58 51 70 63 14 14 28 21 35 16 7 -4 9 -3 5 4 -8 14 22 44 36
36 7 -4 8 -2 4 4 -4 7 42 60 108 127 64 63 112 115 108 115 -4 0 0 6 8 13 18
15 38 45 46 70 4 9 13 17 21 17 8 0 17 9 20 20 3 11 12 20 20 20 8 0 17 9 20
20 3 11 12 20 19 20 8 0 19 11 24 25 5 14 14 25 19 25 5 0 14 14 20 30 5 17
15 30 20 30 6 0 13 11 17 25 3 14 13 25 21 25 8 0 17 9 20 20 3 11 11 20 19
20 7 0 16 11 20 25 3 14 15 30 25 36 10 5 18 13 18 17 -3 19 2 32 14 32 7 0
17 10 22 23 6 12 16 21 22 20 7 -2 15 13 19 32 3 20 12 35 20 35 8 0 14 9 14
19 0 11 8 22 19 26 10 3 23 20 28 38 5 18 15 31 23 29 8 -2 11 4 7 18 -3 14 1
24 15 31 11 6 24 24 30 40 7 21 15 28 25 24 12 -4 14 0 9 19 -4 18 0 28 19 40
15 10 25 26 25 40 0 29 25 54 34 34 3 -7 3 -3 0 9 -3 15 1 25 15 32 12 7 21
24 23 44 2 20 8 32 18 32 8 0 16 10 18 23 4 26 50 99 59 94 10 -6 23 22 23 51
0 21 4 27 18 25 13 -2 18 6 22 37 3 27 10 40 20 40 10 0 16 12 18 36 2 27 9
38 23 42 13 4 19 14 19 36 0 20 7 34 20 41 11 6 20 21 20 33 0 12 9 30 20 40
11 9 20 27 20 40 0 12 9 30 20 40 14 12 20 29 19 59 0 24 2 626 5 1338 3 712
7 1666 8 2120 l3 825 5 -885 5 -885 2 925 3 925 -36 18 c-38 19 -38 19 -74 7z"/>
<path d="M15546 23708 c-15 -8 -16 -220 -16 -2219 0 -2202 0 -2211 20 -2216
15 -4 20 -14 20 -38 0 -24 5 -34 20 -38 14 -3 20 -14 20 -31 0 -14 9 -34 20
-43 11 -10 20 -28 20 -40 0 -12 9 -27 20 -33 11 -6 20 -19 20 -30 0 -11 9 -24
20 -30 11 -6 20 -19 20 -30 0 -29 11 -50 26 -50 9 0 14 -11 14 -30 0 -19 7
-33 21 -40 15 -9 19 -18 15 -35 -4 -14 0 -27 9 -35 8 -7 15 -9 15 -4 0 5 5 1
11 -9 5 -9 8 -21 4 -26 -3 -5 4 -12 15 -16 11 -3 20 -15 20 -25 0 -11 10 -26
23 -35 18 -11 23 -22 19 -44 -3 -23 1 -30 17 -36 18 -5 26 -21 23 -46 -1 -4 6
-6 16 -5 16 1 18 -3 21 -45 0 -12 10 -23 21 -26 13 -3 20 -14 20 -29 0 -13 5
-23 11 -21 7 1 16 -12 21 -30 4 -18 17 -34 28 -38 11 -4 20 -15 20 -26 0 -10
7 -19 15 -19 10 0 15 -10 15 -34 0 -28 4 -35 25 -40 14 -4 25 -13 25 -21 0 -8
7 -15 15 -15 10 0 15 -10 15 -27 0 -32 13 -56 26 -51 5 1 10 -7 12 -20 2 -15
8 -22 18 -18 8 3 19 -4 25 -17 7 -12 18 -26 25 -30 8 -4 14 -17 14 -28 0 -11
7 -22 16 -26 8 -3 20 -16 25 -29 4 -13 15 -24 23 -24 7 0 16 -9 19 -20 3 -11
12 -20 20 -20 8 0 18 -11 21 -25 4 -14 11 -25 16 -25 6 0 10 -6 10 -14 0 -7
11 -24 24 -38 12 -14 26 -33 29 -42 4 -9 13 -16 21 -16 7 0 16 -9 19 -20 3
-11 12 -20 21 -20 9 0 16 -7 16 -16 0 -9 9 -18 20 -21 11 -3 20 -12 20 -19 0
-8 7 -17 15 -20 8 -4 15 -11 15 -18 0 -6 9 -17 20 -24 12 -7 18 -17 15 -22 -4
-6 6 -15 20 -20 15 -6 23 -15 20 -21 -4 -6 2 -13 13 -16 11 -2 22 -13 25 -24
3 -10 13 -19 22 -19 10 0 15 -5 12 -14 -3 -8 5 -18 20 -25 14 -7 23 -14 20
-18 -4 -3 14 -19 39 -36 25 -16 58 -42 74 -58 16 -16 33 -29 38 -29 5 0 12 -9
15 -20 3 -11 12 -20 21 -20 9 0 16 -7 16 -15 0 -9 12 -20 26 -25 14 -6 22 -15
19 -21 -4 -6 2 -13 13 -16 11 -2 22 -13 25 -24 4 -14 14 -19 41 -19 31 0 45
10 115 80 44 44 85 80 90 80 6 0 15 9 21 20 6 11 16 20 22 20 6 0 30 16 54 35
23 19 47 35 52 35 5 0 12 9 15 20 3 11 12 20 20 20 9 0 19 9 22 20 3 11 12 20
20 20 8 0 17 9 20 20 3 11 15 20 26 20 10 0 18 3 18 8 -4 22 3 32 22 32 11 0
18 4 15 8 -3 5 6 19 19 30 14 12 25 26 25 32 0 5 7 10 15 10 8 0 15 6 15 14 0
8 11 24 25 37 13 13 25 32 25 42 0 9 6 17 14 17 7 0 16 9 19 20 3 11 12 20 21
20 9 0 16 6 16 13 0 7 11 23 25 35 14 12 25 31 25 42 0 11 7 20 15 20 8 0 15
9 15 20 0 11 8 24 18 27 24 9 32 23 32 57 0 20 4 27 14 23 11 -5 17 5 22 39 5
33 10 44 20 40 10 -4 14 5 14 34 0 30 5 40 20 45 14 5 20 15 20 37 0 22 6 31
21 35 17 5 20 12 17 39 -2 19 -1 34 3 34 20 0 39 35 39 72 0 25 7 49 18 61 12
14 17 37 18 86 0 36 5 91 10 122 7 36 7 86 0 145 -5 49 -9 134 -9 189 0 57 -3
89 -7 75 -7 -25 -7 -25 -22 9 -9 20 -14 50 -11 72 4 28 1 41 -16 58 -16 16
-21 33 -21 71 0 44 -3 50 -24 56 -13 3 -26 14 -29 25 -4 16 -14 19 -66 19 -50
0 -62 3 -71 20 -8 15 -21 20 -50 20 -29 0 -42 5 -50 20 -7 13 -21 20 -40 20
-19 0 -33 7 -40 20 -7 13 -21 20 -40 20 -20 0 -30 5 -30 15 0 9 -13 18 -31 22
-19 3 -34 14 -36 25 -3 11 -14 18 -29 18 -14 0 -24 6 -24 14 0 8 -14 19 -31
25 -17 6 -28 15 -24 21 3 5 -6 15 -20 20 -14 5 -24 14 -21 18 3 5 -6 20 -18
34 -22 23 -24 34 -25 147 -1 116 0 123 24 148 13 15 22 30 19 35 -3 4 6 12 20
18 15 5 25 15 24 21 -2 6 12 16 29 23 18 6 32 16 30 21 -1 6 41 11 107 13 94
2 108 1 103 -13 -5 -11 1 -15 22 -15 27 0 57 -21 46 -32 -3 -3 8 -8 26 -12 22
-4 30 -10 25 -21 -4 -11 2 -15 28 -15 36 0 67 -24 44 -33 -7 -3 6 -6 29 -6 28
-1 46 -7 55 -18 8 -11 30 -19 57 -21 25 -2 57 -10 72 -18 41 -21 112 -18 154
7 20 12 46 19 59 17 17 -3 23 -1 19 8 -2 7 5 17 16 24 12 6 21 7 21 3 0 -4 6
3 13 16 6 13 16 23 21 22 5 -1 14 8 20 20 6 12 15 20 20 18 5 -2 12 6 17 19 5
12 15 22 23 22 9 0 18 14 22 35 3 20 12 35 20 35 8 0 14 8 14 18 1 25 26 57
33 40 3 -7 6 3 6 23 1 22 8 43 21 54 11 10 20 27 20 37 0 11 9 22 19 25 11 3
21 13 24 24 3 11 14 19 26 19 11 0 25 9 31 20 10 18 21 20 110 20 89 0 100 -2
110 -20 6 -11 19 -20 30 -20 11 0 24 -9 30 -20 6 -11 17 -20 25 -20 10 0 15
-11 15 -36 0 -19 4 -33 9 -30 13 9 32 -19 25 -38 -8 -21 4 -69 15 -61 12 7 22
-36 14 -64 -4 -15 -8 -19 -13 -11 -5 8 -11 -4 -15 -28 -4 -23 -4 -46 0 -51 3
-6 -3 -16 -15 -23 -13 -9 -20 -23 -20 -45 0 -23 -6 -33 -20 -38 -15 -5 -20
-15 -20 -41 0 -23 -5 -34 -15 -34 -8 0 -18 -14 -23 -32 -6 -22 -14 -33 -26
-31 -12 1 -15 -4 -12 -14 6 -14 -3 -27 -61 -90 -13 -13 -23 -30 -23 -37 0 -8
-7 -17 -16 -20 -8 -3 -12 -10 -9 -16 3 -5 -6 -15 -20 -20 -14 -5 -23 -15 -20
-20 4 -6 -7 -15 -24 -21 -17 -6 -29 -16 -28 -22 1 -6 -8 -13 -21 -15 -12 -2
-27 -12 -32 -22 -5 -10 -19 -22 -30 -25 -11 -3 -20 -12 -20 -20 0 -7 -10 -15
-22 -17 -21 -3 -23 -9 -26 -75 -2 -60 0 -74 16 -90 14 -13 21 -36 24 -81 3
-39 10 -67 18 -72 10 -6 16 -44 21 -129 4 -72 12 -127 19 -136 19 -23 17 -209
-3 -268 -11 -30 -17 -79 -17 -131 0 -68 -4 -88 -20 -109 -16 -21 -20 -40 -20
-111 0 -75 2 -86 18 -87 9 -1 42 -2 73 -4 31 -1 71 -6 90 -11 l34 -8 -35 -7
c-21 -4 21 -7 100 -8 74 -2 142 -4 151 -6 9 -1 23 1 30 6 10 6 7 9 -11 9 -22
1 -23 2 -8 11 15 8 92 15 215 18 16 1 21 6 17 16 -5 12 5 15 52 16 52 0 124
16 85 18 -35 2 8 20 54 23 36 2 50 7 50 18 0 9 11 16 25 18 50 5 70 13 67 25
-1 7 11 13 30 15 20 2 37 11 43 22 6 11 23 20 43 22 20 2 32 8 32 18 0 10 12
16 34 18 23 2 35 9 38 23 3 10 14 19 24 19 10 0 23 8 28 19 6 10 24 21 41 24
18 4 30 13 30 22 0 9 9 15 21 15 12 0 23 8 26 20 3 11 11 20 19 20 7 0 18 9
24 20 6 11 19 20 29 20 10 0 26 9 36 20 10 12 25 18 32 15 8 -2 11 0 8 5 -7
11 93 110 111 110 7 0 14 9 17 20 3 11 11 20 19 20 7 0 18 10 23 23 6 12 17
20 25 19 8 -2 12 0 8 4 -4 4 6 24 22 44 16 20 27 40 24 43 -3 3 3 12 15 19 12
7 21 18 21 24 0 7 7 15 15 18 9 3 21 19 26 36 12 32 24 38 33 18 3 -7 5 2 3
19 -3 25 2 36 19 48 12 8 24 27 26 42 2 22 8 28 26 26 12 -2 22 2 22 8 0 5 -4
7 -10 4 -13 -8 -13 11 1 36 6 11 17 18 24 15 11 -4 14 5 12 34 -1 27 4 44 16
52 12 9 18 32 21 79 4 61 3 66 -14 62 -15 -4 -20 2 -26 32 -4 25 -13 39 -26
43 -14 3 -18 11 -14 27 4 17 2 22 -11 21 -11 -1 -20 10 -26 31 -5 18 -18 35
-29 39 -11 3 -17 12 -14 19 2 7 -4 15 -16 18 -13 4 -19 11 -15 21 4 9 -6 28
-23 47 -17 17 -27 35 -24 40 3 5 2 9 -3 8 -22 -4 -34 3 -32 19 4 45 -2 82 -13
79 -9 -1 -14 12 -16 38 -5 83 -13 125 -25 122 -8 -1 -14 19 -17 56 -4 41 -10
61 -23 68 -12 7 -17 23 -17 52 0 44 -11 71 -26 65 -5 -1 -10 4 -11 12 -12 91
-16 113 -20 102 -9 -23 -23 -1 -23 35 0 26 -5 36 -20 40 -15 4 -20 14 -20 40
0 26 -5 36 -20 40 -15 4 -20 14 -20 40 0 26 -5 36 -20 40 -15 4 -20 14 -20 40
0 26 -5 36 -20 40 -12 3 -20 14 -20 28 0 12 -11 35 -25 51 -42 47 -45 52 -45
68 0 8 -18 34 -40 57 -30 33 -40 52 -41 79 0 19 -3 29 -6 23 -6 -16 -102 78
-106 104 -3 20 -51 76 -144 169 -35 35 -63 67 -63 73 0 6 -7 11 -16 11 -9 0
-18 9 -21 19 -3 11 -14 22 -25 24 -11 3 -17 10 -13 16 3 6 -5 15 -20 21 -14 5
-23 14 -20 20 3 5 -6 12 -20 16 -14 3 -25 12 -25 19 0 7 -14 18 -31 24 -17 6
-28 15 -25 20 4 5 -7 12 -24 16 -16 4 -30 13 -30 21 0 8 -6 14 -14 14 -8 0
-21 8 -28 18 -7 11 -23 24 -36 31 -12 7 -20 16 -17 22 4 5 -7 9 -23 9 -43 0
-67 34 -67 95 0 38 -4 50 -15 50 -11 0 -17 15 -20 53 -4 36 -11 57 -23 63 -9
6 -17 21 -17 35 0 13 -9 32 -20 41 -11 10 -20 27 -20 38 0 24 -14 47 -26 45
-5 0 -11 9 -12 21 -2 12 -12 24 -23 26 -14 4 -19 14 -19 39 0 27 -4 34 -20 34
-11 0 -20 4 -20 10 0 5 -8 17 -19 27 -10 10 -22 33 -26 52 -4 21 -10 29 -15
22 -4 -8 -11 -2 -20 18 -6 17 -15 29 -19 28 -4 -1 -41 33 -83 76 -42 42 -81
77 -87 77 -6 0 -15 9 -21 20 -6 11 -20 20 -31 20 -12 0 -23 8 -26 20 -3 13
-14 20 -28 20 -14 0 -25 7 -28 19 -3 12 -15 21 -33 23 -18 2 -29 9 -29 18 0
10 -12 16 -31 18 -21 2 -34 10 -37 22 -3 13 -16 20 -43 22 -24 2 -38 8 -37 15
3 13 -19 20 -72 25 -17 2 -29 8 -28 15 3 15 -34 26 -73 21 -26 -3 -29 -7 -32
-42 -4 -50 5 -87 21 -83 8 1 14 -19 17 -63 3 -39 12 -75 23 -90 12 -18 17 -44
17 -101 0 -46 6 -94 16 -120 26 -69 31 -361 9 -459 -9 -41 -20 -109 -24 -150
-4 -41 -14 -91 -23 -110 -10 -19 -18 -53 -20 -75 -2 -22 -7 -39 -13 -37 -13 5
-23 -26 -24 -71 -1 -30 -6 -40 -21 -44 -15 -4 -20 -14 -20 -40 0 -26 -5 -36
-20 -40 -15 -4 -20 -14 -20 -38 0 -24 -5 -34 -20 -38 -15 -4 -20 -14 -20 -36
0 -18 -6 -34 -14 -37 -8 -3 -16 -15 -19 -26 -4 -13 -11 -18 -20 -15 -9 3 -19
-6 -27 -28 -7 -18 -21 -36 -32 -38 -12 -3 -16 -11 -12 -21 4 -11 1 -16 -11
-16 -9 0 -19 -9 -22 -19 -3 -11 -16 -22 -29 -25 -13 -4 -24 -13 -24 -21 0 -8
-7 -15 -15 -15 -9 0 -18 -7 -22 -16 -3 -8 -16 -20 -29 -25 -13 -4 -24 -15 -24
-24 0 -10 -10 -15 -31 -15 -22 0 -32 -5 -36 -20 -4 -14 -14 -20 -34 -20 -18 0
-32 -7 -39 -20 -8 -14 -21 -20 -45 -20 -23 0 -41 -7 -52 -20 -14 -16 -30 -20
-75 -20 -45 0 -61 -4 -76 -21 -19 -19 -29 -20 -204 -17 -160 3 -187 5 -202 21
-13 13 -34 17 -86 17 -58 0 -71 3 -80 20 -8 15 -23 20 -68 22 -39 2 -56 7 -55
15 3 13 -19 20 -72 25 -19 2 -30 9 -30 18 0 11 -13 16 -43 18 -32 2 -42 7 -38
17 6 16 -14 25 -56 25 -23 0 -29 4 -24 15 5 14 -5 19 -59 27 -11 2 -20 10 -20
18 -1 8 -7 14 -14 12 -22 -5 -51 9 -51 24 0 9 -10 14 -29 14 -29 0 -57 21 -44
33 3 4 0 7 -8 7 -22 0 -102 89 -95 106 3 8 -3 22 -14 31 -17 15 -20 30 -20
106 0 75 2 88 15 83 11 -4 15 3 16 27 1 18 1 35 0 39 0 5 8 13 18 20 10 6 17
17 14 24 -2 6 7 14 21 18 14 3 26 13 26 21 0 8 13 15 33 17 19 2 31 8 30 15
-4 18 32 24 112 21 49 -2 69 -7 68 -15 -2 -7 9 -15 25 -19 46 -10 53 -14 47
-24 -3 -5 7 -12 22 -16 47 -10 54 -14 48 -24 -3 -5 7 -12 22 -16 49 -10 53
-13 46 -30 -5 -13 -2 -16 9 -11 22 8 74 -8 70 -22 -1 -6 9 -11 22 -11 35 0 78
-18 71 -30 -4 -6 8 -10 30 -10 41 0 78 -16 70 -31 -4 -5 22 -9 63 -9 38 0 84
-5 103 -12 34 -12 34 -12 9 -19 -14 -4 31 -7 100 -7 69 0 114 3 100 7 -25 7
-25 7 9 19 19 7 57 12 85 13 28 0 45 3 38 6 -24 9 8 33 44 33 21 0 33 5 32 12
-2 7 7 17 19 22 12 6 24 18 26 28 3 10 12 18 20 18 8 0 17 9 20 20 3 11 12 20
21 20 9 0 16 8 16 20 0 10 9 27 19 37 11 10 21 29 23 43 1 14 7 23 12 22 13
-5 26 20 26 53 0 17 9 44 20 60 13 20 20 47 20 80 0 28 8 63 17 80 26 46 32
360 8 407 -10 19 -20 73 -25 130 -5 61 -14 105 -24 119 -9 13 -16 42 -16 65 0
26 -7 51 -20 67 -11 14 -20 38 -20 54 0 15 -9 42 -20 58 -16 23 -20 47 -20
108 0 61 -3 77 -15 77 -8 0 -20 9 -27 20 -7 11 -18 20 -25 20 -12 0 -17 13
-14 33 0 4 -8 7 -20 7 -12 0 -23 8 -26 20 -3 13 -14 20 -28 20 -13 0 -25 7
-29 15 -3 8 -12 15 -20 15 -9 0 -33 18 -55 40 -22 22 -49 40 -60 40 -11 0 -25
9 -31 20 -6 11 -17 20 -25 20 -8 0 -19 9 -25 20 -7 13 -21 20 -40 20 -19 0
-33 7 -40 20 -6 11 -21 20 -34 20 -15 0 -26 7 -29 20 -4 14 -14 20 -35 20 -21
0 -31 6 -35 19 -3 14 -15 21 -38 23 -20 2 -33 8 -32 15 3 12 -17 20 -67 25
-14 2 -25 9 -25 18 0 11 -13 16 -48 18 -36 2 -47 7 -43 17 6 16 -14 25 -61 25
-26 0 -34 4 -30 14 7 18 -13 26 -70 26 -36 0 -44 3 -39 15 4 11 -2 15 -22 17
-15 1 -34 2 -42 4 -8 1 -26 2 -39 3 -15 1 -21 6 -18 15 4 10 -11 15 -65 18
-38 3 -75 11 -81 17 -8 8 -6 11 9 13 10 0 -23 4 -74 8 -51 4 -98 12 -104 18
-9 9 -6 12 12 12 13 0 21 2 18 5 -3 3 -56 6 -119 8 -116 2 -168 14 -119 28 14
4 -49 8 -140 9 -91 0 -186 5 -212 9 -25 4 -54 4 -62 -1z"/>
<path d="M21073 18616 c-18 -18 -33 -38 -33 -44 0 -6 -9 -16 -19 -22 -13 -6
-17 -17 -14 -30 4 -14 0 -20 -10 -20 -9 0 -19 -9 -22 -20 -3 -11 -15 -20 -26
-20 -12 0 -19 -7 -19 -20 0 -13 -7 -20 -20 -20 -11 0 -19 -3 -19 -7 3 -21 -2
-33 -15 -33 -8 0 -18 -9 -21 -20 -3 -11 -13 -20 -21 -20 -8 0 -14 -7 -14 -16
0 -9 -9 -18 -20 -21 -11 -3 -20 -11 -20 -18 0 -8 -9 -17 -20 -20 -11 -3 -20
-11 -20 -16 0 -13 -58 -69 -71 -69 -6 0 -8 -4 -4 -10 3 -5 -6 -15 -19 -22 -14
-7 -24 -17 -23 -23 1 -5 -8 -11 -19 -13 -12 -2 -24 -12 -27 -23 -3 -11 -14
-19 -26 -19 -11 0 -25 -9 -31 -20 -6 -11 -17 -20 -25 -20 -8 0 -19 -9 -25 -20
-6 -11 -16 -20 -23 -20 -7 0 -20 -9 -30 -20 -9 -11 -23 -20 -32 -20 -8 0 -19
-9 -25 -20 -6 -11 -18 -20 -26 -20 -9 0 -27 -9 -41 -20 -14 -11 -31 -20 -38
-20 -7 0 -15 -7 -19 -15 -3 -9 -18 -15 -40 -15 -26 0 -33 -4 -32 -17 1 -14 -9
-19 -44 -24 -25 -3 -39 -7 -31 -7 29 -4 -12 -32 -46 -32 -19 0 -32 -4 -28 -9
8 -15 -29 -31 -69 -31 -27 0 -34 -3 -30 -15 5 -12 -2 -15 -29 -15 -45 0 -67
-9 -67 -26 0 -10 -14 -14 -50 -14 -39 0 -52 -4 -60 -20 -9 -16 -21 -20 -63
-21 -58 0 -90 -10 -85 -24 2 -6 -41 -12 -100 -15 -85 -4 -105 -8 -113 -22 -9
-16 -31 -18 -237 -17 -125 0 -236 4 -247 9 -11 5 -15 9 -10 10 6 1 1 5 -10 10
-11 5 -57 9 -102 9 -45 1 -85 6 -88 11 -3 6 0 10 7 10 9 0 9 3 -2 10 -8 5 -50
10 -92 10 -71 0 -78 -2 -78 -20 0 -11 -6 -20 -13 -20 -14 0 -37 -40 -37 -64 0
-18 -27 -28 -34 -13 -3 7 -3 0 0 -15 5 -22 2 -28 -10 -28 -9 0 -19 -8 -23 -17
-3 -10 -14 -26 -25 -36 -10 -10 -18 -26 -18 -37 0 -11 -9 -24 -20 -30 -11 -6
-20 -17 -20 -24 0 -8 -9 -16 -20 -19 -11 -3 -20 -12 -20 -20 0 -8 -9 -17 -20
-20 -11 -3 -20 -12 -20 -21 0 -9 -6 -16 -13 -16 -7 0 -18 -9 -25 -20 -7 -12
-18 -18 -24 -14 -6 4 -8 3 -5 -3 8 -13 -27 -46 -38 -36 -4 5 -5 3 -2 -3 7 -12
-108 -137 -135 -147 -10 -3 -18 -13 -18 -21 0 -7 -9 -16 -20 -19 -11 -3 -20
-12 -20 -20 0 -8 -9 -17 -20 -20 -11 -3 -20 -12 -20 -20 0 -8 -9 -17 -20 -20
-11 -3 -20 -12 -20 -21 0 -10 -9 -16 -24 -16 -13 0 -29 -7 -36 -15 -11 -13
-15 -13 -21 -3 -12 19 -11 -55 1 -86 7 -20 17 -26 39 -26 16 0 33 -4 36 -10
10 -16 105 -60 130 -60 14 0 29 -9 35 -20 7 -13 21 -20 40 -20 18 0 37 -8 47
-20 12 -14 30 -20 59 -20 28 0 46 -6 59 -20 13 -14 31 -20 60 -20 28 0 50 -7
65 -20 17 -15 37 -20 81 -20 45 0 60 -4 68 -17 8 -14 30 -18 126 -23 87 -4
118 -9 125 -20 8 -13 56 -15 305 -17 163 0 299 -4 303 -8 4 -4 7 -12 7 -18 0
-7 10 -13 23 -15 12 -2 22 -10 22 -17 0 -8 9 -17 20 -20 11 -3 20 -13 20 -21
0 -8 7 -17 15 -20 9 -4 15 -19 15 -38 0 -17 9 -44 20 -61 25 -38 25 -80 0
-112 -11 -14 -20 -41 -20 -59 0 -24 -5 -34 -15 -34 -8 0 -15 -5 -15 -10 0 -6
-19 -31 -41 -55 -34 -37 -48 -45 -78 -45 -24 0 -32 -3 -22 -9 11 -7 9 -11 -8
-21 -32 -17 -655 -10 -673 8 -9 9 -8 12 7 12 10 0 15 3 12 7 -4 4 -54 5 -111
4 -106 -3 -165 11 -135 30 9 5 -15 9 -63 9 -61 0 -82 4 -95 18 -12 11 -30 16
-56 14 -25 -2 -49 4 -71 17 -18 12 -49 21 -68 21 -22 0 -42 7 -53 20 -11 12
-31 20 -50 20 -19 0 -39 8 -50 20 -11 12 -31 20 -51 20 -23 0 -37 6 -44 20 -7
13 -21 20 -40 20 -19 0 -33 7 -40 20 -7 13 -21 20 -40 20 -19 0 -33 7 -40 20
-7 13 -21 20 -40 20 -19 0 -33 7 -40 19 -5 11 -22 21 -37 23 -17 2 -28 9 -28
18 0 10 -12 16 -36 18 -26 2 -38 9 -42 22 -3 11 -16 20 -33 22 -18 2 -29 9
-29 18 0 9 -12 17 -30 20 -17 3 -30 11 -30 20 0 9 -13 17 -30 20 -16 4 -29 11
-28 17 1 6 -12 13 -28 17 -22 4 -30 10 -25 21 4 11 -2 15 -25 15 -22 0 -32 5
-36 20 -3 11 -14 20 -25 20 -11 0 -22 8 -25 19 -3 11 -15 21 -27 23 -13 2 -20
10 -19 21 1 14 -4 17 -17 14 -21 -5 -54 17 -120 81 -70 67 -76 72 -88 72 -6 0
-16 9 -22 20 -6 11 -17 20 -25 20 -8 0 -19 9 -25 20 -6 11 -17 20 -24 20 -8 0
-16 9 -19 20 -3 11 -12 20 -20 20 -8 0 -17 9 -20 20 -3 11 -12 20 -21 20 -9 0
-16 7 -16 15 0 8 -9 19 -21 25 -11 7 -18 14 -15 17 3 4 -4 11 -15 17 -12 6
-21 15 -20 20 1 5 -8 14 -21 21 -13 6 -22 17 -21 23 2 7 -6 12 -17 12 -13 0
-20 7 -20 20 0 13 -7 20 -19 20 -11 0 -23 9 -26 20 -3 11 -12 20 -20 20 -7 0
-15 9 -18 20 -3 11 -12 20 -20 20 -9 0 -19 9 -22 20 -3 11 -11 20 -17 20 -16
0 -47 43 -48 67 0 15 -5 21 -14 17 -9 -3 -17 3 -21 15 -3 12 -26 42 -51 67
-24 26 -44 50 -44 55 0 5 -6 9 -14 9 -7 0 -16 9 -19 20 -3 11 -12 20 -21 20
-9 0 -16 8 -16 19 0 10 -6 21 -14 24 -7 3 -17 18 -20 33 -4 16 -16 34 -27 42
-11 7 -17 18 -14 23 4 5 0 9 -7 9 -18 0 -68 58 -68 79 0 21 -15 44 -26 39 -5
-1 -10 7 -12 20 -2 13 -10 22 -21 22 -10 0 -23 11 -29 25 -6 14 -16 25 -22 25
-5 0 -10 12 -10 26 0 17 -6 28 -20 31 -11 3 -20 11 -20 19 0 7 -9 18 -21 25
-14 7 -19 17 -16 30 3 11 -4 28 -19 42 -16 16 -22 31 -18 43 4 14 3 15 -3 6
-12 -16 -26 -1 -40 43 -8 26 -15 30 -44 30 l-34 0 -2 -4350 c-2 -2392 1 -4356
5 -4363 7 -10 184 -13 908 -13 598 1 900 4 902 11 2 5 8 10 14 10 13 0 78 65
78 78 0 5 9 12 19 15 14 3 21 15 23 38 2 25 8 34 21 33 12 -1 17 6 17 26 0 28
21 55 33 43 4 -3 7 12 7 34 0 40 22 66 34 40 3 -7 5 9 3 36 -1 32 2 47 10 47
17 0 34 35 27 55 -4 10 2 24 15 36 15 14 21 32 21 64 0 32 4 45 14 45 15 0 26
30 26 75 0 18 8 38 20 48 15 13 20 29 20 67 0 36 4 50 14 50 16 0 26 30 26 79
0 18 9 49 21 67 19 31 20 46 17 249 -2 173 -6 217 -17 225 -10 5 -16 37 -21
98 -4 64 -11 95 -23 107 -12 11 -17 33 -17 68 0 52 -10 80 -26 78 -5 -1 -10
16 -12 36 -2 21 -12 46 -23 56 -12 11 -19 31 -19 52 0 24 -6 37 -20 45 -15 8
-18 17 -13 41 5 25 2 31 -16 36 -16 4 -21 13 -21 38 0 24 -6 34 -23 42 -19 9
-23 17 -20 40 4 23 0 31 -20 40 -20 9 -23 17 -20 45 3 22 1 29 -5 19 -7 -10
-13 -6 -23 18 -8 17 -22 34 -31 37 -13 4 -18 16 -18 42 0 24 -3 32 -9 23 -6
-10 -12 -5 -22 18 -8 17 -20 31 -27 31 -8 0 -16 9 -19 20 -3 11 -9 18 -13 15
-12 -7 -33 23 -25 35 4 7 -2 14 -14 17 -12 3 -21 9 -21 15 0 8 -107 126 -138
152 -8 6 -24 21 -37 34 -12 12 -27 22 -33 22 -6 0 -16 9 -22 20 -6 11 -20 20
-30 20 -11 0 -20 7 -20 15 0 9 -11 20 -25 25 -14 5 -24 15 -23 22 2 7 -7 14
-20 16 -12 2 -27 12 -32 23 -6 10 -21 19 -34 19 -15 0 -26 7 -29 20 -4 17 -13
20 -64 20 -58 0 -88 -10 -81 -26 1 -5 -17 -10 -42 -12 -28 -2 -51 -11 -63 -23
-14 -14 -31 -19 -76 -19 -44 0 -64 -5 -81 -20 -21 -18 -37 -20 -191 -20 -156
0 -169 1 -179 19 -5 11 -20 21 -32 23 -13 2 -22 9 -20 16 1 7 -9 17 -23 22
-15 6 -25 17 -25 29 0 11 -9 28 -19 38 -19 19 -27 86 -23 215 2 47 5 58 22 63
11 3 20 14 20 24 0 9 18 34 40 54 32 29 47 36 68 32 15 -3 21 -2 14 1 -10 5
-10 9 -1 20 9 11 41 14 133 14 78 0 116 4 106 10 -23 14 31 30 108 31 37 0 61
3 54 6 -25 10 9 33 49 33 30 0 37 3 33 15 -4 11 2 17 24 21 19 4 29 12 28 22
-1 11 7 17 19 17 11 0 20 6 20 13 0 8 7 19 16 25 9 7 21 22 28 35 7 12 16 20
20 17 13 -7 21 21 21 73 0 49 18 97 21 57 4 -45 17 86 18 170 1 87 -7 120 -25
113 -5 -1 -10 32 -12 76 -2 66 -1 78 12 73 18 -7 29 22 21 56 -5 17 -2 26 9
30 9 4 16 13 16 21 0 7 7 16 15 20 8 3 15 12 15 21 0 8 8 15 19 15 10 0 21 9
24 20 4 15 14 20 40 20 20 0 44 8 57 20 13 11 33 20 45 20 12 0 34 -9 48 -20
14 -11 39 -20 56 -20 21 0 31 -5 31 -15 0 -8 11 -17 24 -21 13 -3 26 -14 29
-25 3 -10 12 -19 20 -19 12 0 15 -8 11 -37 -4 -26 -3 -34 4 -24 16 22 32 -19
25 -62 -7 -44 3 -88 20 -84 9 1 13 -43 15 -183 3 -189 -3 -255 -18 -215 -11
28 -24 -64 -17 -113 6 -39 -15 -87 -26 -60 -3 7 -6 -13 -6 -44 -1 -51 -3 -58
-21 -58 -17 0 -20 -7 -20 -40 0 -25 5 -40 13 -40 6 0 32 -18 56 -40 25 -22 50
-40 57 -40 7 0 18 -9 24 -20 6 -11 17 -20 25 -20 8 0 19 -9 25 -20 6 -11 17
-20 24 -20 8 0 16 -9 19 -20 3 -11 12 -20 21 -20 9 0 16 -5 16 -12 0 -6 19
-28 42 -50 23 -21 37 -38 32 -38 -5 -1 2 -7 16 -15 14 -7 25 -19 25 -27 0 -7
5 -13 12 -13 14 0 28 -13 28 -28 1 -7 6 -11 13 -9 7 1 17 -9 22 -24 6 -14 14
-23 18 -20 11 7 57 -55 54 -71 -2 -7 2 -13 8 -13 5 0 10 -7 10 -16 0 -8 5 -12
10 -9 6 3 10 2 10 -3 0 -5 18 -27 40 -50 26 -26 40 -50 40 -66 0 -14 4 -26 9
-26 21 0 71 -66 71 -92 0 -18 7 -29 20 -33 15 -5 20 -16 21 -43 0 -20 3 -31 6
-24 9 22 21 13 27 -23 4 -21 13 -35 21 -35 9 0 15 -10 15 -25 0 -14 9 -33 20
-42 11 -10 20 -28 20 -40 0 -13 9 -32 20 -43 11 -11 20 -32 21 -47 1 -31 16
-86 18 -65 2 29 21 -2 21 -35 0 -26 5 -36 20 -40 16 -4 20 -14 20 -49 0 -32 6
-49 20 -61 14 -12 20 -30 20 -59 0 -26 7 -51 20 -67 13 -16 20 -40 20 -69 0
-36 3 -44 19 -45 11 -1 22 5 25 13 3 8 19 14 35 14 20 0 34 7 41 20 6 12 21
20 36 20 17 0 28 7 31 20 4 14 14 20 32 20 18 0 37 13 61 40 19 22 42 40 51
40 9 0 24 9 34 20 10 11 23 20 29 20 6 0 27 18 46 40 19 22 42 40 51 40 9 0
19 7 23 15 3 8 17 15 30 15 18 0 24 4 20 15 -4 9 3 16 19 20 14 4 27 15 30 26
3 11 14 19 26 19 12 0 20 3 20 8 -4 22 3 32 21 32 11 0 19 3 19 8 -4 22 3 32
21 32 11 0 19 3 19 8 -4 22 3 32 22 32 11 0 18 4 15 8 -3 5 6 19 19 30 14 12
25 26 25 32 0 5 6 10 14 10 8 0 17 11 20 24 3 14 14 32 24 42 9 10 17 20 17
23 0 3 28 35 63 70 43 43 62 71 62 88 0 18 4 24 15 19 8 -3 14 -2 14 2 -4 24
3 42 16 42 8 0 19 9 25 20 6 11 8 20 4 20 -3 0 -1 7 6 15 7 8 17 12 22 9 6 -4
8 2 4 14 -5 15 -1 24 12 31 11 6 23 7 27 3 4 -4 6 9 4 28 -2 26 3 42 19 58 12
12 22 31 22 42 0 11 4 20 9 20 5 0 14 15 21 33 8 17 19 39 26 47 6 8 15 29 18
47 4 17 14 34 22 37 8 3 14 18 14 35 0 20 7 34 20 41 14 7 20 21 20 45 0 21 6
37 16 43 9 5 20 30 25 56 5 26 16 54 24 63 9 8 15 27 13 42 -3 24 -7 26 -53
29 -33 2 -56 10 -68 23 -13 14 -31 19 -72 19 -44 0 -56 4 -65 20 -8 16 -21 20
-60 20 -39 0 -52 4 -60 20 -8 15 -21 20 -55 20 -34 0 -47 5 -55 19 -7 14 -23
21 -53 23 -29 2 -42 8 -42 18 0 11 -13 16 -48 18 -36 2 -47 7 -43 17 6 16 -14
25 -56 25 -22 0 -29 4 -25 14 5 11 -5 17 -39 22 -33 5 -44 10 -40 20 4 10 -3
14 -20 14 -32 0 -66 18 -59 31 4 5 -7 9 -23 9 -29 0 -58 21 -45 33 3 4 -10 7
-30 7 -20 0 -37 5 -37 10 0 6 0 13 0 18 1 4 -14 9 -32 12 -22 4 -33 10 -32 21
1 11 -5 15 -18 11 -10 -2 -29 4 -41 14 -36 31 -85 64 -96 64 -6 0 -15 9 -21
20 -6 11 -17 20 -25 20 -8 0 -22 9 -32 19 -10 10 -27 21 -38 23 -11 2 -19 10
-17 16 1 7 -9 17 -23 22 -14 5 -25 16 -25 25 0 8 -9 15 -20 15 -10 0 -24 9
-30 20 -6 11 -19 20 -29 20 -10 0 -21 9 -24 20 -3 12 -14 20 -26 20 -13 0 -21
6 -21 16 0 9 -9 18 -20 21 -11 3 -20 12 -20 20 0 8 -9 17 -20 20 -11 3 -20 12
-20 20 0 8 -9 17 -20 20 -11 3 -20 12 -20 19 0 8 -5 14 -10 14 -16 0 -151 141
-145 151 4 5 -1 6 -9 3 -9 -3 -17 2 -21 15 -3 12 -13 21 -21 21 -8 0 -14 7
-14 16 0 9 -9 18 -20 21 -11 3 -20 12 -20 20 0 8 -9 17 -20 20 -11 3 -20 12
-20 20 0 8 -9 17 -20 20 -11 3 -20 9 -20 14 0 9 -43 77 -63 99 -8 8 -17 23
-20 33 -4 9 -13 17 -22 17 -8 0 -15 7 -15 15 0 9 -7 18 -15 21 -9 4 -15 20
-16 43 0 20 -3 30 -6 23 -4 -10 -10 -7 -21 10 -9 13 -15 25 -14 28 2 2 -6 7
-17 12 -12 4 -21 16 -21 28 0 11 -6 20 -14 20 -8 0 -17 15 -20 35 -4 19 -10
34 -14 34 -22 -4 -33 3 -31 19 3 32 -1 41 -16 36 -11 -5 -15 1 -15 21 0 18 -6
29 -20 32 -15 4 -20 14 -20 40 0 26 -5 36 -20 40 -12 3 -20 14 -20 27 0 25
-13 48 -26 46 -5 0 -11 10 -12 22 -2 13 -12 31 -23 41 -10 10 -19 26 -19 36 0
10 -9 28 -20 41 -12 14 -20 37 -20 61 0 21 -5 41 -11 45 -7 4 -8 22 -5 48 4
22 9 62 12 88 4 34 11 47 25 51 10 3 19 14 19 24 0 20 75 93 96 93 6 0 17 7
24 15 9 11 33 15 90 15 57 0 81 -4 90 -15 7 -8 20 -15 29 -15 27 0 91 -62 91
-89 0 -14 7 -25 20 -28 15 -4 20 -14 20 -40 0 -26 5 -36 19 -40 14 -4 21 -15
23 -42 2 -23 8 -36 17 -36 8 0 18 -12 22 -27 4 -16 21 -45 38 -67 17 -21 31
-46 31 -55 0 -10 12 -28 26 -41 14 -13 23 -28 20 -34 -4 -5 1 -14 11 -19 15
-9 22 -26 25 -59 1 -7 3 -11 6 -8 9 9 43 -17 39 -30 -3 -7 1 -12 11 -11 11 1
17 -7 17 -23 0 -13 10 -31 21 -40 11 -9 23 -24 27 -33 3 -10 13 -18 22 -18 8
0 15 -7 15 -15 0 -8 9 -19 20 -25 11 -6 20 -20 20 -30 0 -11 6 -20 14 -20 8 0
16 -10 20 -23 3 -12 31 -49 63 -81 32 -32 58 -64 58 -70 0 -6 5 -11 12 -11 14
0 28 -13 28 -26 0 -5 3 -8 6 -6 10 4 39 -25 33 -34 -3 -5 4 -9 15 -9 19 0 26
-10 22 -32 0 -5 8 -8 19 -8 18 0 25 -10 21 -32 0 -5 8 -8 18 -8 11 0 22 -8 25
-18 3 -9 16 -22 28 -27 13 -6 22 -16 21 -23 -2 -7 5 -12 16 -12 10 0 24 -7 31
-15 7 -8 19 -15 26 -15 8 0 19 -9 26 -20 7 -11 17 -20 22 -20 5 0 19 -10 31
-22 39 -39 58 -53 79 -58 12 -3 21 -12 21 -20 0 -8 10 -16 23 -18 12 -2 27
-12 32 -23 6 -10 19 -19 30 -19 11 0 24 -9 30 -20 6 -11 19 -20 30 -20 11 0
24 -9 30 -20 7 -13 21 -20 41 -20 23 0 29 -4 27 -17 -2 -13 6 -19 32 -23 20
-3 34 -11 33 -18 -2 -6 9 -14 25 -18 46 -10 53 -14 47 -24 -5 -9 11 -15 59
-22 11 -2 18 -7 17 -12 -4 -14 21 -26 58 -26 25 0 32 -4 27 -15 -4 -11 2 -15
22 -16 15 -1 31 -1 35 0 15 3 47 -20 42 -30 -4 -5 7 -9 24 -9 16 0 42 -5 58
-11 22 -8 24 -12 13 -19 -10 -7 2 -10 38 -10 61 0 104 -17 81 -31 -9 -6 7 -9
44 -9 32 0 68 -5 80 -12 21 -11 21 -11 2 -19 -13 -5 8 -8 53 -8 42 -1 85 -7
100 -15 40 -21 222 -25 222 -6 0 6 21 31 47 55 26 25 44 47 40 51 -9 9 42 74
58 74 7 0 16 16 19 35 4 19 11 35 17 35 5 0 14 11 19 25 5 14 15 24 22 23 7
-2 15 11 18 27 3 17 10 37 17 45 7 8 24 28 38 44 14 16 25 39 25 51 0 14 8 25
20 28 15 4 20 14 20 40 0 26 5 36 20 40 15 4 20 14 20 42 0 28 4 36 14 32 17
-7 26 13 26 53 0 16 5 32 10 35 6 3 10 0 10 -7 0 -9 3 -9 10 2 5 8 10 34 10
58 0 30 4 42 15 42 9 0 16 14 20 38 9 53 14 64 24 58 11 -7 25 69 16 84 -8 13
14 42 26 34 9 -5 10 1 14 79 3 48 25 93 25 52 0 -16 2 -17 9 -6 5 8 7 37 5 65
-3 28 -2 66 1 84 6 34 24 44 27 15 0 -10 4 36 8 103 7 125 18 170 31 124 4
-14 8 81 9 210 3 382 1 743 -5 748 -3 3 -5 -3 -5 -13 0 -15 -3 -16 -12 -7 -8
8 -14 54 -17 127 -2 63 -6 114 -10 113 -20 -2 -31 4 -31 17 0 8 9 15 21 15 16
0 19 4 14 21 -5 15 -2 22 13 26 11 3 23 17 27 31 10 39 26 57 36 40 5 -8 8 -2
6 17 -1 20 3 30 13 30 10 0 16 12 18 36 2 27 9 38 23 42 13 4 19 14 19 36 0
20 7 34 20 41 13 7 20 21 20 40 0 19 7 33 20 40 14 7 20 21 20 44 0 25 5 35
20 39 15 4 20 14 20 42 0 28 4 36 14 32 18 -7 26 13 26 62 0 24 7 42 20 54 14
12 20 29 20 57 0 27 7 47 20 60 14 14 20 33 20 63 0 23 5 49 10 57 5 8 10 11
10 5 0 -5 5 -3 10 5 5 8 10 41 10 72 0 61 7 91 20 83 20 -12 25 122 25 655 0
534 -4 628 -24 615 -13 -7 -21 20 -21 71 0 43 -1 44 -32 43 -24 0 -42 -10 -65
-33z"/>
<path d="M14756 18095 c-8 -8 -19 -15 -25 -15 -6 0 -11 -11 -11 -24 0 -25 -22
-51 -33 -39 -4 3 -7 -8 -7 -26 0 -25 -9 -41 -40 -70 -23 -21 -40 -46 -40 -59
0 -12 -4 -22 -9 -22 -5 0 -13 -9 -16 -20 -3 -11 -12 -20 -19 -20 -8 0 -19 -15
-27 -32 -7 -18 -19 -37 -26 -41 -7 -4 -13 -17 -13 -27 0 -13 -7 -20 -20 -20
-13 0 -20 -7 -20 -20 0 -13 -7 -20 -20 -20 -13 0 -20 -7 -20 -18 0 -11 -9 -29
-20 -42 -11 -13 -20 -29 -20 -37 0 -7 -7 -13 -15 -13 -8 0 -15 -7 -15 -15 0
-9 -11 -20 -25 -27 -13 -6 -22 -14 -20 -19 3 -4 -3 -14 -13 -21 -10 -7 -25
-24 -32 -38 -7 -13 -19 -31 -27 -38 -7 -7 -13 -19 -13 -27 0 -7 -7 -15 -15
-19 -8 -3 -15 -12 -15 -21 0 -8 -4 -15 -9 -15 -11 0 -211 -200 -211 -211 0 -4
-9 -11 -20 -14 -11 -3 -20 -12 -20 -20 0 -8 -9 -17 -20 -20 -11 -3 -20 -12
-20 -20 0 -8 -9 -16 -20 -20 -11 -3 -19 -11 -17 -17 1 -6 -8 -17 -20 -23 -13
-7 -20 -15 -17 -18 4 -3 -5 -12 -20 -18 -14 -7 -26 -18 -26 -25 0 -7 -9 -16
-20 -19 -11 -3 -20 -12 -20 -20 0 -8 -9 -17 -20 -20 -11 -3 -20 -13 -20 -21 0
-8 -7 -14 -16 -14 -9 0 -18 -9 -21 -20 -3 -11 -12 -20 -20 -20 -8 0 -17 -9
-20 -20 -3 -11 -11 -20 -19 -20 -7 0 -18 -9 -24 -20 -6 -11 -17 -20 -25 -20
-8 0 -19 -9 -25 -20 -6 -11 -16 -20 -23 -20 -7 0 -29 -16 -50 -35 -21 -19 -41
-35 -45 -35 -4 0 -13 -9 -20 -20 -8 -13 -24 -20 -45 -21 -17 0 -26 -3 -19 -6
20 -8 -6 -33 -34 -33 -13 0 -23 -3 -23 -7 4 -24 -4 -33 -27 -33 -14 0 -23 -4
-19 -9 7 -13 -24 -29 -47 -26 -12 2 -18 -3 -18 -16 0 -10 -4 -20 -10 -20 -5
-1 -14 -3 -20 -4 -5 -1 -15 -3 -20 -4 -6 0 -9 -6 -8 -12 2 -7 -12 -16 -30 -21
-18 -5 -30 -13 -27 -18 6 -10 -1 -14 -47 -24 -16 -4 -27 -12 -25 -19 1 -7 -11
-13 -27 -15 -18 -2 -30 -11 -33 -23 -4 -13 -14 -19 -34 -19 -18 0 -32 -7 -39
-20 -6 -12 -21 -20 -35 -20 -14 0 -29 -8 -35 -20 -6 -11 -21 -20 -35 -20 -34
0 -55 -10 -55 -26 0 -9 -12 -14 -35 -14 -23 0 -41 -7 -52 -20 -10 -11 -30 -20
-45 -20 -17 0 -31 -7 -38 -20 -8 -15 -21 -20 -49 -20 -24 0 -47 -8 -61 -20
-13 -12 -37 -20 -57 -20 -20 0 -46 -9 -60 -20 -16 -12 -41 -20 -67 -20 -22 0
-50 -7 -60 -15 -14 -10 -46 -15 -100 -16 -53 0 -74 -3 -61 -9 38 -15 -33 -31
-132 -29 -52 1 -97 -1 -100 -5 -4 -3 2 -6 12 -6 15 0 16 -3 7 -12 -10 -10 -94
-14 -332 -16 -312 -3 -371 2 -355 29 4 5 -9 9 -29 9 -37 0 -104 49 -92 68 3 5
-2 9 -12 8 -13 -1 -16 6 -14 26 2 19 -4 30 -18 38 -18 10 -20 20 -20 125 0 92
3 115 14 115 15 0 26 21 26 50 0 10 9 20 20 23 11 3 19 11 18 18 -2 8 8 15 21
17 13 2 26 12 28 23 6 22 -25 20 356 22 208 2 249 4 257 17 7 11 37 16 123 20
90 4 117 9 131 23 13 12 34 17 77 17 47 0 63 4 76 20 13 15 30 20 63 20 33 0
50 5 63 20 10 13 29 20 50 20 21 0 41 8 52 20 12 13 31 20 54 20 24 0 42 7 54
20 9 11 27 20 40 20 13 0 32 9 43 21 11 12 27 19 40 16 13 -2 26 3 33 15 7 11
23 18 41 18 27 0 30 3 29 33 -3 70 -12 92 -44 97 -18 3 -30 11 -30 20 0 8 -10
16 -22 18 -13 2 -23 10 -23 18 0 7 -11 16 -24 20 -13 3 -26 14 -29 25 -3 10
-12 19 -20 19 -8 0 -17 9 -20 20 -3 11 -12 20 -21 20 -9 0 -16 6 -16 14 0 8
-9 18 -20 21 -11 3 -20 12 -20 20 0 8 -9 17 -21 20 -11 4 -18 12 -16 18 2 7
-6 17 -17 23 -12 6 -20 16 -18 23 1 7 -2 10 -7 7 -11 -7 -98 80 -107 106 -3
10 -10 18 -15 18 -5 0 -14 12 -20 27 -5 15 -19 33 -30 41 -10 7 -17 18 -14 23
4 5 -5 13 -19 19 -15 5 -25 15 -24 22 2 8 -10 14 -29 16 -24 2 -34 -2 -43 -17
-7 -14 -21 -21 -40 -21 -19 0 -33 -7 -40 -20 -7 -13 -21 -20 -39 -20 -15 0
-38 -9 -51 -20 -13 -11 -36 -20 -51 -20 -18 0 -32 -7 -39 -20 -8 -15 -21 -20
-49 -20 -22 0 -44 -6 -51 -15 -7 -8 -28 -15 -47 -15 -20 0 -43 -8 -55 -20 -16
-15 -36 -20 -77 -21 -31 0 -50 -3 -43 -6 30 -12 -25 -32 -88 -33 -44 0 -60 -3
-50 -10 26 -16 0 -25 -82 -27 -44 -1 -83 -4 -86 -7 -3 -3 3 -6 13 -6 13 0 16
-3 9 -10 -6 -6 -57 -13 -114 -15 -56 -2 -105 -7 -108 -10 -3 -3 2 -5 12 -5 9
0 14 -4 11 -10 -4 -6 -59 -11 -128 -11 -103 -1 -222 -14 -164 -18 10 0 15 -5
12 -11 -8 -13 -774 -13 -795 0 -12 8 -10 10 10 11 55 3 -81 17 -177 18 -56 1
-105 5 -108 11 -3 6 0 10 7 11 7 0 3 4 -9 9 -13 5 -50 7 -83 5 -64 -4 -116 8
-105 25 8 13 -84 13 -104 1 -18 -11 -9 -74 13 -97 9 -8 16 -29 16 -45 0 -17 8
-36 20 -46 14 -13 20 -30 20 -61 0 -35 4 -45 20 -49 15 -4 20 -14 20 -38 0
-19 8 -39 20 -50 11 -10 20 -28 20 -39 0 -12 9 -34 20 -51 14 -22 18 -40 14
-65 -4 -26 -3 -31 5 -20 15 22 34 -2 34 -42 0 -18 2 -27 5 -20 6 19 32 -5 32
-29 0 -11 9 -28 20 -39 11 -11 20 -33 20 -49 0 -21 6 -32 20 -36 11 -3 20 -13
20 -20 0 -8 9 -19 20 -25 11 -6 19 -14 19 -18 -4 -27 3 -52 15 -52 8 0 17 -3
19 -7 8 -15 -8 -118 -18 -115 -16 5 -23 -37 -24 -153 -1 -60 -6 -117 -11 -125
-8 -12 -10 -12 -11 5 -1 16 -2 15 -8 -5 -4 -14 -6 -160 -5 -325 4 -393 4 -406
13 -375 12 45 21 -3 22 -123 1 -62 5 -123 9 -137 4 -14 8 -19 9 -12 1 7 6 10
11 7 6 -3 10 -34 11 -68 1 -53 15 -131 18 -102 3 29 21 -27 22 -70 1 -46 16
-117 18 -87 1 7 6 10 11 7 6 -3 10 -25 10 -49 0 -29 7 -51 20 -66 11 -13 20
-32 20 -44 0 -37 12 -66 26 -66 10 0 14 -13 14 -46 0 -37 4 -47 20 -51 15 -4
20 -14 20 -40 0 -26 5 -36 20 -40 15 -4 20 -14 20 -40 0 -26 5 -36 20 -40 15
-4 20 -14 20 -40 0 -26 5 -36 20 -40 15 -4 20 -14 20 -40 0 -26 5 -36 20 -40
15 -4 20 -14 20 -38 0 -25 5 -34 21 -38 18 -5 20 -11 16 -34 -4 -15 -4 -23 -1
-16 10 22 33 2 40 -34 4 -23 13 -37 25 -40 11 -3 19 -12 19 -19 0 -8 7 -17 15
-20 8 -4 15 -15 15 -25 0 -11 20 -39 45 -64 27 -26 43 -49 39 -58 -3 -9 3 -16
16 -20 12 -3 19 -10 16 -15 -3 -5 4 -18 15 -28 17 -15 35 -18 117 -16 67 2
101 7 112 17 11 10 38 15 74 15 43 0 62 5 78 20 17 15 36 20 82 20 32 0 56 3
53 7 -17 16 19 33 72 33 36 0 51 3 42 9 -21 13 18 31 68 31 30 0 39 3 35 14
-4 10 8 16 45 21 36 5 48 10 45 20 -4 10 6 15 38 17 30 2 43 7 43 18 0 10 12
16 32 18 20 2 37 11 43 22 6 11 23 20 43 22 20 2 32 8 32 18 0 10 13 17 35 20
22 3 35 10 35 20 0 9 11 16 29 18 18 2 30 11 33 23 4 13 14 19 35 19 21 0 31
6 35 20 3 11 14 20 24 20 10 0 23 9 29 20 6 11 19 20 30 20 11 0 24 9 30 20 6
11 17 20 25 20 8 0 19 9 25 20 6 11 17 20 25 20 8 0 19 9 25 20 6 11 18 20 27
20 9 0 23 7 32 15 9 8 27 24 41 37 14 13 28 22 32 21 4 -2 10 6 13 17 4 11 15
20 26 20 10 0 18 3 18 8 -4 22 3 32 21 32 13 0 20 7 20 20 0 11 6 20 13 20 7
0 18 9 25 20 7 11 19 20 28 20 8 0 12 5 9 10 -3 6 6 15 20 20 14 5 23 14 20
20 -3 5 5 15 19 21 14 7 23 16 20 20 -2 5 4 14 16 21 11 7 20 18 20 25 0 6 9
15 20 18 11 3 20 12 20 20 0 8 9 17 20 20 11 3 20 11 20 16 0 5 18 27 39 48
21 21 42 49 46 61 4 13 12 19 21 16 10 -4 14 2 14 20 0 17 14 38 40 63 22 20
40 45 40 55 0 14 5 17 21 13 18 -5 20 -2 14 22 -5 23 -2 29 13 33 12 4 23 18
27 36 3 17 13 33 21 36 8 3 14 15 14 26 0 13 7 20 20 20 16 0 20 7 20 35 0 23
5 35 14 35 8 0 19 14 25 30 5 17 17 38 26 46 8 8 15 24 15 34 0 11 9 24 20 30
14 8 20 21 20 46 0 22 6 37 15 40 8 4 15 13 15 21 0 20 90 113 109 113 8 0 23
7 33 16 23 22 154 21 178 -1 9 -8 26 -15 38 -15 12 0 26 -9 32 -20 6 -11 17
-20 25 -20 8 0 15 -7 15 -15 0 -8 9 -19 20 -25 12 -6 20 -21 20 -37 0 -14 10
-41 21 -60 17 -28 20 -46 17 -93 -3 -37 -11 -66 -21 -78 -9 -10 -17 -31 -17
-46 0 -19 -6 -29 -19 -33 -14 -4 -21 -15 -23 -42 -2 -24 -8 -36 -18 -36 -10 0
-16 -12 -18 -36 -2 -27 -9 -38 -23 -42 -14 -4 -19 -14 -19 -40 0 -26 -5 -36
-20 -40 -12 -3 -20 -14 -20 -26 0 -11 -9 -25 -20 -31 -11 -6 -20 -21 -20 -34
0 -15 -7 -26 -20 -29 -14 -3 -20 -14 -20 -31 0 -15 -7 -29 -15 -32 -8 -4 -15
-13 -15 -20 0 -8 -8 -18 -17 -21 -23 -9 -33 -23 -33 -50 0 -14 -6 -23 -15 -23
-8 0 -15 -7 -15 -15 0 -8 -18 -33 -40 -55 -22 -22 -42 -51 -46 -65 -4 -17 -11
-24 -20 -21 -11 4 -13 -1 -8 -19 5 -21 3 -25 -15 -25 -14 0 -21 -6 -21 -19 0
-10 -9 -21 -20 -24 -11 -3 -20 -12 -20 -21 0 -9 -7 -16 -15 -16 -9 0 -19 -8
-22 -17 -4 -9 -14 -24 -22 -33 -9 -9 -32 -36 -51 -60 -51 -65 -172 -186 -192
-193 -10 -4 -18 -13 -18 -21 0 -8 -10 -16 -22 -18 -13 -2 -22 -9 -20 -16 1 -7
-11 -18 -28 -23 -16 -6 -27 -15 -24 -20 3 -5 -6 -13 -20 -19 -14 -5 -26 -16
-26 -24 0 -7 -9 -16 -20 -19 -11 -3 -20 -12 -20 -21 0 -9 -7 -16 -15 -16 -8 0
-19 -9 -25 -20 -6 -11 -20 -20 -31 -20 -12 0 -23 -8 -26 -20 -3 -11 -14 -20
-24 -20 -11 0 -22 -7 -26 -16 -3 -8 -16 -20 -29 -25 -13 -4 -24 -15 -24 -24 0
-9 -9 -15 -25 -15 -14 0 -29 -8 -35 -20 -6 -11 -17 -20 -25 -20 -8 0 -19 -9
-25 -20 -6 -11 -17 -20 -25 -20 -16 0 -86 -45 -97 -63 -4 -6 -24 -10 -45 -10
-21 1 -32 -1 -25 -4 22 -9 -7 -33 -40 -33 -16 0 -27 -4 -23 -9 8 -13 -27 -31
-62 -31 -21 0 -24 -3 -13 -10 11 -7 9 -11 -13 -19 -16 -6 -37 -11 -47 -11 -13
0 -17 -5 -14 -15 5 -11 -1 -15 -22 -16 -37 -1 -66 -12 -63 -24 1 -6 -6 -11
-17 -13 -49 -7 -64 -13 -61 -24 1 -7 -9 -14 -23 -16 -51 -6 -70 -13 -67 -25 1
-7 -11 -13 -28 -15 -55 -5 -75 -12 -75 -27 0 -11 -11 -15 -37 -16 -45 -1 -76
-11 -71 -24 2 -6 -21 -12 -50 -15 -36 -4 -57 -11 -63 -23 -8 -13 -23 -17 -64
-17 -44 0 -56 -4 -65 -20 -8 -15 -21 -20 -55 -20 l-45 0 0 -65 c0 -52 4 -69
20 -82 15 -13 18 -26 14 -62 -2 -25 -1 -40 2 -33 13 27 34 -10 35 -62 1 -28 3
-43 6 -33 5 18 5 18 19 0 7 -10 14 -36 14 -58 1 -22 4 -34 7 -28 9 24 33 -14
34 -54 0 -21 3 -32 6 -25 9 22 33 -7 33 -39 0 -20 4 -27 14 -23 9 4 16 -6 20
-31 4 -19 11 -33 15 -30 12 7 34 -22 26 -35 -11 -17 5 -50 20 -43 9 3 18 -3
22 -13 3 -11 12 -23 20 -27 7 -4 13 -18 13 -30 0 -27 10 -41 33 -50 10 -4 15
-11 12 -17 -3 -5 5 -14 19 -19 18 -7 23 -15 19 -30 -3 -13 2 -23 16 -30 12 -7
21 -21 21 -32 0 -12 8 -23 20 -26 11 -3 20 -12 20 -19 0 -8 12 -19 26 -24 14
-6 22 -14 19 -20 -3 -6 6 -15 20 -20 15 -6 23 -15 20 -21 -4 -6 2 -13 14 -16
12 -3 21 -12 21 -19 0 -8 7 -17 15 -20 8 -4 15 -12 15 -20 0 -7 9 -18 20 -24
11 -6 18 -15 15 -21 -4 -5 6 -14 20 -19 14 -5 24 -14 21 -19 -3 -5 6 -12 20
-15 17 -5 24 -12 20 -21 -3 -10 1 -15 13 -15 21 0 44 -23 34 -33 -3 -4 2 -7
13 -7 10 0 43 -23 71 -51 55 -52 117 -99 133 -99 5 0 14 -9 20 -20 6 -11 17
-20 25 -20 8 0 19 -9 25 -20 6 -11 21 -20 34 -20 15 0 26 -7 29 -20 3 -12 14
-20 26 -20 11 0 25 -9 31 -20 6 -12 21 -20 36 -20 17 0 28 -7 31 -19 6 -24 68
-35 111 -20 32 11 37 25 44 129 2 19 7 34 13 32 13 -5 23 26 24 77 1 34 4 42
16 37 15 -6 22 11 27 69 2 17 8 29 15 28 13 -3 20 18 25 70 2 15 8 28 13 28
16 1 27 28 20 49 -4 14 -1 22 12 27 25 9 33 24 27 49 -4 16 0 24 15 29 16 5
21 15 21 38 0 21 7 36 19 44 11 7 22 26 26 43 4 20 12 30 20 26 8 -3 11 2 8
13 -3 11 5 24 21 35 16 10 26 26 26 40 0 13 16 39 36 60 20 20 37 42 38 49 6
28 42 77 59 77 10 0 17 8 17 20 0 13 7 20 20 20 13 0 20 7 20 20 0 11 9 28 20
37 11 10 20 23 20 30 0 7 9 17 20 23 11 6 20 17 20 25 0 8 7 15 15 15 8 0 15
7 15 15 0 9 11 20 25 27 13 6 22 15 19 20 -3 5 3 12 15 15 12 3 21 12 21 19 0
8 12 19 26 24 14 6 22 14 19 20 -3 6 5 14 18 19 13 5 27 17 30 25 4 9 13 16
21 16 9 0 20 9 26 20 6 11 16 20 23 20 7 0 28 18 47 40 19 22 42 40 50 40 8 0
25 9 38 19 18 16 22 29 22 74 0 50 -2 56 -22 59 -21 3 -23 7 -19 62 2 39 0 56
-7 52 -27 -17 -32 39 -30 341 3 271 5 308 19 307 11 -1 15 8 15 33 0 23 7 38
22 49 12 8 22 22 22 30 0 8 9 14 20 14 10 0 24 9 30 20 7 13 21 20 40 20 16 0
36 7 44 16 27 26 78 29 105 5 13 -12 37 -21 52 -21 18 0 32 -7 39 -20 6 -11
20 -20 30 -20 11 0 20 -7 20 -15 0 -9 7 -18 15 -21 8 -4 15 -17 15 -30 0 -13
9 -32 20 -41 19 -17 20 -30 20 -299 0 -273 1 -282 20 -287 15 -4 20 -14 20
-39 0 -25 6 -36 23 -43 12 -6 21 -16 20 -22 -1 -6 9 -14 22 -17 14 -4 25 -12
25 -19 0 -7 14 -18 31 -24 17 -7 28 -17 24 -22 -4 -7 6 -11 27 -11 39 0 63
-13 54 -29 -5 -8 12 -11 57 -11 35 0 79 -5 98 -12 34 -12 34 -12 9 -19 -14 -4
34 -7 107 -8 123 -1 133 -2 147 -22 9 -14 21 -19 31 -15 9 3 18 -1 22 -10 3
-9 17 -20 30 -25 13 -5 21 -13 18 -19 -3 -5 3 -17 15 -27 11 -10 20 -29 20
-44 0 -14 10 -38 21 -53 17 -22 21 -37 17 -81 -3 -31 -11 -60 -21 -70 -9 -9
-17 -32 -17 -51 0 -24 -5 -34 -15 -34 -8 0 -15 -7 -15 -15 0 -9 -11 -20 -25
-25 -14 -5 -24 -15 -23 -22 2 -7 -7 -14 -20 -16 -12 -2 -27 -12 -32 -23 -10
-18 -23 -19 -168 -19 -159 0 -206 5 -196 21 6 11 -26 18 -94 21 -29 2 -52 7
-51 13 1 14 -30 23 -77 24 -33 1 -43 5 -47 21 -5 18 -14 20 -76 20 -58 0 -71
-3 -71 -16 0 -8 -13 -20 -30 -25 -16 -6 -28 -16 -27 -22 1 -7 -11 -13 -27 -15
-17 -2 -30 -11 -33 -22 -3 -10 -15 -20 -27 -22 -11 -2 -21 -10 -21 -18 0 -8
-10 -16 -22 -18 -15 -2 -23 -10 -23 -23 0 -11 -7 -19 -16 -19 -9 0 -18 -9 -21
-20 -3 -11 -10 -20 -15 -20 -13 0 -108 -97 -108 -111 0 -6 -6 -9 -14 -6 -8 3
-18 -4 -24 -19 -8 -17 -17 -22 -29 -17 -10 3 -15 3 -11 -2 13 -14 -11 -45 -29
-38 -11 4 -14 3 -9 -6 9 -14 -12 -43 -25 -36 -4 3 -11 -10 -15 -30 -3 -20 -12
-35 -20 -35 -8 0 -14 -9 -14 -19 0 -11 -8 -22 -18 -25 -10 -3 -23 -21 -30 -38
-10 -27 -14 -30 -22 -18 -7 11 -10 6 -10 -22 0 -27 -5 -38 -19 -43 -21 -6 -36
-38 -26 -54 3 -6 -3 -15 -14 -20 -10 -6 -22 -26 -25 -47 -5 -25 -11 -34 -22
-30 -10 4 -14 -3 -14 -27 0 -41 -12 -59 -32 -52 -14 6 -15 0 -11 -33 5 -34 2
-42 -16 -51 -15 -9 -21 -21 -21 -47 0 -38 -24 -74 -34 -51 -3 6 -4 -9 -2 -35
2 -32 -2 -55 -14 -73 -12 -18 -19 -23 -22 -14 -3 8 -3 -14 0 -49 4 -51 1 -66
-14 -83 -14 -15 -20 -44 -25 -117 -3 -53 -14 -126 -24 -162 -21 -78 -16 -229
9 -278 9 -17 16 -55 16 -85 0 -39 6 -61 20 -80 11 -14 20 -40 20 -59 0 -19 7
-43 15 -54 8 -10 15 -38 15 -61 0 -30 6 -48 22 -63 18 -16 22 -30 20 -73 -1
-28 1 -46 4 -39 10 22 33 -19 34 -57 0 -19 3 -32 6 -28 15 15 34 -25 35 -75 0
-36 3 -47 8 -33 8 19 8 19 19 -2 7 -12 12 -39 12 -60 0 -24 3 -33 9 -25 6 10
10 10 20 -2 7 -8 11 -20 10 -28 -3 -26 1 -39 11 -33 6 4 15 -7 21 -24 6 -17
17 -31 25 -31 8 0 14 -10 14 -24 0 -25 58 -96 78 -96 6 0 15 -7 20 -15 7 -14
108 -16 900 -16 881 1 892 1 912 21 11 11 25 20 30 20 6 0 10 19 10 43 0 29
-3 38 -9 28 -8 -12 -11 -10 -16 10 -3 13 -4 1930 -3 4259 2 3302 6 4234 15
4233 17 -4 28 64 14 93 -12 28 -60 33 -85 9z"/>
<path d="M13354 9205 c-93 -23 -189 -105 -220 -190 -26 -72 -26 -265 0 -315
37 -71 100 -138 156 -167 l55 -28 1850 0 1850 0 51 27 c51 28 134 102 134 120
0 6 9 22 19 37 18 25 20 43 18 172 l-2 144 -41 60 c-22 32 -61 74 -86 92 -96
67 22 63 -1949 62 -1393 -1 -1795 -4 -1835 -14z"/>
<path d="M13725 8118 c-33 -5 -67 -16 -77 -25 -9 -8 -23 -15 -30 -17 -8 -1
-21 -7 -29 -14 -47 -40 -69 -62 -69 -67 0 -3 -16 -28 -35 -56 -26 -36 -37 -64
-41 -102 -3 -29 -8 -55 -10 -58 -2 -3 2 -35 8 -70 19 -103 95 -210 179 -251
107 -51 6 -48 1570 -48 1435 0 1450 0 1511 21 33 11 67 27 75 35 8 7 18 14 22
14 4 0 23 15 43 33 83 76 125 210 102 321 -7 34 -23 81 -35 103 -22 41 -72
103 -84 103 -3 0 -27 15 -53 33 -35 25 -66 37 -120 45 -90 15 -2832 15 -2927
0z"/>
<path d="M15149 7090 c-722 -5 -778 -6 -796 -22 -11 -10 -24 -18 -30 -18 -15
0 -83 -82 -93 -111 -2 -8 -5 -49 -4 -91 0 -59 4 -81 18 -97 10 -10 19 -27 20
-36 1 -9 7 -20 14 -24 6 -3 16 -18 22 -31 6 -14 23 -45 39 -70 16 -25 30 -53
30 -62 1 -10 6 -18 11 -18 6 0 16 -12 22 -27 7 -16 27 -49 45 -75 18 -26 33
-50 33 -53 0 -15 61 -57 109 -75 52 -20 69 -21 620 -18 l566 3 48 25 c56 28
118 97 148 164 11 25 24 46 29 46 6 0 10 7 10 15 0 8 16 39 35 69 19 30 35 59
35 64 0 4 8 17 18 28 9 11 28 42 42 69 35 69 35 174 -1 225 -35 50 -62 80 -73
80 -5 0 -17 7 -26 15 -16 14 -38 21 -95 28 -11 1 -369 0 -796 -3z"/>
<path d="M9945 5446 c-196 -39 -335 -129 -408 -263 -84 -156 -89 -417 -10
-580 60 -124 189 -214 355 -247 98 -20 329 -21 418 -2 l65 14 55 -38 c127 -87
309 -160 400 -160 66 0 80 21 80 116 0 57 -4 77 -21 98 -11 14 -27 26 -36 26
-20 0 -140 48 -180 72 l-32 19 36 47 c83 108 118 237 110 402 -13 265 -140
424 -388 486 -89 22 -352 28 -444 10z m350 -251 c101 -49 137 -123 139 -285 2
-165 -40 -252 -148 -307 -41 -22 -69 -27 -142 -31 -199 -9 -295 60 -325 233
-28 164 19 315 118 376 92 57 257 64 358 14z"/>
<path d="M16228 5450 c-254 -43 -425 -189 -479 -410 -8 -31 -14 -103 -13 -165
1 -178 42 -283 150 -385 110 -102 219 -140 424 -147 214 -8 389 35 437 106 26
38 31 115 12 169 -16 47 -47 49 -143 8 -102 -44 -199 -59 -286 -45 -164 26
-243 125 -244 304 -1 105 12 155 57 221 49 73 118 107 227 112 95 5 162 -10
240 -51 70 -37 94 -40 124 -16 24 19 26 26 26 99 0 69 -3 82 -25 109 -64 75
-324 122 -507 91z"/>
<path d="M19720 5454 c-176 -31 -291 -86 -377 -178 -100 -107 -143 -225 -143
-396 0 -164 44 -286 140 -381 106 -107 262 -159 475 -159 136 0 245 20 333 60
73 34 82 50 82 151 0 56 -4 73 -20 89 -26 26 -39 25 -118 -9 -96 -42 -147 -54
-232 -54 -138 -1 -235 53 -281 155 -21 46 -24 68 -24 163 0 133 22 193 92 255
108 94 260 96 456 5 49 -23 63 -25 83 -16 31 14 44 48 44 119 0 98 -41 137
-186 177 -57 15 -273 28 -324 19z"/>
<path d="M11290 5440 c-63 -16 -61 -7 -58 -415 3 -358 4 -372 26 -427 48 -120
169 -210 327 -243 92 -19 328 -19 419 0 155 33 278 121 332 238 l29 62 3 377
3 377 -28 18 c-22 15 -48 18 -138 18 -170 0 -153 39 -157 -378 l-3 -352 -25
-45 c-17 -29 -41 -53 -70 -70 -40 -22 -57 -25 -145 -25 -83 0 -107 4 -140 21
-101 55 -104 68 -105 476 l0 338 -25 16 c-30 19 -188 29 -245 14z"/>
<path d="M15068 5441 c-71 -15 -68 1 -68 -343 l0 -310 -71 108 c-127 193 -311
458 -338 488 -43 48 -77 56 -225 56 -83 0 -145 -5 -161 -12 -55 -25 -55 -26
-55 -551 0 -579 -17 -522 155 -522 80 0 117 4 128 14 15 12 17 49 17 349 l0
335 215 -315 c118 -174 228 -327 245 -342 17 -14 47 -30 68 -36 55 -15 216
-13 256 4 69 29 66 7 66 553 l0 493 -24 15 c-28 19 -151 28 -208 16z"/>
<path d="M17095 5443 c-80 -22 -69 -48 145 -381 l190 -294 0 -183 c0 -236 -5
-228 147 -233 82 -3 118 0 146 11 l37 16 0 190 0 189 195 303 c132 205 195
311 195 329 0 48 -20 55 -165 55 -116 0 -136 -2 -153 -19 -20 -17 -66 -93
-178 -294 l-52 -93 -40 75 c-85 157 -182 314 -199 321 -22 9 -240 16 -268 8z"/>
<path d="M20692 5441 c-19 -5 -39 -14 -45 -20 -16 -16 -23 -950 -8 -1001 19
-65 20 -65 392 -68 406 -4 384 -10 384 117 0 120 9 115 -245 119 l-210 3 0
408 c0 484 13 441 -137 447 -54 2 -113 -1 -131 -5z"/>
<path d="M21790 5440 c-63 -16 -61 -7 -58 -415 3 -358 4 -372 26 -427 48 -120
169 -210 327 -243 93 -19 328 -19 420 0 95 20 201 73 254 126 24 24 58 73 75
109 l31 65 3 376 c4 454 19 414 -157 414 -76 0 -124 -4 -138 -13 l-23 -13 0
-327 c0 -337 -6 -394 -41 -444 -39 -54 -92 -73 -204 -73 -83 0 -107 4 -140 21
-101 55 -104 68 -105 476 l0 338 -25 16 c-30 19 -188 29 -245 14z"/>
<path d="M5654 5428 c-12 -5 -27 -21 -33 -34 -8 -17 -11 -176 -11 -513 0 -578
-14 -524 137 -529 52 -2 110 -1 128 2 64 12 65 17 65 227 l0 189 205 0 205 0
17 26 c26 40 22 149 -6 177 -20 21 -32 22 -221 25 l-200 3 0 105 0 104 210 0
c211 0 211 0 235 25 21 20 25 34 25 85 0 35 -6 74 -15 90 l-16 30 -352 -1
c-220 0 -360 -4 -373 -11z"/>
<path d="M6865 5415 l-25 -24 0 -506 0 -506 37 -16 c28 -11 64 -14 146 -11
152 5 147 -3 147 234 l0 184 51 0 c62 0 112 -22 142 -64 12 -17 58 -98 102
-181 54 -102 88 -153 105 -162 30 -15 236 -18 273 -4 34 13 42 53 19 104 -45
101 -167 306 -208 347 l-44 45 45 24 c211 112 203 407 -14 505 -108 48 -171
56 -474 56 l-278 0 -24 -25z m548 -215 c30 -15 57 -56 57 -89 0 -74 -65 -112
-202 -119 l-98 -5 0 118 0 117 108 -4 c61 -3 119 -10 135 -18z"/>
<path d="M8324 5428 c-12 -5 -27 -21 -33 -34 -14 -32 -16 -951 -1 -989 20 -51
47 -55 430 -55 l351 0 24 25 c22 21 25 33 25 94 0 63 -2 71 -26 90 -25 20 -39
21 -255 21 l-229 0 0 115 0 115 198 0 c180 0 200 2 215 18 38 42 29 169 -13
192 -11 6 -102 10 -209 10 l-191 0 0 95 0 95 233 0 c218 0 235 1 251 19 21 23
31 86 22 135 -13 69 2 66 -404 65 -231 0 -375 -4 -388 -11z"/>
<path d="M12896 5419 l-26 -20 0 -498 0 -498 26 -24 26 -24 346 -3 c191 -2
362 0 380 3 26 5 37 14 48 40 26 62 12 155 -26 175 -11 6 -118 10 -249 10
l-231 0 0 115 0 115 204 0 c237 0 228 -4 234 101 4 62 2 70 -21 93 l-26 26
-196 0 -195 0 0 95 0 95 235 0 c228 0 235 1 255 22 26 28 29 141 4 176 l-15
22 -373 0 c-363 0 -374 -1 -400 -21z"/>
<path d="M23395 5415 l-25 -24 0 -494 0 -494 26 -24 26 -24 276 0 c232 0 290
3 357 19 214 48 325 157 325 317 0 108 -61 201 -159 242 l-31 13 37 34 c50 47
73 102 73 175 0 142 -90 232 -273 269 -58 12 -139 16 -342 16 l-266 0 -24 -25z
m516 -205 c45 -24 59 -42 59 -79 0 -80 -54 -111 -190 -111 l-90 0 0 106 0 107
99 -6 c54 -3 109 -11 122 -17z m41 -420 c72 -21 111 -103 73 -156 -28 -41 -82
-57 -212 -62 l-123 -5 0 123 0 123 113 -6 c61 -3 129 -11 149 -17z"/>
</g>
</svg>
